<?xml version="1.0" encoding="UTF-8" standalone="no"?>
<!-- Created with Inkscape (http://www.inkscape.org/) -->

<svg
   width="394.55991"
   height="93.820061"
   viewBox="0 0 104.39397 24.823225"
   version="1.1"
   id="svg1072"
   inkscape:version="1.1 (c68e22c387, 2021-05-23)"
   sodipodi:docname="banner-message.svg"
   xmlns:inkscape="http://www.inkscape.org/namespaces/inkscape"
   xmlns:sodipodi="http://sodipodi.sourceforge.net/DTD/sodipodi-0.dtd"
   xmlns="http://www.w3.org/2000/svg"
   xmlns:svg="http://www.w3.org/2000/svg">
  <sodipodi:namedview
     id="namedview1074"
     pagecolor="#ffffff"
     bordercolor="#666666"
     borderopacity="1.0"
     inkscape:pageshadow="2"
     inkscape:pageopacity="0.0"
     inkscape:pagecheckerboard="0"
     inkscape:document-units="mm"
     showgrid="false"
     fit-margin-top="0"
     fit-margin-left="0"
     fit-margin-right="0"
     fit-margin-bottom="0"
     units="px"
     lock-margins="true"
     inkscape:zoom="1.2044332"
     inkscape:cx="310.93464"
     inkscape:cy="193.86712"
     inkscape:window-width="1920"
     inkscape:window-height="1017"
     inkscape:window-x="-8"
     inkscape:window-y="-8"
     inkscape:window-maximized="1"
     inkscape:current-layer="layer1" />
  <defs
     id="defs1069">
    <rect
       x="205.90598"
       y="353.69333"
       width="435.05939"
       height="239.11662"
       id="rect16027" />
    <rect
       x="134.5031"
       y="205.90598"
       width="413.4725"
       height="204.24545"
       id="rect11281" />
    <rect
       x="73.063408"
       y="63.10022"
       width="443.36206"
       height="255.72194"
       id="rect7735" />
    <filter
       y="-0.6231325"
       height="2.246265"
       inkscape:menu-tooltip="Darkens the edge with an inner blur and adds a flexible glow"
       inkscape:menu="Shadows and Glows"
       inkscape:label="Dark and Glow"
       style="color-interpolation-filters:sRGB"
       id="filter21450"
       x="-0.073719657"
       width="1.1474393">
      <feGaussianBlur
         stdDeviation="5"
         result="result6"
         id="feGaussianBlur21440" />
      <feComposite
         result="result8"
         in="SourceGraphic"
         operator="atop"
         in2="result6"
         id="feComposite21442" />
      <feComposite
         result="result9"
         operator="over"
         in2="SourceAlpha"
         in="result8"
         id="feComposite21444" />
      <feColorMatrix
         values="1 0 0 0 0 0 1 0 0 0 0 0 1 0 0 0 0 0 1 0 "
         result="result10"
         id="feColorMatrix21446" />
      <feBlend
         in="result10"
         mode="normal"
         in2="result6"
         id="feBlend21448" />
    </filter>
    <filter
       y="-0.17478853"
       height="1.3495771"
       inkscape:menu-tooltip="Darkens the edge with an inner blur and adds a flexible glow"
       inkscape:menu="Shadows and Glows"
       inkscape:label="Dark and Glow"
       style="color-interpolation-filters:sRGB"
       id="filter22313"
       x="-0.0096923808"
       width="1.0193848">
      <feGaussianBlur
         stdDeviation="0.63493750000000004"
         result="result6"
         id="feGaussianBlur22303" />
      <feComposite
         result="result8"
         in="SourceGraphic"
         operator="atop"
         in2="result6"
         id="feComposite22305" />
      <feComposite
         result="result9"
         operator="over"
         in2="SourceAlpha"
         in="result8"
         id="feComposite22307" />
      <feColorMatrix
         values="1 0 0 0 0 0 1 0 0 0 0 0 1 0 0 0 0 0 1 0 "
         result="result10"
         id="feColorMatrix22309" />
      <feBlend
         in="result10"
         mode="normal"
         in2="result6"
         id="feBlend22311" />
    </filter>
    <filter
       y="-0.52420496"
       height="2.0484097"
       inkscape:menu-tooltip="Darkens the edge with an inner blur and adds a flexible glow"
       inkscape:menu="Shadows and Glows"
       inkscape:label="Dark and Glow"
       style="color-interpolation-filters:sRGB"
       id="filter22894"
       x="-0.029068236"
       width="1.0581365">
      <feGaussianBlur
         stdDeviation="1.8848124999999998"
         result="result6"
         id="feGaussianBlur22884" />
      <feComposite
         result="result8"
         in="SourceGraphic"
         operator="atop"
         in2="result6"
         id="feComposite22886" />
      <feComposite
         result="result9"
         operator="over"
         in2="SourceAlpha"
         in="result8"
         id="feComposite22888" />
      <feColorMatrix
         values="1 0 0 0 0 0 1 0 0 0 0 0 1 0 0 0 0 0 1 0 "
         result="result10"
         id="feColorMatrix22890" />
      <feBlend
         in="result10"
         mode="normal"
         in2="result6"
         id="feBlend22892" />
    </filter>
    <filter
       y="-0.026907722"
       height="1.0537855"
       inkscape:menu-tooltip="Darkens the edge with an inner blur and adds a flexible glow"
       inkscape:menu="Shadows and Glows"
       inkscape:label="Dark and Glow"
       style="color-interpolation-filters:sRGB"
       id="filter5410"
       x="-0.011908284"
       width="1.0238231">
      <feGaussianBlur
         stdDeviation="5"
         result="result6"
         id="feGaussianBlur5400" />
      <feComposite
         result="result8"
         in="SourceGraphic"
         operator="atop"
         in2="result6"
         id="feComposite5402" />
      <feComposite
         result="result9"
         operator="over"
         in2="SourceAlpha"
         in="result8"
         id="feComposite5404" />
      <feColorMatrix
         values="1 0 0 0 0 0 1 0 0 0 0 0 1 0 0 0 0 0 1 0 "
         result="result10"
         id="feColorMatrix5406" />
      <feBlend
         in="result10"
         mode="normal"
         in2="result6"
         id="feBlend5408" />
    </filter>
  </defs>
  <g
     inkscape:label="Layer 1"
     inkscape:groupmode="layer"
     id="layer1"
     transform="translate(115.45858,-0.09891206)">
    <g
       id="g21266"
       transform="matrix(0.74904168,0,0,0.4011222,-55.763736,46.621296)"
       style="fill:#333333;filter:url(#filter21450)">
      <path
         style="color:#000000;fill:#333333;stroke-width:0.0808315;stroke-linejoin:round;-inkscape-stroke:none;paint-order:markers fill stroke"
         d="M -121.38561,47.219101 H 36.780065 c 1.277846,0 2.306582,1.028736 2.306582,2.306582 0,1.277847 -1.028736,2.306583 -2.306582,2.306583 H -121.38561 c -1.27785,0 -2.30658,-1.028736 -2.30658,-2.306583 0,-1.277846 1.02873,-2.306582 2.30658,-2.306582 z"
         id="rect20723" />
      <path
         style="color:#000000;fill:#333333;stroke-width:0.264583px;-inkscape-stroke:none"
         d="M 38.15303,51.145785 C 12.684527,77.59766 -1.7386201,61.791513 -1.7386201,61.791513 c 0,0 11.5092022,3.431928 20.1621001,-6.491086 8.652899,-9.923012 19.72955,-4.154642 19.72955,-4.154642 z"
         id="path21044" />
    </g>
    <g
       id="g21609"
       transform="matrix(0.74904168,0,0,0.4011222,-39.837331,33.550661)"
       style="fill:#00ff00;filter:url(#filter21450)">
      <path
         style="color:#000000;fill:#00ff00;stroke-width:0.0808315;stroke-linejoin:round;-inkscape-stroke:none;paint-order:markers fill stroke"
         d="M -121.38561,47.219101 H 36.780065 c 1.277846,0 2.306582,1.028736 2.306582,2.306582 0,1.277847 -1.028736,2.306583 -2.306582,2.306583 H -121.38561 c -1.27785,0 -2.30658,-1.028736 -2.30658,-2.306583 0,-1.277846 1.02873,-2.306582 2.30658,-2.306582 z"
         id="path21605" />
      <path
         style="color:#000000;fill:#00ff00;stroke-width:0.264583px;-inkscape-stroke:none"
         d="M 38.15303,51.145785 C 12.684527,77.59766 -1.7386201,61.791513 -1.7386201,61.791513 c 0,0 11.5092022,3.431928 20.1621001,-6.491086 8.652899,-9.923012 19.72955,-4.154642 19.72955,-4.154642 z"
         id="path21607" />
    </g>
    <g
       id="g21920"
       style="fill:#00ff00"
       transform="translate(13.980003,-7.3006683)">
      <path
         style="color:#000000;fill:#00ff00;-inkscape-stroke:none"
         d="m -122.82031,98.929687 -0.0156,0.115235 -0.66211,5.246098 1.08594,3.42773 2.44727,-0.28516 4.01171,0.93555 2.82032,-0.44336 3.89062,-0.32812 3.8086,-0.0566 4.55468,-1.81055 3.500004,0.10937 1.755859,-0.27343 4.087891,0.26757 0.703125,1.24415 3.251953,1.14257 0.05859,-0.0527 c 0,0 0.290257,-0.26379 0.595703,-0.57617 0.152723,-0.1562 0.309738,-0.32539 0.4375,-0.48242 0.127761,-0.15704 0.227662,-0.29194 0.267578,-0.43165 0.01112,-0.0389 0.08858,-0.13723 0.212891,-0.23046 0.124312,-0.0932 0.288281,-0.18767 0.449218,-0.27149 0.298866,-0.15566 0.54809,-0.25374 0.587891,-0.26953 l 1.490234,0.58594 4.16211,1.2207 2.132812,-0.61719 2.482422,-1.16211 0.787109,1.36719 3.134766,0.96875 1.933594,-1.41015 0.416015,1.46484 6.369141,-0.75586 2.050781,-1.18555 3.609375,-0.96679 1.667969,1.66796 4.138672,1.10938 0.05273,-0.0391 c 0,0 0.316336,-0.2472 0.736328,-0.52149 0.419993,-0.27428 0.947428,-0.57468 1.332032,-0.67773 0.796775,-0.2135 1.769,-0.11108 2.183593,0 0.08315,0.0223 0.193896,0.0308 0.353516,0.0391 0.15962,0.008 0.359778,0.0128 0.587891,0.0156 0.456226,0.006 1.021446,0.002 1.572265,-0.006 1.101638,-0.0149 2.146485,-0.043 2.146485,-0.043 l 0.01563,-0.002 3.458984,-0.92578 4.238281,2.44727 0.949219,-1.64453 2.949219,0.78906 3.384765,-0.90625 h 4.605469 l 5.978516,-0.82812 1.283203,2.2246 2.666015,-2.66601 c 0.01627,-0.007 0.390771,-0.17576 0.914063,-0.35156 0.534531,-0.17958 1.2066112,-0.35547 1.7265625,-0.35547 0.5007275,0 1.0000563,0.28142 1.4570312,0.62304 0.456975,0.34163 0.8595639,0.73464 1.2109376,0.9375 0.333166,0.19236 0.5417119,0.24924 0.7792968,0.28711 0.237585,0.0379 0.5053416,0.0609 1.0214844,0.19922 0.5399239,0.14468 0.9561923,0.14667 1.2402344,0.10938 0.2456705,-0.0323 0.3493289,-0.0865 0.3867187,-0.10352 h 0.00195 3.3476563 l 0.70507812,-2.63086 H 3.9121094 c 0.043036,0.043 1.2700914,1.26814 2.2402343,2.23828 0.5450658,0.54507 1.5152337,0.6538 2.5683594,0.58985 1.0531257,-0.064 2.1995499,-0.3139 3.1054689,-0.55664 0.87469,-0.23437 1.474712,-0.11422 1.988281,0.008 0.256785,0.061 0.490957,0.12521 0.728516,0.14062 0.237559,0.0154 0.480477,-0.0215 0.720703,-0.16015 0.381429,-0.22022 1.006492,-0.21027 1.582031,-0.13672 0.28777,0.0368 0.562583,0.088 0.791016,0.12305 0.228433,0.0351 0.396584,0.0651 0.544922,0.0254 0.15377,-0.0412 0.635539,-0.11223 1.105468,-0.20899 0.234965,-0.0484 0.471259,-0.1049 0.671875,-0.16992 0.200616,-0.065 0.366441,-0.13011 0.478516,-0.24219 0.135143,-0.13514 0.397053,-0.29121 0.621094,-0.40429 0.204854,-0.1034 0.345046,-0.16046 0.373047,-0.17188 l 2.929687,0.78711 h 0.002 c 0,0 0.601025,0.12495 1.257813,0.2832 0.328394,0.0791 0.670029,0.1665 0.957031,0.25 0.287002,0.0835 0.525855,0.17023 0.613281,0.22071 0.50134,0.28944 1.13086,0.30273 1.13086,0.30273 l 0.02148,0.002 2.099609,-0.5625 0.859375,-1.49023 0.798828,2.98047 2.433594,-9.082033 z m 0.23242,0.265625 H 34.191406 l -2.089844,7.794918 -0.708984,-2.64453 -1.125,1.94727 -1.947266,0.52148 c -0.01366,-6.6e-4 -0.582117,-0.0266 -0.996093,-0.26562 -0.142639,-0.0824 -0.378228,-0.15871 -0.671875,-0.24414 -0.293648,-0.0854 -0.637978,-0.17226 -0.96875,-0.25196 -0.657441,-0.15841 -1.250396,-0.2836 -1.257813,-0.28515 l -0.0078,-0.002 -3.007813,-0.80469 -0.04102,0.0156 c 0,0 -0.19497,0.0788 -0.429688,0.19727 -0.234718,0.11847 -0.509363,0.27303 -0.689453,0.45312 -0.04554,0.0455 -0.188339,0.11983 -0.373047,0.17969 -0.184707,0.0599 -0.412695,0.11283 -0.642578,0.16016 -0.459765,0.0947 -0.916185,0.15993 -1.121094,0.21484 -0.031,0.008 -0.214779,0.001 -0.4375,-0.0332 -0.22272,-0.0342 -0.500447,-0.0852 -0.796875,-0.12305 -0.592855,-0.0758 -1.26153,-0.11292 -1.748047,0.16797 -0.193747,0.11186 -0.369554,0.13998 -0.570312,0.12695 -0.200758,-0.013 -0.424772,-0.0709 -0.685547,-0.13281 -0.521549,-0.12392 -1.190396,-0.25419 -2.117187,-0.006 -0.895564,0.23997 -2.029609,0.48474 -3.0527349,0.54688 -1.0231259,0.0621 -1.9251865,-0.0717 -2.3671875,-0.51368 -0.9870671,-0.98707 -2.2773437,-2.27734 -2.2773437,-2.27734 l -0.039063,-0.0391 H 0.48632813 L -0.21875,106.5293 h -3.1796875 l -0.027344,0.0156 c 0,0 -0.1109171,0.0589 -0.3613281,0.0918 -0.250411,0.0329 -0.6291768,0.0344 -1.1367187,-0.10156 -0.531323,-0.14237 -0.8256715,-0.16951 -1.0488281,-0.20508 -0.2231567,-0.0356 -0.3740993,-0.0749 -0.6875,-0.25586 -0.2951961,-0.17043 -0.7112742,-0.56732 -1.1855469,-0.92188 -0.4742728,-0.35455 -1.0176855,-0.67578 -1.6152344,-0.67578 -0.5783243,0 -1.2632053,0.18721 -1.8105463,0.3711 -0.547342,0.18388 -0.957032,0.36718 -0.957032,0.36718 l -0.02344,0.01 -2.457031,2.45898 -1.203125,-2.08007 -6.134766,0.84961 h -4.621094 l -3.351562,0.89843 -3.076172,-0.82422 -0.919922,1.5918 -4.103516,-2.37109 -3.535156,0.94726 c -0.01506,4.3e-4 -1.035824,0.0302 -2.126953,0.0449 -0.54957,0.007 -1.112349,0.0114 -1.564453,0.006 -0.226052,-0.003 -0.424376,-0.008 -0.578125,-0.0156 -0.153749,-0.008 -0.27126,-0.0239 -0.298828,-0.0312 -0.471152,-0.12624 -1.453586,-0.23224 -2.320313,0 -0.447147,0.11981 -0.978454,0.43224 -1.408203,0.71289 -0.39773,0.25974 -0.653588,0.46044 -0.697265,0.49414 l -3.949219,-1.05859 -1.726563,-1.72657 -3.789062,1.01563 -2.035156,1.17578 -6.089844,0.7207 -0.460938,-1.61132 -2.130859,1.55664 -2.908203,-0.89844 -0.857422,-1.48828 -2.681641,1.2539 -2.041015,0.5918 -4.076172,-1.19727 -1.580078,-0.61914 -0.04883,0.0176 c 0,0 -0.321054,0.12518 -0.658204,0.30078 -0.168574,0.0878 -0.340958,0.18932 -0.484375,0.29688 -0.143416,0.10756 -0.26479,0.21583 -0.308593,0.36914 -0.015,0.0525 -0.09938,0.19116 -0.21875,0.33789 -0.119372,0.14673 -0.272546,0.31017 -0.421875,0.46289 -0.269707,0.27584 -0.479608,0.46627 -0.527344,0.50977 l -3.007813,-1.05469 -0.724609,-1.28125 -4.259766,-0.2793 -1.759765,0.27344 -3.529304,-0.10938 -4.5625,1.8125 -3.76953,0.0547 -3.9082,0.33008 -2.7793,0.4375 -4.00781,-0.93359 -2.27539,0.26367 -1.00196,-3.16211 z"
         id="path21804" />
      <path
         style="color:#000000;fill:#00ff00;-inkscape-stroke:none"
         d="m -116.68555,102.88672 -1.04297,0.17383 -0.88281,1.29492 0.16211,1.51562 -1.59375,1.32813 0.16992,0.20312 1.70117,-1.41796 -0.16601,-1.56055 0.76367,-1.1211 0.93359,-0.15625 z"
         id="path21806" />
      <path
         style="color:#000000;fill:#00ff00;-inkscape-stroke:none"
         d="m -116.23242,104.93359 -0.35156,0.70313 -1.73829,0.1582 0.0234,0.26367 1.88672,-0.17187 0.41602,-0.83399 z"
         id="path21808" />
      <path
         style="color:#000000;fill:#00ff00;-inkscape-stroke:none"
         d="m -104.10938,103.67578 v 1.73242 l 1.3418,-0.91406 1.79297,1.21289 0.14648,-0.21875 -1.9414,-1.31445 -1.07422,0.73437 v -1.23242 z"
         id="path21810" />
      <path
         style="color:#000000;fill:#00ff00;-inkscape-stroke:none"
         d="m -86.955078,102.25977 -1.347656,2.02148 -3.203125,1.30273 0.09961,0.2461 3.279297,-1.33399 1.287109,-1.93164 1.775391,0.47071 0.06836,-0.25586 z"
         id="path21812" />
      <path
         style="color:#000000;fill:#00ff00;-inkscape-stroke:none"
         d="m -71.916016,103.42578 -1.333984,1.08008 0.166016,0.20508 0.972656,-0.78711 0.140625,0.98633 3.128906,1.8457 0.134766,-0.22852 -3.019531,-1.78125 z"
         id="path21814" />
      <path
         style="color:#000000;fill:#00ff00;-inkscape-stroke:none"
         d="m -56.089844,103.44531 -3.191406,1.50196 2.898438,0.45312 0.03906,-0.26172 -2.042969,-0.31836 2.410157,-1.13476 z"
         id="path21816" />
      <path
         style="color:#000000;fill:#00ff00;-inkscape-stroke:none"
         d="m -49.818359,100.6875 -0.01758,0.26367 c 0,0 1.305017,0.0827 2.685546,0.15821 0.690265,0.0378 1.3994,0.0744 1.97461,0.0977 0.57521,0.0232 1.001643,0.0359 1.18164,0.0195 0.03187,-0.003 0.139388,0.016 0.273438,0.0664 0.13405,0.0504 0.300589,0.12759 0.484375,0.22266 0.367572,0.19012 0.806098,0.44967 1.226562,0.71289 0.833598,0.52184 1.580547,1.04159 1.59375,1.05078 l 2.175782,2.69531 0.205078,-0.16602 -2.199219,-2.72461 -0.01563,-0.0117 c 0,0 -0.771324,-0.53567 -1.619141,-1.06641 -0.423908,-0.26537 -0.867116,-0.53054 -1.246093,-0.72656 -0.189489,-0.098 -0.361951,-0.17812 -0.511719,-0.23438 -0.149768,-0.0563 -0.271466,-0.0929 -0.390625,-0.082 -0.122055,0.0111 -0.573553,0.002 -1.146484,-0.0215 -0.572932,-0.0231 -1.281139,-0.058 -1.970704,-0.0957 -1.379129,-0.0755 -2.683593,-0.1582 -2.683593,-0.1582 z"
         id="path21818" />
      <path
         style="color:#000000;fill:#00ff00;-inkscape-stroke:none"
         d="m -17.886719,101.85547 -0.169922,2.76953 2.00586,1.23438 0.138672,-0.22461 -1.871094,-1.15235 0.160156,-2.61133 z"
         id="path21820" />
      <path
         style="color:#000000;fill:#00ff00;-inkscape-stroke:none"
         d="m -29.298828,105.54297 -0.841797,1.89258 0.240234,0.10742 0.84375,-1.89063 z"
         id="path21822" />
      <path
         style="color:#000000;fill:#00ff00;-inkscape-stroke:none"
         d="m 8.7402344,99.943359 -0.15625,0.214841 1.9453126,1.41993 -0.9023439,2.04296 -1.0800781,-1.64843 -4.6308594,1.93554 0.1015625,0.24414 4.4296875,-1.84961 1.2246094,1.86915 1.185547,-2.68165 z"
         id="path21824" />
      <path
         style="color:#000000;fill:#00ff00;-inkscape-stroke:none"
         d="m 26.697266,103.57617 -1.175782,1.01563 -4.115234,0.375 0.02344,0.26367 4.201172,-0.38281 1.240235,-1.07227 z"
         id="path21826" />
    </g>
    <path
       style="fill:#008000;stroke:none;stroke-width:0.0932;stroke-linejoin:round;paint-order:markers fill stroke;filter:url(#filter22313)"
       d="m 9.9448896,43.456884 c -0.78319,-0.18488 -1.46794,-0.38015 -1.52166,-0.43392 -0.0537,-0.0538 0.16767,-0.30737 0.49198,-0.56354 0.44483,-0.35135 0.82346,-0.49269 1.5415104,-0.57544 0.81019,-0.0934 0.97808,-0.16726 1.12814,-0.49661 0.17259,-0.37877 0.11887,-0.67431 -0.12255,-0.67431 -0.0667,0 -0.20085,0.17475 -0.29817,0.38833 -0.15037,0.33004 -0.28132,0.38834 -0.87223,0.38834 -0.6725904,0 -0.6986404,-0.0179 -0.7980204,-0.54762 -0.13548,-0.72217 0.5136904,-1.78238 1.0913604,-1.78238 0.37015,0 0.66493,-0.24814 0.49576,-0.41732 -0.0473,-0.0473 -0.33254,-0.0397 -0.63388,0.0168 -0.41249,0.0774 -0.6600304,0.26575 -1.0015704,0.76216 -0.39244,0.5704 -0.44238,0.75949 -0.37004,1.40126 0.0783,0.69479 0.0502,0.77099 -0.44251,1.20009 -0.81228,0.70739 -1.22662,0.88282 -2.2265296,0.94269 l -0.92372,0.0553 -0.46518,-1.5293 -0.46518,-1.5293 0.30157,-2.4317 0.30157,-2.4317 78.309155,-0.039 78.309145,-0.039 -0.45193,1.66998 c -0.24856,0.9185 -0.67747,2.52621 -0.95314,3.5727 -0.46075,1.74918 -0.71974,2.31719 -0.74369,1.63112 -0.005,-0.1495 -0.1294,-0.6542 -0.27596,-1.12155 l -0.26647,-0.84972 -0.60325,1.03125 c -0.5998,1.02534 -0.60902,1.0327 -1.60647,1.28325 -0.93467,0.23479 -1.05767,0.23382 -1.80028,-0.0141 -0.4384,-0.14633 -1.67083,-0.4885 -2.73875,-0.76037 l -1.94167,-0.49431 1.08734,-0.10664 c 1.80632,-0.17715 1.99624,-0.23616 2.61695,-0.8131 0.43425,-0.40362 0.55096,-0.60213 0.42694,-0.72616 -0.12403,-0.12402 -0.32986,-0.0181 -0.75295,0.38739 -0.58222,0.55802 -0.58248,0.5581 -2.67928,0.7427 -1.80364,0.1588 -2.20564,0.24515 -2.87366,0.61729 -1.05125,0.58564 -2.08602,0.78008 -3.59472,0.67547 -0.77485,-0.0537 -1.46039,-0.0195 -1.7699,0.0884 -0.37754,0.1316 -0.75042,0.13092 -1.47574,-0.003 -0.83915,-0.15462 -1.1884,-0.13501 -2.57943,0.14485 -2.31675,0.46609 -2.80405,0.51453 -3.62785,0.36062 -0.62775,-0.11727 -0.90502,-0.30516 -1.88088,-1.2745 -0.62953,-0.62532 -1.09304,-1.18579 -1.03004,-1.24547 0.063,-0.0597 0.95197,-0.45688 1.97548,-0.88266 l 1.86091,-0.77414 0.52872,0.79917 c 0.76534,1.15684 0.75613,1.15384 1.10299,0.35878 0.17387,-0.39853 0.45189,-1.03553 0.61782,-1.41556 l 0.30169,-0.69094 -1.08776,-0.80639 c -0.75063,-0.55647 -1.13765,-0.7565 -1.24874,-0.6454 -0.11109,0.11109 0.12049,0.36613 0.74723,0.82292 0.49952,0.36407 0.93483,0.68331 0.96736,0.70943 0.0869,0.0698 -0.62152,1.76738 -0.73735,1.76706 -0.0541,-1.6e-4 -0.2971,-0.31471 -0.53989,-0.699 -0.24279,-0.3843 -0.47521,-0.69873 -0.51649,-0.69873 -0.0413,0 -1.08379,0.4194 -2.31667,0.932 l -2.24162,0.932 h -1.77941 -1.77941 l -0.15419,0.5825 c -0.0848,0.32038 -0.23929,0.90518 -0.34331,1.29957 l -0.18913,0.71706 -2.1559,0.0775 c -2.84777,0.10241 -3.67228,-0.0707 -4.96373,-1.04226 -1.25336,-0.94289 -1.57697,-1.06192 -2.57697,-0.94778 -1.49056,0.17014 -2.33249,0.6076 -3.60605,1.87369 l -1.17397,1.1671 -0.51468,-0.9362 c -0.40966,-0.74517 -0.70889,-1.05967 -1.46655,-1.54139 l -0.95187,-0.60521 0.046,-1.33198 c 0.0272,-0.78697 -0.0155,-1.33197 -0.10437,-1.33197 -0.22899,0 -0.3375,0.58264 -0.33984,1.82488 l -0.002,1.12588 0.73784,0.46334 c 0.40581,0.25483 0.69663,0.46466 0.64626,0.46628 -0.0504,0.002 -1.3435,0.17765 -2.87366,0.39118 -1.93512,0.27003 -3.49145,0.38941 -5.1121,0.39212 -1.97523,0.003 -2.52588,0.0598 -3.616427,0.371 l -1.28644,0.3671 0.10228,-0.33206 c 0.0563,-0.18263 0.19548,-0.51542 0.3094,-0.73953 0.19196,-0.37763 0.15822,-0.60219 -0.0905,-0.60219 -0.0566,0 -0.26935,0.36698 -0.47281,0.8155 -0.20345,0.44852 -0.38206,0.83653 -0.39689,0.86224 -0.0279,0.0483 -2.348589,-0.52352 -2.750036,-0.67757 -0.15155,-0.0582 -0.387694,0.17574 -0.715817,0.70901 l -0.489659,0.7958 -0.500226,-0.29873 c -0.275125,-0.16431 -1.164275,-0.68572 -1.975893,-1.1587 -1.277241,-0.74433 -1.619935,-1.03976 -2.548567,-2.19712 -0.815221,-1.01601 -1.369383,-1.52734 -2.307344,-2.12902 -2.03245,-1.30376 -2.142397,-1.33272 -5.512591,-1.45199 -1.873057,-0.0663 -2.990167,-0.0503 -2.990167,0.0428 0,0.22209 0.742995,0.31036 3.572668,0.42444 2.814342,0.11347 2.866724,0.12976 5.048332,1.57044 0.66683,0.44035 2.799102,2.81928 2.655597,2.96279 -0.0274,0.0274 -0.662734,0.21845 -1.411859,0.42455 -1.5831,0.43555 -4.727707,0.65199 -6.252173,0.43032 -1.447213,-0.21043 -2.559098,-0.007 -3.548512,0.65025 l -0.835414,0.55468 -1.969545,-0.53448 c -1.922262,-0.52165 -1.990379,-0.55508 -2.837484,-1.3924 -0.798815,-0.78959 -0.940314,-0.86638 -1.776535,-0.96421 l -0.908589,-0.10629 1.102756,-0.51079 c 0.672661,-0.31157 1.102757,-0.60467 1.102757,-0.75151 0,-0.25428 -0.172685,-0.19116 -2.563,0.93684 l -0.932,0.43982 0.699,0.13637 c 1.205712,0.23524 1.197181,0.28615 -0.108701,0.64898 -0.700532,0.19464 -1.742573,0.6161 -2.315639,0.93658 -0.969584,0.54222 -1.210143,0.60251 -3.46397,0.86819 -1.332113,0.15702 -2.677247,0.32191 -2.98918,0.36642 -0.565862,0.0807 -0.567563,0.0792 -0.745599,-0.65629 -0.174014,-0.71892 -0.216408,-0.75954 -1.708446,-1.63715 -1.499738,-0.88214 -1.532615,-0.91386 -1.66207,-1.60356 l -0.132064,-0.70363 -0.743617,0.58035 c -0.51035,0.3983 -0.69341,0.63055 -0.583568,0.74039 0.109845,0.10985 0.306565,0.0517 0.627116,-0.18526 l 0.467069,-0.34532 0.0024,0.43182 c 0.0021,0.38038 0.176845,0.53356 1.466419,1.28615 l 1.463931,0.85433 -0.41792,0.34103 c -1.066974,0.87065 -1.222917,0.89639 -2.7007,0.44563 -1.293749,-0.39461 -1.361122,-0.43815 -1.767353,-1.14212 -0.23228,-0.40253 -0.435993,-0.74994 -0.452691,-0.77202 -0.0167,-0.0221 -0.653045,0.24882 -1.414103,0.60201 -0.761055,0.35319 -1.834777,0.77229 -2.386044,0.93135 l -1.002303,0.28919 -1.871363,-0.54811 c -1.029251,-0.30146 -2.301952,-0.71159 -2.828224,-0.9114 -0.939321,-0.35663 -0.967793,-0.35819 -1.553334,-0.0854 -0.32806,0.15283 -0.927648,0.66277 -1.332416,1.1332 l -0.735943,0.85533 -1.450137,-0.47767 c -1.203695,-0.39649 -1.495541,-0.55677 -1.717296,-0.94316 -0.146937,-0.25602 -0.211701,-0.51251 -0.14392,-0.56997 0.06778,-0.0575 0.752337,-0.36342 1.521237,-0.67992 1.330979,-0.54786 1.426747,-0.61988 1.997602,-1.5022 0.329779,-0.50971 0.644329,-0.92592 0.699,-0.92491 0.05467,10e-4 0.461788,0.0983 0.904708,0.21625 0.644224,0.17153 0.820394,0.1751 0.880735,0.0179 0.08274,-0.21562 -1.787337,-0.80167 -2.046671,-0.64139 -0.0802,0.0496 -0.412576,0.50211 -0.738617,1.00566 -0.576677,0.89064 -0.636262,0.93318 -2.19022,1.56377 l -1.597414,0.64822 -2.094323,-0.14327 c -1.324652,-0.0906 -2.396129,-0.0881 -2.915559,0.007 -0.451681,0.0825 -1.590138,0.12466 -2.529906,0.0937 l -1.708666,-0.0563 -0.976138,-0.66691 -0.976138,-0.66692 -0.538363,0.33272 -0.538361,0.33273 v -0.55634 c 0,-0.30598 -0.0699,-0.55633 -0.155335,-0.55633 -0.08646,0 -0.155331,0.41715 -0.155331,0.94078 v 0.94078 l 0.477941,-0.28061 c 0.262868,-0.15434 0.54969,-0.36638 0.637383,-0.47121 0.122241,-0.14612 0.321329,-0.0792 0.853306,0.28681 0.381627,0.26257 0.67148,0.49934 0.64412,0.52617 -0.02736,0.0268 -0.942121,0.40454 -2.032794,0.83936 -1.928619,0.76889 -2.026671,0.79064 -3.572666,0.79249 -1.759612,0.002 -6.247922,0.36811 -7.552332,0.61585 -1.109021,0.21063 -1.397581,0.19148 -3.0726214,-0.20394 z"
       id="path22413"
       transform="matrix(0.78607134,0,0,0.68521048,-189.66307,-63.877593)" />
    <g
       id="g10442"
       transform="translate(1.1567096)">
      <path
         style="color:#000000;font-size:40px;font-family:'Bebas Neue';-inkscape-font-specification:'Bebas Neue, Normal';white-space:pre;fill:#1a1a1a;stroke-width:0.478283;-inkscape-stroke:none"
         d="m -107.68684,5.8145661 h 3.11841 q 1.62616,0 2.37228,0.7652525 0.74612,0.7461212 0.74612,2.314889 V 9.717354 q 0,2.085313 -1.37745,2.640121 v 0.03826 q 0.76525,0.229576 1.07135,0.937434 0.32523,0.707859 0.32523,1.894 v 2.353152 q 0,0.573939 0.0383,0.937434 0.0383,0.344364 0.19131,0.688728 h -2.14271 q -0.11479,-0.325233 -0.15305,-0.612202 -0.0383,-0.28697 -0.0383,-1.033091 v -2.448809 q 0,-0.918303 -0.3061,-1.281798 -0.28697,-0.363494 -1.01396,-0.363494 h -0.72699 v 5.739394 h -2.10445 z m 2.8697,5.7393939 q 0.63133,0 0.93744,-0.325232 0.32523,-0.325233 0.32523,-1.090485 V 9.105152 q 0,-0.7269899 -0.26784,-1.0522222 -0.24871,-0.3252324 -0.80352,-0.3252324 h -0.95656 V 11.55396 Z"
         id="path19219" />
      <path
         style="color:#000000;font-size:40px;font-family:'Bebas Neue';-inkscape-font-specification:'Bebas Neue, Normal';white-space:pre;fill:#1a1a1a;stroke-width:0.478283;-inkscape-stroke:none"
         d="m -99.976919,5.8145646 h 2.104444 V 19.206485 h -2.104444 z"
         id="path19221" />
      <path
         style="color:#000000;font-size:40px;font-family:'Bebas Neue';-inkscape-font-specification:'Bebas Neue, Normal';white-space:pre;fill:#1a1a1a;stroke-width:0.478283;-inkscape-stroke:none"
         d="m -93.567941,19.397798 q -1.530505,0 -2.314888,-0.860909 -0.784383,-0.880041 -0.784383,-2.506202 v -0.765253 h 1.989655 v 0.918303 q 0,1.300929 1.090485,1.300929 0.535676,0 0.803515,-0.306101 0.28697,-0.325232 0.28697,-1.033091 0,-0.841777 -0.382627,-1.473111 -0.382626,-0.650464 -1.415717,-1.549636 -1.300928,-1.147879 -1.817473,-2.066182 -0.516546,-0.937434 -0.516546,-2.1044449 0,-1.587899 0.803515,-2.4488081 0.803514,-0.8800405 2.334019,-0.8800405 1.511374,0 2.276627,0.8800405 0.784383,0.8609091 0.784383,2.4870707 v 0.5548081 h -1.989656 V 8.8564435 q 0,-0.6887273 -0.267839,-0.9948283 -0.267838,-0.3252323 -0.784383,-0.3252323 -1.052223,0 -1.052223,1.281798 0,0.7269899 0.382627,1.3583241 0.401757,0.631333 1.434848,1.530505 1.320061,1.147878 1.817475,2.085313 0.497414,0.937434 0.497414,2.200101 0,1.645293 -0.822646,2.525333 -0.803516,0.880041 -2.353152,0.880041 z"
         id="path19223" />
      <path
         style="color:#000000;font-size:40px;font-family:'Bebas Neue';-inkscape-font-specification:'Bebas Neue, Normal';white-space:pre;fill:#1a1a1a;stroke-width:0.478283;-inkscape-stroke:none"
         d="m -89.186875,5.8145646 h 5.739394 v 1.9131313 h -3.63495 v 3.5392931 h 2.888829 v 1.913132 h -2.888829 v 4.113232 h 3.63495 v 1.913132 h -5.739394 z"
         id="path19225" />
      <path
         style="color:#000000;font-size:40px;font-family:'Bebas Neue';-inkscape-font-specification:'Bebas Neue, Normal';white-space:pre;fill:#f2f2f2;stroke-width:0.478283;-inkscape-stroke:none"
         d="m -108.36676,5.8145661 h 3.11841 q 1.62616,0 2.37228,0.7652525 0.74612,0.7461212 0.74612,2.314889 V 9.717354 q 0,2.085313 -1.37745,2.640121 v 0.03826 q 0.76525,0.229576 1.07135,0.937434 0.32523,0.707859 0.32523,1.894 v 2.353152 q 0,0.573939 0.0383,0.937434 0.0383,0.344364 0.19131,0.688728 h -2.14271 q -0.11479,-0.325233 -0.15305,-0.612202 -0.0383,-0.28697 -0.0383,-1.033091 v -2.448809 q 0,-0.918303 -0.3061,-1.281798 -0.28697,-0.363494 -1.01396,-0.363494 h -0.72699 v 5.739394 h -2.10445 z m 2.8697,5.7393939 q 0.63133,0 0.93744,-0.325232 0.32523,-0.325233 0.32523,-1.090485 V 9.105152 q 0,-0.7269899 -0.26784,-1.0522222 -0.24871,-0.3252324 -0.80352,-0.3252324 h -0.95656 V 11.55396 Z"
         id="path21503" />
      <path
         style="color:#000000;font-size:40px;font-family:'Bebas Neue';-inkscape-font-specification:'Bebas Neue, Normal';white-space:pre;fill:#f2f2f2;stroke-width:0.478283;-inkscape-stroke:none"
         d="m -100.65684,5.8145646 h 2.104445 V 19.206485 h -2.104445 z"
         id="path21505" />
      <path
         style="color:#000000;font-size:40px;font-family:'Bebas Neue';-inkscape-font-specification:'Bebas Neue, Normal';white-space:pre;fill:#f2f2f2;stroke-width:0.478283;-inkscape-stroke:none"
         d="m -94.247861,19.397798 q -1.530505,0 -2.314888,-0.860909 -0.784383,-0.880041 -0.784383,-2.506202 v -0.765253 h 1.989655 v 0.918303 q 0,1.300929 1.090485,1.300929 0.535676,0 0.803515,-0.306101 0.28697,-0.325232 0.28697,-1.033091 0,-0.841777 -0.382627,-1.473111 -0.382626,-0.650464 -1.415717,-1.549636 -1.300928,-1.147879 -1.817473,-2.066182 -0.516546,-0.937434 -0.516546,-2.1044449 0,-1.587899 0.803515,-2.4488081 0.803514,-0.8800405 2.334019,-0.8800405 1.511374,0 2.276627,0.8800405 0.784383,0.8609091 0.784383,2.4870707 v 0.5548081 h -1.989656 V 8.8564435 q 0,-0.6887273 -0.267839,-0.9948283 -0.267838,-0.3252323 -0.784383,-0.3252323 -1.052223,0 -1.052223,1.281798 0,0.7269899 0.382627,1.3583241 0.401757,0.631333 1.434848,1.530505 1.320061,1.147878 1.817475,2.085313 0.497414,0.937434 0.497414,2.200101 0,1.645293 -0.822646,2.525333 -0.803516,0.880041 -2.353152,0.880041 z"
         id="path21507" />
      <path
         style="color:#000000;font-size:40px;font-family:'Bebas Neue';-inkscape-font-specification:'Bebas Neue, Normal';white-space:pre;fill:#f2f2f2;stroke-width:0.478283;-inkscape-stroke:none"
         d="m -89.866795,5.8145646 h 5.739394 v 1.9131313 h -3.63495 v 3.5392931 h 2.888829 v 1.913132 h -2.888829 v 4.113232 h 3.63495 v 1.913132 h -5.739394 z"
         id="path21509" />
    </g>
    <g
       id="g10416"
       transform="translate(-8.4661312)">
      <path
         style="color:#000000;font-size:40px;font-family:'Bebas Neue';-inkscape-font-specification:'Bebas Neue, Normal';white-space:pre;fill:#1a1a1a;stroke-width:0.478283;-inkscape-stroke:none"
         d="m -66.65024,7.7276964 h -2.200101 V 5.8145651 h 6.504646 v 1.9131313 h -2.200101 V 19.206485 h -2.104444 z"
         id="path19233" />
      <path
         style="color:#000000;font-size:40px;font-family:'Bebas Neue';-inkscape-font-specification:'Bebas Neue, Normal';white-space:pre;fill:#1a1a1a;stroke-width:0.478283;-inkscape-stroke:none"
         d="m -58.366444,19.397798 q -1.549636,0 -2.372282,-0.880041 -0.822647,-0.88004 -0.822647,-2.48707 V 8.9903631 q 0,-1.6070303 0.822647,-2.4870707 0.822646,-0.8800405 2.372282,-0.8800405 1.549637,0 2.372283,0.8800405 0.822647,0.8800404 0.822647,2.4870707 v 7.0403239 q 0,1.60703 -0.822647,2.48707 -0.822646,0.880041 -2.372283,0.880041 z m 0,-1.913132 q 1.090485,0 1.090485,-1.32006 V 8.8564439 q 0,-1.3200606 -1.090485,-1.3200606 -1.090484,0 -1.090484,1.3200606 v 7.3081621 q 0,1.32006 1.090484,1.32006 z"
         id="path19235" />
      <path
         style="color:#000000;font-size:40px;font-family:'Bebas Neue';-inkscape-font-specification:'Bebas Neue, Normal';white-space:pre;fill:#f2f2f2;stroke-width:0.478283;-inkscape-stroke:none"
         d="m -67.33016,7.7276964 h -2.200101 V 5.8145651 h 6.504646 v 1.9131313 h -2.200101 V 19.206485 h -2.104444 z"
         id="path21517" />
      <path
         style="color:#000000;font-size:40px;font-family:'Bebas Neue';-inkscape-font-specification:'Bebas Neue, Normal';white-space:pre;fill:#f2f2f2;stroke-width:0.478283;-inkscape-stroke:none"
         d="m -59.046364,19.397798 q -1.549636,0 -2.372282,-0.880041 -0.822647,-0.88004 -0.822647,-2.48707 V 8.9903631 q 0,-1.6070303 0.822647,-2.4870707 0.822646,-0.8800405 2.372282,-0.8800405 1.549637,0 2.372283,0.8800405 0.822647,0.8800404 0.822647,2.4870707 v 7.0403239 q 0,1.60703 -0.822647,2.48707 -0.822646,0.880041 -2.372283,0.880041 z m 0,-1.913132 q 1.090485,0 1.090485,-1.32006 V 8.8564439 q 0,-1.3200606 -1.090485,-1.3200606 -1.090484,0 -1.090484,1.3200606 v 7.3081621 q 0,1.32006 1.090484,1.32006 z"
         id="path21519" />
    </g>
    <g
       id="g10424"
       transform="translate(-7.4137341)">
      <path
         style="color:#000000;font-size:40px;font-family:'Bebas Neue';-inkscape-font-specification:'Bebas Neue, Normal';white-space:pre;fill:#1a1a1a;stroke-width:0.478283;-inkscape-stroke:none"
         d="m -49.049503,7.7276964 h -2.200102 V 5.8145651 h 6.504647 v 1.9131313 h -2.200101 V 19.206485 h -2.104444 z"
         id="path19237" />
      <path
         style="color:#000000;font-size:40px;font-family:'Bebas Neue';-inkscape-font-specification:'Bebas Neue, Normal';white-space:pre;fill:#1a1a1a;stroke-width:0.478283;-inkscape-stroke:none"
         d="m -43.731027,5.8145651 h 2.104445 v 5.4524239 h 2.257495 V 5.8145651 h 2.104444 V 19.206485 h -2.104444 v -6.026364 h -2.257495 v 6.026364 h -2.104445 z"
         id="path19239" />
      <path
         style="color:#000000;font-size:40px;font-family:'Bebas Neue';-inkscape-font-specification:'Bebas Neue, Normal';white-space:pre;fill:#1a1a1a;stroke-width:0.478283;-inkscape-stroke:none"
         d="m -35.695914,5.8145651 h 5.739395 v 1.9131313 h -3.63495 v 3.5392926 h 2.888828 v 1.913132 h -2.888828 v 4.113232 h 3.63495 v 1.913132 h -5.739395 z"
         id="path19241" />
      <path
         style="color:#000000;font-size:40px;font-family:'Bebas Neue';-inkscape-font-specification:'Bebas Neue, Normal';white-space:pre;fill:#f2f2f2;stroke-width:0.478283;-inkscape-stroke:none"
         d="m -49.729423,7.7276964 h -2.200102 V 5.8145651 h 6.504647 v 1.9131313 h -2.200101 V 19.206485 h -2.104444 z"
         id="path21521" />
      <path
         style="color:#000000;font-size:40px;font-family:'Bebas Neue';-inkscape-font-specification:'Bebas Neue, Normal';white-space:pre;fill:#f2f2f2;stroke-width:0.478283;-inkscape-stroke:none"
         d="m -44.410947,5.8145651 h 2.104445 v 5.4524239 h 2.257495 V 5.8145651 h 2.104444 V 19.206485 h -2.104444 v -6.026364 h -2.257495 v 6.026364 h -2.104445 z"
         id="path21523" />
      <path
         style="color:#000000;font-size:40px;font-family:'Bebas Neue';-inkscape-font-specification:'Bebas Neue, Normal';white-space:pre;fill:#f2f2f2;stroke-width:0.478283;-inkscape-stroke:none"
         d="m -36.375834,5.8145651 h 5.739395 v 1.9131313 h -3.63495 v 3.5392926 h 2.888828 v 1.913132 h -2.888828 v 4.113232 h 3.63495 v 1.913132 h -5.739395 z"
         id="path21525" />
    </g>
    <g
       id="g10432"
       transform="translate(-6.1508812)">
      <path
         style="color:#000000;font-size:40px;font-family:'Bebas Neue';-inkscape-font-specification:'Bebas Neue, Normal';white-space:pre;fill:#1a1a1a;stroke-width:0.478283;-inkscape-stroke:none"
         d="m -24.044967,7.7276964 h -2.200102 V 5.8145651 h 6.504647 v 1.9131313 h -2.200101 V 19.206485 h -2.104444 z"
         id="path19243" />
      <path
         style="color:#000000;font-size:40px;font-family:'Bebas Neue';-inkscape-font-specification:'Bebas Neue, Normal';white-space:pre;fill:#1a1a1a;stroke-width:0.478283;-inkscape-stroke:none"
         d="m -15.761166,19.397798 q -1.549636,0 -2.372283,-0.880041 -0.822646,-0.88004 -0.822646,-2.48707 V 8.9903631 q 0,-1.6070303 0.822646,-2.4870707 0.822647,-0.8800405 2.372283,-0.8800405 1.549636,0 2.372283,0.8800405 0.822646,0.8800404 0.822646,2.4870707 v 7.0403239 q 0,1.60703 -0.822646,2.48707 -0.822647,0.880041 -2.372283,0.880041 z m 0,-1.913132 q 1.090485,0 1.090485,-1.32006 V 8.8564439 q 0,-1.3200606 -1.090485,-1.3200606 -1.090485,0 -1.090485,1.3200606 v 7.3081621 q 0,1.32006 1.090485,1.32006 z"
         id="path19245" />
      <path
         style="color:#000000;font-size:40px;font-family:'Bebas Neue';-inkscape-font-specification:'Bebas Neue, Normal';white-space:pre;fill:#1a1a1a;stroke-width:0.478283;-inkscape-stroke:none"
         d="m -11.150529,5.8145651 h 3.0992728 q 1.5687677,0 2.3531515,0.8417778 0.7843839,0.8417778 0.7843839,2.4679394 v 1.3200607 q 0,1.626162 -0.7843839,2.467939 -0.7843838,0.841778 -2.3531515,0.841778 h -0.9948283 v 5.452425 h -2.1044445 z m 3.0992728,6.0263639 q 0.5165454,0 0.7652525,-0.28697 0.2678384,-0.28697 0.2678384,-0.975697 V 8.9903631 q 0,-0.6887273 -0.2678384,-0.975697 -0.2487071,-0.2869697 -0.7652525,-0.2869697 h -0.9948283 v 4.1132326 z"
         id="path19247" />
      <path
         style="color:#000000;font-size:40px;font-family:'Bebas Neue';-inkscape-font-specification:'Bebas Neue, Normal';white-space:pre;fill:#f2f2f2;stroke-width:0.478283;-inkscape-stroke:none"
         d="m -24.724887,7.7276964 h -2.200102 V 5.8145651 h 6.504647 v 1.9131313 h -2.200101 V 19.206485 h -2.104444 z"
         id="path21527" />
      <path
         style="color:#000000;font-size:40px;font-family:'Bebas Neue';-inkscape-font-specification:'Bebas Neue, Normal';white-space:pre;fill:#f2f2f2;stroke-width:0.478283;-inkscape-stroke:none"
         d="m -16.441086,19.397798 q -1.549636,0 -2.372283,-0.880041 -0.822646,-0.88004 -0.822646,-2.48707 V 8.9903631 q 0,-1.6070303 0.822646,-2.4870707 0.822647,-0.8800405 2.372283,-0.8800405 1.549636,0 2.372283,0.8800405 0.822646,0.8800404 0.822646,2.4870707 v 7.0403239 q 0,1.60703 -0.822646,2.48707 -0.822647,0.880041 -2.372283,0.880041 z m 0,-1.913132 q 1.090485,0 1.090485,-1.32006 V 8.8564439 q 0,-1.3200606 -1.090485,-1.3200606 -1.090485,0 -1.090485,1.3200606 v 7.3081621 q 0,1.32006 1.090485,1.32006 z"
         id="path21529" />
      <path
         style="color:#000000;font-size:40px;font-family:'Bebas Neue';-inkscape-font-specification:'Bebas Neue, Normal';white-space:pre;fill:#f2f2f2;stroke-width:0.478283;-inkscape-stroke:none"
         d="m -11.830449,5.8145651 h 3.0992728 q 1.5687677,0 2.3531515,0.8417778 0.7843839,0.8417778 0.7843839,2.4679394 v 1.3200607 q 0,1.626162 -0.7843839,2.467939 -0.7843838,0.841778 -2.3531515,0.841778 h -0.9948283 v 5.452425 h -2.1044445 z m 3.0992728,6.0263639 q 0.5165454,0 0.7652525,-0.28697 0.2678384,-0.28697 0.2678384,-0.975697 V 8.9903631 q 0,-0.6887273 -0.2678384,-0.975697 -0.2487071,-0.2869697 -0.7652525,-0.2869697 h -0.9948283 v 4.1132326 z"
         id="path21531" />
    </g>
    <path
       style="fill:#00ff00;stroke:#000000;stroke-width:0.0932;stroke-linejoin:round;paint-order:markers fill stroke;filter:url(#filter22894)"
       d="m 9.9448896,43.456884 c -0.78319,-0.18488 -1.46794,-0.38015 -1.52166,-0.43392 -0.0537,-0.0538 0.16767,-0.30737 0.49198,-0.56354 0.44483,-0.35135 0.82346,-0.49269 1.5415104,-0.57544 0.81019,-0.0934 0.97808,-0.16726 1.12814,-0.49661 0.17259,-0.37877 0.11887,-0.67431 -0.12255,-0.67431 -0.0667,0 -0.20085,0.17475 -0.29817,0.38833 -0.15037,0.33004 -0.28132,0.38834 -0.87223,0.38834 -0.6725904,0 -0.6986404,-0.0179 -0.7980204,-0.54762 -0.13548,-0.72217 0.5136904,-1.78238 1.0913604,-1.78238 0.37015,0 0.66493,-0.24814 0.49576,-0.41732 -0.0473,-0.0473 -0.33254,-0.0397 -0.63388,0.0168 -0.41249,0.0774 -0.6600304,0.26575 -1.0015704,0.76216 -0.39244,0.5704 -0.44238,0.75949 -0.37004,1.40126 0.0783,0.69479 0.0502,0.77099 -0.44251,1.20009 -0.81228,0.70739 -1.22662,0.88282 -2.2265296,0.94269 l -0.92372,0.0553 -0.46518,-1.5293 -0.46518,-1.5293 0.30157,-2.4317 0.30157,-2.4317 78.309155,-0.039 78.309145,-0.039 -0.45193,1.66998 c -0.24856,0.9185 -0.67747,2.52621 -0.95314,3.5727 -0.46075,1.74918 -0.71974,2.31719 -0.74369,1.63112 -0.005,-0.1495 -0.1294,-0.6542 -0.27596,-1.12155 l -0.26647,-0.84972 -0.60325,1.03125 c -0.5998,1.02534 -0.60902,1.0327 -1.60647,1.28325 -0.93467,0.23479 -1.05767,0.23382 -1.80028,-0.0141 -0.4384,-0.14633 -1.67083,-0.4885 -2.73875,-0.76037 l -1.94167,-0.49431 1.08734,-0.10664 c 1.80632,-0.17715 1.99624,-0.23616 2.61695,-0.8131 0.43425,-0.40362 0.55096,-0.60213 0.42694,-0.72616 -0.12403,-0.12402 -0.32986,-0.0181 -0.75295,0.38739 -0.58222,0.55802 -0.58248,0.5581 -2.67928,0.7427 -1.80364,0.1588 -2.20564,0.24515 -2.87366,0.61729 -1.05125,0.58564 -2.08602,0.78008 -3.59472,0.67547 -0.77485,-0.0537 -1.46039,-0.0195 -1.7699,0.0884 -0.37754,0.1316 -0.75042,0.13092 -1.47574,-0.003 -0.83915,-0.15462 -1.1884,-0.13501 -2.57943,0.14485 -2.31675,0.46609 -2.80405,0.51453 -3.62785,0.36062 -0.62775,-0.11727 -0.90502,-0.30516 -1.88088,-1.2745 -0.62953,-0.62532 -1.09304,-1.18579 -1.03004,-1.24547 0.063,-0.0597 0.95197,-0.45688 1.97548,-0.88266 l 1.86091,-0.77414 0.52872,0.79917 c 0.76534,1.15684 0.75613,1.15384 1.10299,0.35878 0.17387,-0.39853 0.45189,-1.03553 0.61782,-1.41556 l 0.30169,-0.69094 -1.08776,-0.80639 c -0.75063,-0.55647 -1.13765,-0.7565 -1.24874,-0.6454 -0.11109,0.11109 0.12049,0.36613 0.74723,0.82292 0.49952,0.36407 0.93483,0.68331 0.96736,0.70943 0.0869,0.0698 -0.62152,1.76738 -0.73735,1.76706 -0.0541,-1.6e-4 -0.2971,-0.31471 -0.53989,-0.699 -0.24279,-0.3843 -0.47521,-0.69873 -0.51649,-0.69873 -0.0413,0 -1.08379,0.4194 -2.31667,0.932 l -2.24162,0.932 h -1.77941 -1.77941 l -0.15419,0.5825 c -0.0848,0.32038 -0.23929,0.90518 -0.34331,1.29957 l -0.18913,0.71706 -2.1559,0.0775 c -2.84777,0.10241 -3.67228,-0.0707 -4.96373,-1.04226 -1.25336,-0.94289 -1.57697,-1.06192 -2.57697,-0.94778 -1.49056,0.17014 -2.33249,0.6076 -3.60605,1.87369 l -1.17397,1.1671 -0.51468,-0.9362 c -0.40966,-0.74517 -0.70889,-1.05967 -1.46655,-1.54139 l -0.95187,-0.60521 0.046,-1.33198 c 0.0272,-0.78697 -0.0155,-1.33197 -0.10437,-1.33197 -0.22899,0 -0.3375,0.58264 -0.33984,1.82488 l -0.002,1.12588 0.73784,0.46334 c 0.40581,0.25483 0.69663,0.46466 0.64626,0.46628 -0.0504,0.002 -1.3435,0.17765 -2.87366,0.39118 -1.93512,0.27003 -3.49145,0.38941 -5.1121,0.39212 -1.97523,0.003 -2.52588,0.0598 -3.616427,0.371 l -1.28644,0.3671 0.10228,-0.33206 c 0.0563,-0.18263 0.19548,-0.51542 0.3094,-0.73953 0.19196,-0.37763 0.15822,-0.60219 -0.0905,-0.60219 -0.0566,0 -0.26935,0.36698 -0.47281,0.8155 -0.20345,0.44852 -0.38206,0.83653 -0.39689,0.86224 -0.0279,0.0483 -2.348589,-0.52352 -2.750036,-0.67757 -0.15155,-0.0582 -0.387694,0.17574 -0.715817,0.70901 l -0.489659,0.7958 -0.500226,-0.29873 c -0.275125,-0.16431 -1.164275,-0.68572 -1.975893,-1.1587 -1.277241,-0.74433 -1.619935,-1.03976 -2.548567,-2.19712 -0.815221,-1.01601 -1.369383,-1.52734 -2.307344,-2.12902 -2.03245,-1.30376 -2.142397,-1.33272 -5.512591,-1.45199 -1.873057,-0.0663 -2.990167,-0.0503 -2.990167,0.0428 0,0.22209 0.742995,0.31036 3.572668,0.42444 2.814342,0.11347 2.866724,0.12976 5.048332,1.57044 0.66683,0.44035 2.799102,2.81928 2.655597,2.96279 -0.0274,0.0274 -0.662734,0.21845 -1.411859,0.42455 -1.5831,0.43555 -4.727707,0.65199 -6.252173,0.43032 -1.447213,-0.21043 -2.559098,-0.007 -3.548512,0.65025 l -0.835414,0.55468 -1.969545,-0.53448 c -1.922262,-0.52165 -1.990379,-0.55508 -2.837484,-1.3924 -0.798815,-0.78959 -0.940314,-0.86638 -1.776535,-0.96421 l -0.908589,-0.10629 1.102756,-0.51079 c 0.672661,-0.31157 1.102757,-0.60467 1.102757,-0.75151 0,-0.25428 -0.172685,-0.19116 -2.563,0.93684 l -0.932,0.43982 0.699,0.13637 c 1.205712,0.23524 1.197181,0.28615 -0.108701,0.64898 -0.700532,0.19464 -1.742573,0.6161 -2.315639,0.93658 -0.969584,0.54222 -1.210143,0.60251 -3.46397,0.86819 -1.332113,0.15702 -2.677247,0.32191 -2.98918,0.36642 -0.565862,0.0807 -0.567563,0.0792 -0.745599,-0.65629 -0.174014,-0.71892 -0.216408,-0.75954 -1.708446,-1.63715 -1.499738,-0.88214 -1.532615,-0.91386 -1.66207,-1.60356 l -0.132064,-0.70363 -0.743617,0.58035 c -0.51035,0.3983 -0.69341,0.63055 -0.583568,0.74039 0.109845,0.10985 0.306565,0.0517 0.627116,-0.18526 l 0.467069,-0.34532 0.0024,0.43182 c 0.0021,0.38038 0.176845,0.53356 1.466419,1.28615 l 1.463931,0.85433 -0.41792,0.34103 c -1.066974,0.87065 -1.222917,0.89639 -2.7007,0.44563 -1.293749,-0.39461 -1.361122,-0.43815 -1.767353,-1.14212 -0.23228,-0.40253 -0.435993,-0.74994 -0.452691,-0.77202 -0.0167,-0.0221 -0.653045,0.24882 -1.414103,0.60201 -0.761055,0.35319 -1.834777,0.77229 -2.386044,0.93135 l -1.002303,0.28919 -1.871363,-0.54811 c -1.029251,-0.30146 -2.301952,-0.71159 -2.828224,-0.9114 -0.939321,-0.35663 -0.967793,-0.35819 -1.553334,-0.0854 -0.32806,0.15283 -0.927648,0.66277 -1.332416,1.1332 l -0.735943,0.85533 -1.450137,-0.47767 c -1.203695,-0.39649 -1.495541,-0.55677 -1.717296,-0.94316 -0.146937,-0.25602 -0.211701,-0.51251 -0.14392,-0.56997 0.06778,-0.0575 0.752337,-0.36342 1.521237,-0.67992 1.330979,-0.54786 1.426747,-0.61988 1.997602,-1.5022 0.329779,-0.50971 0.644329,-0.92592 0.699,-0.92491 0.05467,10e-4 0.461788,0.0983 0.904708,0.21625 0.644224,0.17153 0.820394,0.1751 0.880735,0.0179 0.08274,-0.21562 -1.787337,-0.80167 -2.046671,-0.64139 -0.0802,0.0496 -0.412576,0.50211 -0.738617,1.00566 -0.576677,0.89064 -0.636262,0.93318 -2.19022,1.56377 l -1.597414,0.64822 -2.094323,-0.14327 c -1.324652,-0.0906 -2.396129,-0.0881 -2.915559,0.007 -0.451681,0.0825 -1.590138,0.12466 -2.529906,0.0937 l -1.708666,-0.0563 -0.976138,-0.66691 -0.976138,-0.66692 -0.538363,0.33272 -0.538361,0.33273 v -0.55634 c 0,-0.30598 -0.0699,-0.55633 -0.155335,-0.55633 -0.08646,0 -0.155331,0.41715 -0.155331,0.94078 v 0.94078 l 0.477941,-0.28061 c 0.262868,-0.15434 0.54969,-0.36638 0.637383,-0.47121 0.122241,-0.14612 0.321329,-0.0792 0.853306,0.28681 0.381627,0.26257 0.67148,0.49934 0.64412,0.52617 -0.02736,0.0268 -0.942121,0.40454 -2.032794,0.83936 -1.928619,0.76889 -2.026671,0.79064 -3.572666,0.79249 -1.759612,0.002 -6.247922,0.36811 -7.552332,0.61585 -1.109021,0.21063 -1.397581,0.19148 -3.0726214,-0.20394 z"
       id="path22067"
       transform="matrix(0.78607134,0,0,0.68521048,-234.257,-46.63314)" />
    <g
       id="g5525"
       transform="matrix(-0.09840898,0.0228996,0.04047783,0.05567313,-61.547,41.796982)"
       style="fill:#00ff00;stroke:#b3b3b3;filter:url(#filter5410)">
      <g
         id="g5481"
         transform="translate(485.42976,-317.53541)"
         style="fill:#00ff00;stroke:#b3b3b3">
        <g
           id="g5473"
           transform="translate(80.773352,-46.289344)"
           style="fill:#00ff00;stroke:#b3b3b3">
          <path
             id="path5469"
             style="fill:#00ff00;stroke:#b3b3b3;stroke-width:0.148005;stroke-linejoin:round;paint-order:markers fill stroke"
             d="m 33.53672,31.226191 a 24.188417,49.817665 80.422632 0 0 -67.84246,0.753619 24.188417,49.817665 80.422632 0 0 -15.99979,35.701399 24.188417,49.817665 80.422632 0 0 67.84199,-0.75341 24.188417,49.817665 80.422632 0 0 16.00026,-35.701608 z m -9.587,3.993203 a 18.50988,38.487609 79.957166 0 1 -12.72097,27.456235 18.50988,38.487609 79.957166 0 1 -52.26386,0.79948 18.50988,38.487609 79.957166 0 1 12.72098,-27.456223 18.50988,38.487609 79.957166 0 1 52.26385,-0.799492 z" />
          <path
             id="path5471"
             style="fill:#00ff00;stroke:#b3b3b3;stroke-width:0.661489;stroke-linejoin:round;paint-order:markers fill stroke"
             d="m 258.58594,-68.589844 c -1.29625,-0.0047 -2.59681,0.0064 -3.9043,0.0332 -41.83997,0.858286 -85.88633,17.837059 -122.44922,47.201172 C 56.095162,39.792642 32.538561,136.8828 79.617188,195.50195 c 3.530116,4.3481 7.40596,8.40985 11.605468,12.16211 l 16.851564,-22.51172 c -2.38564,-2.30014 2.44066,-4.11737 0.36914,-6.68945 C 72.534408,133.7507 92.923289,50.57429 151.93555,3.1796875 210.94852,-44.215138 287.89874,-46.389878 323.80859,-1.6777344 335.72765,13.16319 342.20765,43.634585 342.61248,62.983119 l 35.21369,3.722418 c 5.38972,-34.710449 -1.57087,-66.59192151 -22.49023,-92.639131 -21.90158,-27.270053 -56.56633,-42.510959 -96.75,-42.65625 z m 78.46255,155.291019 c -7.74715,29.851085 -25.89528,54.962945 -55.07388,78.396485 -43.75703,35.13804 -96.83263,48.17232 -137.75195,30.36718 L 115.9375,224.4707 c 53.51029,26.78695 128.34684,13.3467 186.78125,-33.54492 32.83284,-26.3684 57.63861,-68.22881 69.46829,-101.997706 z"
             transform="scale(0.26458333)"
             sodipodi:nodetypes="scccccccccccsccccccc" />
        </g>
        <g
           id="g5479"
           transform="translate(-43.493343,4.3493343)"
           style="fill:#00ff00;stroke:#b3b3b3">
          <path
             id="path5475"
             style="fill:#00ff00;stroke:#b3b3b3;stroke-width:0.148005;stroke-linejoin:round;paint-order:markers fill stroke"
             d="m 33.53672,31.226191 a 24.188417,49.817665 80.422632 0 0 -67.84246,0.753619 24.188417,49.817665 80.422632 0 0 -15.99979,35.701399 24.188417,49.817665 80.422632 0 0 67.84199,-0.75341 24.188417,49.817665 80.422632 0 0 16.00026,-35.701608 z m -9.587,3.993203 a 18.50988,38.487609 79.957166 0 1 -12.72097,27.456235 18.50988,38.487609 79.957166 0 1 -52.26386,0.79948 18.50988,38.487609 79.957166 0 1 12.72098,-27.456223 18.50988,38.487609 79.957166 0 1 52.26385,-0.799492 z" />
          <path
             id="path5477"
             style="fill:#00ff00;stroke:#b3b3b3;stroke-width:0.661489;stroke-linejoin:round;paint-order:markers fill stroke"
             d="m 258.58594,-68.589844 c -1.29625,-0.0047 -2.59681,0.0064 -3.9043,0.0332 -41.83997,0.858286 -85.88633,17.837059 -122.44922,47.201172 C 56.095162,39.792642 32.538561,136.8828 79.617188,195.50195 c 3.530116,4.3481 7.40596,8.40985 11.605468,12.16211 l 16.851564,-22.51172 c -2.38564,-2.30014 2.44066,-4.11737 0.36914,-6.68945 C 72.534408,133.7507 92.923289,50.57429 151.93555,3.1796875 210.94852,-44.215138 287.89874,-46.389878 323.80859,-1.6777344 335.72765,13.16319 342.20765,43.634585 342.61248,62.983119 l 35.21369,3.722418 c 5.38972,-34.710449 -1.57087,-66.59192151 -22.49023,-92.639131 -21.90158,-27.270053 -56.56633,-42.510959 -96.75,-42.65625 z m 78.46255,155.291019 c -7.74715,29.851085 -25.89528,54.962945 -55.07388,78.396485 -43.75703,35.13804 -96.83263,48.17232 -137.75195,30.36718 L 115.9375,224.4707 c 53.51029,26.78695 128.34684,13.3467 186.78125,-33.54492 32.83284,-26.3684 57.63861,-68.22881 69.46829,-101.997706 z"
             transform="scale(0.26458333)"
             sodipodi:nodetypes="scccccccccccsccccccc" />
        </g>
      </g>
      <g
         id="g5495"
         transform="translate(239.50346,-215.86268)"
         style="fill:#00ff00;stroke:#b3b3b3">
        <g
           id="g5487"
           transform="translate(80.773352,-46.289344)"
           style="fill:#00ff00;stroke:#b3b3b3">
          <path
             id="path5483"
             style="fill:#00ff00;stroke:#b3b3b3;stroke-width:0.148005;stroke-linejoin:round;paint-order:markers fill stroke"
             d="m 33.53672,31.226191 a 24.188417,49.817665 80.422632 0 0 -67.84246,0.753619 24.188417,49.817665 80.422632 0 0 -15.99979,35.701399 24.188417,49.817665 80.422632 0 0 67.84199,-0.75341 24.188417,49.817665 80.422632 0 0 16.00026,-35.701608 z m -9.587,3.993203 a 18.50988,38.487609 79.957166 0 1 -12.72097,27.456235 18.50988,38.487609 79.957166 0 1 -52.26386,0.79948 18.50988,38.487609 79.957166 0 1 12.72098,-27.456223 18.50988,38.487609 79.957166 0 1 52.26385,-0.799492 z" />
          <path
             id="path5485"
             style="fill:#00ff00;stroke:#b3b3b3;stroke-width:0.661489;stroke-linejoin:round;paint-order:markers fill stroke"
             d="m 258.58594,-68.589844 c -1.29625,-0.0047 -2.59681,0.0064 -3.9043,0.0332 -41.83997,0.858286 -85.88633,17.837059 -122.44922,47.201172 C 56.095162,39.792642 32.538561,136.8828 79.617188,195.50195 c 3.530116,4.3481 7.40596,8.40985 11.605468,12.16211 l 16.851564,-22.51172 c -2.38564,-2.30014 2.44066,-4.11737 0.36914,-6.68945 C 72.534408,133.7507 92.923289,50.57429 151.93555,3.1796875 210.94852,-44.215138 287.89874,-46.389878 323.80859,-1.6777344 335.72765,13.16319 342.20765,43.634585 342.61248,62.983119 l 35.21369,3.722418 c 5.38972,-34.710449 -1.57087,-66.59192151 -22.49023,-92.639131 -21.90158,-27.270053 -56.56633,-42.510959 -96.75,-42.65625 z m 78.46255,155.291019 c -7.74715,29.851085 -25.89528,54.962945 -55.07388,78.396485 -43.75703,35.13804 -96.83263,48.17232 -137.75195,30.36718 L 115.9375,224.4707 c 53.51029,26.78695 128.34684,13.3467 186.78125,-33.54492 32.83284,-26.3684 57.63861,-68.22881 69.46829,-101.997706 z"
             transform="scale(0.26458333)"
             sodipodi:nodetypes="scccccccccccsccccccc" />
        </g>
        <g
           id="g5493"
           transform="translate(-43.493343,4.3493343)"
           style="fill:#00ff00;stroke:#b3b3b3">
          <path
             id="path5489"
             style="fill:#00ff00;stroke:#b3b3b3;stroke-width:0.148005;stroke-linejoin:round;paint-order:markers fill stroke"
             d="m 33.53672,31.226191 a 24.188417,49.817665 80.422632 0 0 -67.84246,0.753619 24.188417,49.817665 80.422632 0 0 -15.99979,35.701399 24.188417,49.817665 80.422632 0 0 67.84199,-0.75341 24.188417,49.817665 80.422632 0 0 16.00026,-35.701608 z m -9.587,3.993203 a 18.50988,38.487609 79.957166 0 1 -12.72097,27.456235 18.50988,38.487609 79.957166 0 1 -52.26386,0.79948 18.50988,38.487609 79.957166 0 1 12.72098,-27.456223 18.50988,38.487609 79.957166 0 1 52.26385,-0.799492 z" />
          <path
             id="path5491"
             style="fill:#00ff00;stroke:#b3b3b3;stroke-width:0.661489;stroke-linejoin:round;paint-order:markers fill stroke"
             d="m 258.58594,-68.589844 c -1.29625,-0.0047 -2.59681,0.0064 -3.9043,0.0332 -41.83997,0.858286 -85.88633,17.837059 -122.44922,47.201172 C 56.095162,39.792642 32.538561,136.8828 79.617188,195.50195 c 3.530116,4.3481 7.40596,8.40985 11.605468,12.16211 l 16.851564,-22.51172 c -2.38564,-2.30014 2.44066,-4.11737 0.36914,-6.68945 C 72.534408,133.7507 92.923289,50.57429 151.93555,3.1796875 210.94852,-44.215138 287.89874,-46.389878 323.80859,-1.6777344 335.72765,13.16319 342.20765,43.634585 342.61248,62.983119 l 35.21369,3.722418 c 5.38972,-34.710449 -1.57087,-66.59192151 -22.49023,-92.639131 -21.90158,-27.270053 -56.56633,-42.510959 -96.75,-42.65625 z m 78.46255,155.291019 c -7.74715,29.851085 -25.89528,54.962945 -55.07388,78.396485 -43.75703,35.13804 -96.83263,48.17232 -137.75195,30.36718 L 115.9375,224.4707 c 53.51029,26.78695 128.34684,13.3467 186.78125,-33.54492 32.83284,-26.3684 57.63861,-68.22881 69.46829,-101.997706 z"
             transform="scale(0.26458333)"
             sodipodi:nodetypes="scccccccccccsccccccc" />
        </g>
      </g>
      <g
         id="g5509"
         transform="translate(-4.3557995,-113.74171)"
         style="fill:#00ff00;stroke:#b3b3b3">
        <g
           id="g5501"
           transform="translate(80.773352,-46.289344)"
           style="fill:#00ff00;stroke:#b3b3b3">
          <path
             id="path5497"
             style="fill:#00ff00;stroke:#b3b3b3;stroke-width:0.148005;stroke-linejoin:round;paint-order:markers fill stroke"
             d="m 33.53672,31.226191 a 24.188417,49.817665 80.422632 0 0 -67.84246,0.753619 24.188417,49.817665 80.422632 0 0 -15.99979,35.701399 24.188417,49.817665 80.422632 0 0 67.84199,-0.75341 24.188417,49.817665 80.422632 0 0 16.00026,-35.701608 z m -9.587,3.993203 a 18.50988,38.487609 79.957166 0 1 -12.72097,27.456235 18.50988,38.487609 79.957166 0 1 -52.26386,0.79948 18.50988,38.487609 79.957166 0 1 12.72098,-27.456223 18.50988,38.487609 79.957166 0 1 52.26385,-0.799492 z" />
          <path
             id="path5499"
             style="fill:#00ff00;stroke:#b3b3b3;stroke-width:0.661489;stroke-linejoin:round;paint-order:markers fill stroke"
             d="m 258.58594,-68.589844 c -1.29625,-0.0047 -2.59681,0.0064 -3.9043,0.0332 -41.83997,0.858286 -85.88633,17.837059 -122.44922,47.201172 C 56.095162,39.792642 32.538561,136.8828 79.617188,195.50195 c 3.530116,4.3481 7.40596,8.40985 11.605468,12.16211 l 16.851564,-22.51172 c -2.38564,-2.30014 2.44066,-4.11737 0.36914,-6.68945 C 72.534408,133.7507 92.923289,50.57429 151.93555,3.1796875 210.94852,-44.215138 287.89874,-46.389878 323.80859,-1.6777344 335.72765,13.16319 342.20765,43.634585 342.61248,62.983119 l 35.21369,3.722418 c 5.38972,-34.710449 -1.57087,-66.59192151 -22.49023,-92.639131 -21.90158,-27.270053 -56.56633,-42.510959 -96.75,-42.65625 z m 78.46255,155.291019 c -7.74715,29.851085 -25.89528,54.962945 -55.07388,78.396485 -43.75703,35.13804 -96.83263,48.17232 -137.75195,30.36718 L 115.9375,224.4707 c 53.51029,26.78695 128.34684,13.3467 186.78125,-33.54492 32.83284,-26.3684 57.63861,-68.22881 69.46829,-101.997706 z"
             transform="scale(0.26458333)"
             sodipodi:nodetypes="scccccccccccsccccccc" />
        </g>
        <g
           id="g5507"
           transform="translate(-43.493343,4.3493343)"
           style="fill:#00ff00;stroke:#b3b3b3">
          <path
             id="path5503"
             style="fill:#00ff00;stroke:#b3b3b3;stroke-width:0.148005;stroke-linejoin:round;paint-order:markers fill stroke"
             d="m 33.53672,31.226191 a 24.188417,49.817665 80.422632 0 0 -67.84246,0.753619 24.188417,49.817665 80.422632 0 0 -15.99979,35.701399 24.188417,49.817665 80.422632 0 0 67.84199,-0.75341 24.188417,49.817665 80.422632 0 0 16.00026,-35.701608 z m -9.587,3.993203 a 18.50988,38.487609 79.957166 0 1 -12.72097,27.456235 18.50988,38.487609 79.957166 0 1 -52.26386,0.79948 18.50988,38.487609 79.957166 0 1 12.72098,-27.456223 18.50988,38.487609 79.957166 0 1 52.26385,-0.799492 z" />
          <path
             id="path5505"
             style="fill:#00ff00;stroke:#b3b3b3;stroke-width:0.661489;stroke-linejoin:round;paint-order:markers fill stroke"
             d="m 258.58594,-68.589844 c -1.29625,-0.0047 -2.59681,0.0064 -3.9043,0.0332 -41.83997,0.858286 -85.88633,17.837059 -122.44922,47.201172 C 56.095162,39.792642 32.538561,136.8828 79.617188,195.50195 c 3.530116,4.3481 7.40596,8.40985 11.605468,12.16211 l 16.851564,-22.51172 c -2.38564,-2.30014 2.44066,-4.11737 0.36914,-6.68945 C 72.534408,133.7507 92.923289,50.57429 151.93555,3.1796875 210.94852,-44.215138 287.89874,-46.389878 323.80859,-1.6777344 335.72765,13.16319 342.20765,43.634585 342.61248,62.983119 l 35.21369,3.722418 c 5.38972,-34.710449 -1.57087,-66.59192151 -22.49023,-92.639131 -21.90158,-27.270053 -56.56633,-42.510959 -96.75,-42.65625 z m 78.46255,155.291019 c -7.74715,29.851085 -25.89528,54.962945 -55.07388,78.396485 -43.75703,35.13804 -96.83263,48.17232 -137.75195,30.36718 L 115.9375,224.4707 c 53.51029,26.78695 128.34684,13.3467 186.78125,-33.54492 32.83284,-26.3684 57.63861,-68.22881 69.46829,-101.997706 z"
             transform="scale(0.26458333)"
             sodipodi:nodetypes="scccccccccccsccccccc" />
        </g>
      </g>
      <g
         id="g5523"
         transform="translate(-246.66939,-11.805336)"
         style="fill:#00ff00;stroke:#b3b3b3">
        <g
           id="g5515"
           transform="translate(80.773352,-46.289344)"
           style="fill:#00ff00;stroke:#b3b3b3">
          <path
             id="path5511"
             style="fill:#00ff00;stroke:#b3b3b3;stroke-width:0.148005;stroke-linejoin:round;paint-order:markers fill stroke"
             d="m 33.53672,31.226191 a 24.188417,49.817665 80.422632 0 0 -67.84246,0.753619 24.188417,49.817665 80.422632 0 0 -15.99979,35.701399 24.188417,49.817665 80.422632 0 0 67.84199,-0.75341 24.188417,49.817665 80.422632 0 0 16.00026,-35.701608 z m -9.587,3.993203 a 18.50988,38.487609 79.957166 0 1 -12.72097,27.456235 18.50988,38.487609 79.957166 0 1 -52.26386,0.79948 18.50988,38.487609 79.957166 0 1 12.72098,-27.456223 18.50988,38.487609 79.957166 0 1 52.26385,-0.799492 z" />
          <path
             id="path5513"
             style="fill:#00ff00;stroke:#b3b3b3;stroke-width:0.661489;stroke-linejoin:round;paint-order:markers fill stroke"
             d="m 258.58594,-68.589844 c -1.29625,-0.0047 -2.59681,0.0064 -3.9043,0.0332 -41.83997,0.858286 -85.88633,17.837059 -122.44922,47.201172 C 56.095162,39.792642 32.538561,136.8828 79.617188,195.50195 c 3.530116,4.3481 7.40596,8.40985 11.605468,12.16211 l 16.851564,-22.51172 c -2.38564,-2.30014 2.44066,-4.11737 0.36914,-6.68945 C 72.534408,133.7507 92.923289,50.57429 151.93555,3.1796875 210.94852,-44.215138 287.89874,-46.389878 323.80859,-1.6777344 335.72765,13.16319 342.20765,43.634585 342.61248,62.983119 l 35.21369,3.722418 c 5.38972,-34.710449 -1.57087,-66.59192151 -22.49023,-92.639131 -21.90158,-27.270053 -56.56633,-42.510959 -96.75,-42.65625 z m 78.46255,155.291019 c -7.74715,29.851085 -25.89528,54.962945 -55.07388,78.396485 -43.75703,35.13804 -96.83263,48.17232 -137.75195,30.36718 L 115.9375,224.4707 c 53.51029,26.78695 128.34684,13.3467 186.78125,-33.54492 32.83284,-26.3684 57.63861,-68.22881 69.46829,-101.997706 z"
             transform="scale(0.26458333)"
             sodipodi:nodetypes="scccccccccccsccccccc" />
        </g>
        <g
           id="g5521"
           transform="translate(-43.493343,4.3493343)"
           style="fill:#00ff00;stroke:#b3b3b3">
          <path
             id="path5517"
             style="fill:#00ff00;stroke:#b3b3b3;stroke-width:0.148005;stroke-linejoin:round;paint-order:markers fill stroke"
             d="m 33.53672,31.226191 a 24.188417,49.817665 80.422632 0 0 -67.84246,0.753619 24.188417,49.817665 80.422632 0 0 -15.99979,35.701399 24.188417,49.817665 80.422632 0 0 67.84199,-0.75341 24.188417,49.817665 80.422632 0 0 16.00026,-35.701608 z m -9.587,3.993203 a 18.50988,38.487609 79.957166 0 1 -12.72097,27.456235 18.50988,38.487609 79.957166 0 1 -52.26386,0.79948 18.50988,38.487609 79.957166 0 1 12.72098,-27.456223 18.50988,38.487609 79.957166 0 1 52.26385,-0.799492 z" />
          <path
             id="path5519"
             style="fill:#00ff00;stroke:#b3b3b3;stroke-width:0.661489;stroke-linejoin:round;paint-order:markers fill stroke"
             d="m 258.58594,-68.589844 c -1.29625,-0.0047 -2.59681,0.0064 -3.9043,0.0332 -41.83997,0.858286 -85.88633,17.837059 -122.44922,47.201172 C 56.095162,39.792642 32.538561,136.8828 79.617188,195.50195 c 3.530116,4.3481 7.40596,8.40985 11.605468,12.16211 l 16.851564,-22.51172 c -2.38564,-2.30014 2.44066,-4.11737 0.36914,-6.68945 C 72.534408,133.7507 92.923289,50.57429 151.93555,3.1796875 210.94852,-44.215138 287.89874,-46.389878 323.80859,-1.6777344 335.72765,13.16319 342.20765,43.634585 342.61248,62.983119 l 35.21369,3.722418 c 5.38972,-34.710449 -1.57087,-66.59192151 -22.49023,-92.639131 -21.90158,-27.270053 -56.56633,-42.510959 -96.75,-42.65625 z m 78.46255,155.291019 c -7.74715,29.851085 -25.89528,54.962945 -55.07388,78.396485 -43.75703,35.13804 -96.83263,48.17232 -137.75195,30.36718 L 115.9375,224.4707 c 53.51029,26.78695 128.34684,13.3467 186.78125,-33.54492 32.83284,-26.3684 57.63861,-68.22881 69.46829,-101.997706 z"
             transform="scale(0.26458333)"
             sodipodi:nodetypes="scccccccccccsccccccc" />
        </g>
      </g>
    </g>
    <g
       id="g10446">
      <rect
         style="fill:#1a1a1a;stroke:none;stroke-width:0.136429;stroke-linejoin:round;paint-order:markers fill stroke"
         id="rect2048"
         width="3.2951183"
         height="24.823225"
         x="-114.79956"
         y="0.09891206" />
      <rect
         style="fill:#f2f2f2;stroke:none;stroke-width:0.136429;stroke-linejoin:round;paint-order:markers fill stroke"
         id="rect2152"
         width="3.2951183"
         height="24.823225"
         x="-115.45858"
         y="0.09891206" />
    </g>
  </g>
</svg>
