<?xml version="1.0" encoding="UTF-8" standalone="no"?>
<!-- Created with Inkscape (http://www.inkscape.org/) -->

<svg
   width="283.95187"
   height="123.8156"
   viewBox="0 0 75.12893 32.759543"
   version="1.1"
   id="svg20145"
   inkscape:version="1.1 (c68e22c387, 2021-05-23)"
   sodipodi:docname="button-message.svg"
   xmlns:inkscape="http://www.inkscape.org/namespaces/inkscape"
   xmlns:sodipodi="http://sodipodi.sourceforge.net/DTD/sodipodi-0.dtd"
   xmlns="http://www.w3.org/2000/svg"
   xmlns:svg="http://www.w3.org/2000/svg">
  <sodipodi:namedview
     id="namedview20147"
     pagecolor="#ffffff"
     bordercolor="#666666"
     borderopacity="1.0"
     inkscape:pageshadow="2"
     inkscape:pageopacity="0.0"
     inkscape:pagecheckerboard="0"
     inkscape:document-units="mm"
     showgrid="false"
     fit-margin-top="10"
     fit-margin-left="10"
     fit-margin-right="10"
     fit-margin-bottom="10"
     inkscape:zoom="3.4066516"
     inkscape:cx="149.41358"
     inkscape:cy="27.152762"
     inkscape:window-width="1920"
     inkscape:window-height="1017"
     inkscape:window-x="-8"
     inkscape:window-y="-8"
     inkscape:window-maximized="1"
     inkscape:current-layer="layer1"
     units="px"
     lock-margins="true"
     showguides="false" />
  <defs
     id="defs20142" />
  <g
     inkscape:label="Layer 1"
     inkscape:groupmode="layer"
     id="layer1"
     transform="translate(-79.447986,-123.33324)">
    <g
       id="g911"
       transform="translate(0.776667,-0.15533336)"
       style="fill:#1a1a1a">
      <path
         style="color:#000000;font-size:40px;font-family:'Bebas Neue';-inkscape-font-specification:'Bebas Neue, Normal';white-space:pre;fill:#1a1a1a;stroke-width:0.282743;-inkscape-stroke:none"
         d="m 101.51258,153.44695 q -0.89346,0 -1.36847,-0.50893 -0.463698,-0.50894 -0.463698,-1.43633 v -4.25245 q 0,-0.9274 0.463698,-1.43633 0.47501,-0.50894 1.36847,-0.50894 0.89347,0 1.35717,0.50894 0.475,0.50893 0.475,1.43633 v 0.83692 h -1.1762 v -0.91609 q 0,-0.73513 -0.62204,-0.73513 -0.62203,0 -0.62203,0.73513 v 4.42209 q 0,0.72382 0.62203,0.72382 0.62204,0 0.62204,-0.72382 v -1.21014 h 1.1762 v 1.11967 q 0,0.92739 -0.475,1.43633 -0.4637,0.50893 -1.35717,0.50893 z"
         id="path19307" />
      <path
         style="color:#000000;font-size:40px;font-family:'Bebas Neue';-inkscape-font-specification:'Bebas Neue, Normal';white-space:pre;fill:#1a1a1a;stroke-width:0.282743;-inkscape-stroke:none"
         d="m 105.90074,153.44695 q -0.90477,0 -1.37978,-0.50893 -0.47501,-0.52025 -0.47501,-1.48157 v -6.03938 h 1.24407 v 6.12985 q 0,0.40715 0.15833,0.58811 0.16965,0.18095 0.47501,0.18095 0.30536,0 0.4637,-0.18095 0.16964,-0.18096 0.16964,-0.58811 v -6.12985 h 1.19883 v 6.03938 q 0,0.96132 -0.47501,1.48157 -0.475,0.50893 -1.37978,0.50893 z"
         id="path19309" />
      <path
         style="color:#000000;font-size:40px;font-family:'Bebas Neue';-inkscape-font-specification:'Bebas Neue, Normal';white-space:pre;fill:#1a1a1a;stroke-width:0.282743;-inkscape-stroke:none"
         d="m 110.25496,153.44695 q -0.90478,0 -1.36848,-0.50893 -0.46369,-0.52025 -0.46369,-1.48157 v -0.45239 h 1.17621 v 0.54286 q 0,0.76906 0.64465,0.76906 0.31667,0 0.47501,-0.18095 0.16964,-0.19227 0.16964,-0.61073 0,-0.49762 -0.22619,-0.87084 -0.2262,-0.38453 -0.83692,-0.91609 -0.76906,-0.67858 -1.07442,-1.22145 -0.30536,-0.55417 -0.30536,-1.24406 0,-0.93871 0.475,-1.44764 0.47501,-0.52025 1.37979,-0.52025 0.89346,0 1.34585,0.52025 0.4637,0.50893 0.4637,1.47026 v 0.32798 h -1.17621 v -0.40715 q 0,-0.40715 -0.15834,-0.58811 -0.15833,-0.19226 -0.46369,-0.19226 -0.62204,0 -0.62204,0.75775 0,0.42977 0.2262,0.80299 0.2375,0.37322 0.84822,0.90477 0.78037,0.67859 1.07443,1.23276 0.29405,0.55418 0.29405,1.30062 0,0.97263 -0.48632,1.49288 -0.47501,0.52024 -1.39109,0.52024 z"
         id="path19311" />
      <path
         style="color:#000000;font-size:40px;font-family:'Bebas Neue';-inkscape-font-specification:'Bebas Neue, Normal';white-space:pre;fill:#1a1a1a;stroke-width:0.282743;-inkscape-stroke:none"
         d="m 113.81751,146.54804 h -1.30061 v -1.13097 h 3.84529 v 1.13097 h -1.30061 v 6.78582 h -1.24407 z"
         id="path19313" />
      <path
         style="color:#000000;font-size:40px;font-family:'Bebas Neue';-inkscape-font-specification:'Bebas Neue, Normal';white-space:pre;fill:#1a1a1a;stroke-width:0.282743;-inkscape-stroke:none"
         d="m 118.71457,153.44695 q -0.91608,0 -1.4024,-0.52024 -0.48632,-0.52025 -0.48632,-1.47026 v -4.16197 q 0,-0.95002 0.48632,-1.47026 0.48632,-0.52025 1.4024,-0.52025 0.91609,0 1.4024,0.52025 0.48632,0.52024 0.48632,1.47026 v 4.16197 q 0,0.95001 -0.48632,1.47026 -0.48631,0.52024 -1.4024,0.52024 z m 0,-1.13097 q 0.64465,0 0.64465,-0.78037 v -4.3203 q 0,-0.78037 -0.64465,-0.78037 -0.64465,0 -0.64465,0.78037 v 4.3203 q 0,0.78037 0.64465,0.78037 z"
         id="path19315" />
      <path
         style="color:#000000;font-size:40px;font-family:'Bebas Neue';-inkscape-font-specification:'Bebas Neue, Normal';white-space:pre;fill:#1a1a1a;stroke-width:0.282743;-inkscape-stroke:none"
         d="m 121.44021,145.41707 h 1.77562 l 0.79168,5.66616 h 0.0226 l 0.79168,-5.66616 h 1.77562 v 7.91679 h -1.17621 v -5.99414 h -0.0226 l -0.90477,5.99414 h -1.04049 l -0.90478,-5.99414 h -0.0226 v 5.99414 h -1.08573 z"
         id="path19317" />
      <path
         style="color:#000000;font-size:40px;font-family:'Bebas Neue';-inkscape-font-specification:'Bebas Neue, Normal';white-space:pre;fill:#1a1a1a;stroke-width:0.282743;-inkscape-stroke:none"
         d="m 129.33436,145.41707 h 1.83217 q 0.92739,0 1.39109,0.49762 0.4637,0.49763 0.4637,1.45895 v 0.78037 q 0,0.96133 -0.4637,1.45896 -0.4637,0.49762 -1.39109,0.49762 h -0.58811 v 3.22327 h -1.24406 z m 1.83217,3.56255 q 0.30536,0 0.45239,-0.16964 0.15833,-0.16965 0.15833,-0.5768 v -0.9387 q 0,-0.40715 -0.15833,-0.5768 -0.14703,-0.16964 -0.45239,-0.16964 h -0.58811 v 2.43158 z"
         id="path19319" />
      <path
         style="color:#000000;font-size:40px;font-family:'Bebas Neue';-inkscape-font-specification:'Bebas Neue, Normal';white-space:pre;fill:#1a1a1a;stroke-width:0.282743;-inkscape-stroke:none"
         d="m 133.6999,145.41707 h 1.24407 v 7.91679 h -1.24407 z"
         id="path19321" />
      <path
         style="color:#000000;font-size:40px;font-family:'Bebas Neue';-inkscape-font-specification:'Bebas Neue, Normal';white-space:pre;fill:#1a1a1a;stroke-width:0.282743;-inkscape-stroke:none"
         d="m 135.87135,145.41707 h 3.39291 v 1.13097 h -2.14884 v 2.09229 h 1.70776 v 1.13097 h -1.70776 v 2.43159 h 2.14884 v 1.13097 h -3.39291 z"
         id="path19323" />
      <path
         style="color:#000000;font-size:40px;font-family:'Bebas Neue';-inkscape-font-specification:'Bebas Neue, Normal';white-space:pre;fill:#1a1a1a;stroke-width:0.282743;-inkscape-stroke:none"
         d="m 141.72976,153.44695 q -0.89346,0 -1.36847,-0.50893 -0.4637,-0.50894 -0.4637,-1.43633 v -4.25245 q 0,-0.9274 0.4637,-1.43633 0.47501,-0.50894 1.36847,-0.50894 0.89347,0 1.35717,0.50894 0.47501,0.50893 0.47501,1.43633 v 0.83692 h -1.17621 v -0.91609 q 0,-0.73513 -0.62204,-0.73513 -0.62203,0 -0.62203,0.73513 v 4.42209 q 0,0.72382 0.62203,0.72382 0.62204,0 0.62204,-0.72382 v -1.21014 h 1.17621 v 1.11967 q 0,0.92739 -0.47501,1.43633 -0.4637,0.50893 -1.35717,0.50893 z"
         id="path19325" />
      <path
         style="color:#000000;font-size:40px;font-family:'Bebas Neue';-inkscape-font-specification:'Bebas Neue, Normal';white-space:pre;fill:#1a1a1a;stroke-width:0.282743;-inkscape-stroke:none"
         d="m 144.30837,145.41707 h 3.39291 v 1.13097 h -2.14884 v 2.09229 h 1.70776 v 1.13097 h -1.70776 v 2.43159 h 2.14884 v 1.13097 h -3.39291 z"
         id="path19327" />
      <path
         style="color:#000000;font-size:40px;font-family:'Bebas Neue';-inkscape-font-specification:'Bebas Neue, Normal';white-space:pre;fill:#1a1a1a;stroke-width:0.282743;-inkscape-stroke:none"
         d="m 150.05367,153.44695 q -0.90477,0 -1.36847,-0.50893 -0.4637,-0.52025 -0.4637,-1.48157 v -0.45239 h 1.17621 v 0.54286 q 0,0.76906 0.64465,0.76906 0.31667,0 0.47501,-0.18095 0.16965,-0.19227 0.16965,-0.61073 0,-0.49762 -0.2262,-0.87084 -0.22619,-0.38453 -0.83692,-0.91609 -0.76906,-0.67858 -1.07442,-1.22145 -0.30536,-0.55417 -0.30536,-1.24406 0,-0.93871 0.47501,-1.44764 0.47501,-0.52025 1.37978,-0.52025 0.89347,0 1.34586,0.52025 0.46369,0.50893 0.46369,1.47026 v 0.32798 h -1.17621 v -0.40715 q 0,-0.40715 -0.15833,-0.58811 -0.15834,-0.19226 -0.4637,-0.19226 -0.62203,0 -0.62203,0.75775 0,0.42977 0.22619,0.80299 0.23751,0.37322 0.84823,0.90477 0.78037,0.67859 1.07442,1.23276 0.29405,0.55418 0.29405,1.30062 0,0.97263 -0.48631,1.49288 -0.47501,0.52024 -1.3911,0.52024 z"
         id="path19329" />
    </g>
    <g
       aria-label="Shop Our Products "
       transform="matrix(0.28274249,0,0,0.28274249,44.747037,65.739194)"
       id="text11279"
       style="font-size:40px;font-family:'Bebas Neue';-inkscape-font-specification:'Bebas Neue, Normal';white-space:pre;fill:#1a1a1a">
      <path
         style="color:#000000;-inkscape-font-specification:'Bebas Neue, Normal';fill:#1a1a1a;-inkscape-stroke:none"
         d="m 141.86391,241.30625 q -3.2,0 -4.84,-1.8 -1.64,-1.84 -1.64,-5.24 v -1.6 h 4.16 v 1.92 q 0,2.72 2.28,2.72 1.12,0 1.68,-0.64 0.6,-0.68 0.6,-2.16 0,-1.76 -0.8,-3.08 -0.8,-1.36 -2.96,-3.24 -2.72,-2.4 -3.8,-4.32 -1.08,-1.96 -1.08,-4.4 0,-3.32 1.68,-5.12 1.68,-1.84 4.88,-1.84 3.16,0 4.76,1.84 1.64,1.8 1.64,5.2 v 1.16 h -4.16 v -1.44 q 0,-1.44 -0.56,-2.08 -0.56,-0.68 -1.64,-0.68 -2.2,0 -2.2,2.68 0,1.52 0.8,2.84 0.84,1.32 3,3.2 2.76,2.4 3.8,4.36 1.04,1.96 1.04,4.6 0,3.44 -1.72,5.28 -1.68,1.84 -4.92,1.84 z"
         id="path19252" />
      <path
         style="color:#000000;-inkscape-font-specification:'Bebas Neue, Normal';fill:#1a1a1a;-inkscape-stroke:none"
         d="m 151.0239,212.90625 h 4.4 v 11.4 h 4.72 v -11.4 h 4.4 v 28 h -4.4 v -12.6 h -4.72 v 12.6 h -4.4 z"
         id="path19254" />
      <path
         style="color:#000000;-inkscape-font-specification:'Bebas Neue, Normal';fill:#1a1a1a;-inkscape-stroke:none"
         d="m 174.18382,241.30625 q -3.24,0 -4.96,-1.84 -1.72,-1.84 -1.72,-5.2 v -14.72 q 0,-3.36 1.72,-5.2 1.72,-1.84 4.96,-1.84 3.24,0 4.96,1.84 1.72,1.84 1.72,5.2 v 14.72 q 0,3.36 -1.72,5.2 -1.72,1.84 -4.96,1.84 z m 0,-4 q 2.28,0 2.28,-2.76 v -15.28 q 0,-2.76 -2.28,-2.76 -2.28,0 -2.28,2.76 v 15.28 q 0,2.76 2.28,2.76 z"
         id="path19256" />
      <path
         style="color:#000000;-inkscape-font-specification:'Bebas Neue, Normal';fill:#1a1a1a;-inkscape-stroke:none"
         d="m 183.82381,212.90625 h 6.48 q 3.28,0 4.92,1.76 1.64,1.76 1.64,5.16 v 2.76 q 0,3.4 -1.64,5.16 -1.64,1.76 -4.92,1.76 h -2.08 v 11.4 h -4.4 z m 6.48,12.6 q 1.08,0 1.6,-0.6 0.56,-0.6 0.56,-2.04 v -3.32 q 0,-1.44 -0.56,-2.04 -0.52,-0.6 -1.6,-0.6 h -2.08 v 8.6 z"
         id="path19258" />
      <path
         style="color:#000000;-inkscape-font-specification:'Bebas Neue, Normal';fill:#1a1a1a;-inkscape-stroke:none"
         d="m 212.02379,241.30625 q -3.24,0 -4.96,-1.84 -1.72,-1.84 -1.72,-5.2 v -14.72 q 0,-3.36 1.72,-5.2 1.72,-1.84 4.96,-1.84 3.24,0 4.96,1.84 1.72,1.84 1.72,5.2 v 14.72 q 0,3.36 -1.72,5.2 -1.72,1.84 -4.96,1.84 z m 0,-4 q 2.28,0 2.28,-2.76 v -15.28 q 0,-2.76 -2.28,-2.76 -2.28,0 -2.28,2.76 v 15.28 q 0,2.76 2.28,2.76 z"
         id="path19260" />
      <path
         style="color:#000000;-inkscape-font-specification:'Bebas Neue, Normal';fill:#1a1a1a;-inkscape-stroke:none"
         d="m 228.06377,241.30625 q -3.2,0 -4.88,-1.8 -1.68,-1.84 -1.68,-5.24 v -21.36 h 4.4 v 21.68 q 0,1.44 0.56,2.08 0.6,0.64 1.68,0.64 1.08,0 1.64,-0.64 0.6,-0.64 0.6,-2.08 v -21.68 h 4.24 v 21.36 q 0,3.4 -1.68,5.24 -1.68,1.8 -4.88,1.8 z"
         id="path19262" />
      <path
         style="color:#000000;-inkscape-font-specification:'Bebas Neue, Normal';fill:#1a1a1a;-inkscape-stroke:none"
         d="m 237.74371,212.90625 h 6.52 q 3.4,0 4.96,1.6 1.56,1.56 1.56,4.84 v 1.72 q 0,4.36 -2.88,5.52 v 0.08 q 1.6,0.48 2.24,1.96 0.68,1.48 0.68,3.96 v 4.92 q 0,1.2 0.08,1.96 0.08,0.72 0.4,1.44 h -4.48 q -0.24,-0.68 -0.32,-1.28 -0.08,-0.6 -0.08,-2.16 v -5.12 q 0,-1.92 -0.64,-2.68 -0.6,-0.76 -2.12,-0.76 h -1.52 v 12 h -4.4 z m 6,12 q 1.32,0 1.96,-0.68 0.68,-0.68 0.68,-2.28 v -2.16 q 0,-1.52 -0.56,-2.2 -0.52,-0.68 -1.68,-0.68 h -2 v 8 z"
         id="path19264" />
      <path
         style="color:#000000;-inkscape-font-specification:'Bebas Neue, Normal';fill:#1a1a1a;-inkscape-stroke:none"
         d="m 260.2637,212.90625 h 6.48 q 3.28,0 4.92,1.76 1.64,1.76 1.64,5.16 v 2.76 q 0,3.4 -1.64,5.16 -1.64,1.76 -4.92,1.76 h -2.08 v 11.4 h -4.4 z m 6.48,12.6 q 1.08,0 1.6,-0.6 0.56,-0.6 0.56,-2.04 v -3.32 q 0,-1.44 -0.56,-2.04 -0.52,-0.6 -1.6,-0.6 h -2.08 v 8.6 z"
         id="path19266" />
      <path
         style="color:#000000;-inkscape-font-specification:'Bebas Neue, Normal';fill:#1a1a1a;-inkscape-stroke:none"
         d="m 275.70369,212.90625 h 6.52 q 3.4,0 4.96,1.6 1.56,1.56 1.56,4.84 v 1.72 q 0,4.36 -2.88,5.52 v 0.08 q 1.6,0.48 2.24,1.96 0.68,1.48 0.68,3.96 v 4.92 q 0,1.2 0.08,1.96 0.08,0.72 0.4,1.44 h -4.48 q -0.24,-0.68 -0.32,-1.28 -0.08,-0.6 -0.08,-2.16 v -5.12 q 0,-1.92 -0.64,-2.68 -0.6,-0.76 -2.12,-0.76 h -1.52 v 12 h -4.4 z m 6,12 q 1.32,0 1.96,-0.68 0.68,-0.68 0.68,-2.28 v -2.16 q 0,-1.52 -0.56,-2.2 -0.52,-0.68 -1.68,-0.68 h -2 v 8 z"
         id="path19268" />
      <path
         style="color:#000000;-inkscape-font-specification:'Bebas Neue, Normal';fill:#1a1a1a;-inkscape-stroke:none"
         d="m 298.18369,241.30625 q -3.24,0 -4.96,-1.84 -1.72,-1.84 -1.72,-5.2 v -14.72 q 0,-3.36 1.72,-5.2 1.72,-1.84 4.96,-1.84 3.24,0 4.96,1.84 1.72,1.84 1.72,5.2 v 14.72 q 0,3.36 -1.72,5.2 -1.72,1.84 -4.96,1.84 z m 0,-4 q 2.28,0 2.28,-2.76 v -15.28 q 0,-2.76 -2.28,-2.76 -2.28,0 -2.28,2.76 v 15.28 q 0,2.76 2.28,2.76 z"
         id="path19270" />
      <path
         style="color:#000000;-inkscape-font-specification:'Bebas Neue, Normal';fill:#1a1a1a;-inkscape-stroke:none"
         d="m 307.82367,212.90625 h 6.72 q 3.28,0 4.92,1.76 1.64,1.76 1.64,5.16 v 14.16 q 0,3.4 -1.64,5.16 -1.64,1.76 -4.92,1.76 h -6.72 z m 6.64,24 q 1.08,0 1.64,-0.64 0.6,-0.64 0.6,-2.08 v -14.56 q 0,-1.44 -0.6,-2.08 -0.56,-0.64 -1.64,-0.64 h -2.24 v 20 z"
         id="path19272" />
      <path
         style="color:#000000;-inkscape-font-specification:'Bebas Neue, Normal';fill:#1a1a1a;-inkscape-stroke:none"
         d="m 330.4636,241.30625 q -3.2,0 -4.88,-1.8 -1.68,-1.84 -1.68,-5.24 v -21.36 h 4.4 v 21.68 q 0,1.44 0.56,2.08 0.6,0.64 1.68,0.64 1.08,0 1.64,-0.64 0.6,-0.64 0.6,-2.08 v -21.68 h 4.24 v 21.36 q 0,3.4 -1.68,5.24 -1.68,1.8 -4.88,1.8 z"
         id="path19274" />
      <path
         style="color:#000000;-inkscape-font-specification:'Bebas Neue, Normal';fill:#1a1a1a;-inkscape-stroke:none"
         d="m 346.34354,241.30625 q -3.16,0 -4.84,-1.8 -1.64,-1.8 -1.64,-5.08 v -15.04 q 0,-3.28 1.64,-5.08 1.68,-1.8 4.84,-1.8 3.16,0 4.8,1.8 1.68,1.8 1.68,5.08 v 2.96 h -4.16 v -3.24 q 0,-2.6 -2.2,-2.6 -2.2,0 -2.2,2.6 v 15.64 q 0,2.56 2.2,2.56 2.2,0 2.2,-2.56 v -4.28 h 4.16 v 3.96 q 0,3.28 -1.68,5.08 -1.64,1.8 -4.8,1.8 z"
         id="path19276" />
      <path
         style="color:#000000;-inkscape-font-specification:'Bebas Neue, Normal';fill:#1a1a1a;-inkscape-stroke:none"
         d="m 358.90352,216.90625 h -4.6 v -4 h 13.6 v 4 h -4.6 v 24 h -4.4 z"
         id="path19278" />
      <path
         style="color:#000000;-inkscape-font-specification:'Bebas Neue, Normal';fill:#1a1a1a;-inkscape-stroke:none"
         d="m 375.74345,241.30625 q -3.2,0 -4.84,-1.8 -1.64,-1.84 -1.64,-5.24 v -1.6 h 4.16 v 1.92 q 0,2.72 2.28,2.72 1.12,0 1.68,-0.64 0.6,-0.68 0.6,-2.16 0,-1.76 -0.8,-3.08 -0.8,-1.36 -2.96,-3.24 -2.72,-2.4 -3.8,-4.32 -1.08,-1.96 -1.08,-4.4 0,-3.32 1.68,-5.12 1.68,-1.84 4.88,-1.84 3.16,0 4.76,1.84 1.64,1.8 1.64,5.2 v 1.16 h -4.16 v -1.44 q 0,-1.44 -0.56,-2.08 -0.56,-0.68 -1.64,-0.68 -2.2,0 -2.2,2.68 0,1.52 0.8,2.84 0.84,1.32 3,3.2 2.76,2.4 3.8,4.36 1.04,1.96 1.04,4.6 0,3.44 -1.72,5.28 -1.68,1.84 -4.92,1.84 z"
         id="path19280" />
    </g>
    <g
       aria-label="Shop Our Products "
       transform="matrix(0.28274249,0,0,0.28274249,44.281036,65.739194)"
       id="g879"
       style="font-size:40px;font-family:'Bebas Neue';-inkscape-font-specification:'Bebas Neue, Normal';white-space:pre;fill:#f2f2f2">
      <path
         style="color:#000000;-inkscape-font-specification:'Bebas Neue, Normal';fill:#f2f2f2;-inkscape-stroke:none"
         d="m 141.86391,241.30625 q -3.2,0 -4.84,-1.8 -1.64,-1.84 -1.64,-5.24 v -1.6 h 4.16 v 1.92 q 0,2.72 2.28,2.72 1.12,0 1.68,-0.64 0.6,-0.68 0.6,-2.16 0,-1.76 -0.8,-3.08 -0.8,-1.36 -2.96,-3.24 -2.72,-2.4 -3.8,-4.32 -1.08,-1.96 -1.08,-4.4 0,-3.32 1.68,-5.12 1.68,-1.84 4.88,-1.84 3.16,0 4.76,1.84 1.64,1.8 1.64,5.2 v 1.16 h -4.16 v -1.44 q 0,-1.44 -0.56,-2.08 -0.56,-0.68 -1.64,-0.68 -2.2,0 -2.2,2.68 0,1.52 0.8,2.84 0.84,1.32 3,3.2 2.76,2.4 3.8,4.36 1.04,1.96 1.04,4.6 0,3.44 -1.72,5.28 -1.68,1.84 -4.92,1.84 z"
         id="path849" />
      <path
         style="color:#000000;-inkscape-font-specification:'Bebas Neue, Normal';fill:#f2f2f2;-inkscape-stroke:none"
         d="m 151.0239,212.90625 h 4.4 v 11.4 h 4.72 v -11.4 h 4.4 v 28 h -4.4 v -12.6 h -4.72 v 12.6 h -4.4 z"
         id="path851" />
      <path
         style="color:#000000;-inkscape-font-specification:'Bebas Neue, Normal';fill:#f2f2f2;-inkscape-stroke:none"
         d="m 174.18382,241.30625 q -3.24,0 -4.96,-1.84 -1.72,-1.84 -1.72,-5.2 v -14.72 q 0,-3.36 1.72,-5.2 1.72,-1.84 4.96,-1.84 3.24,0 4.96,1.84 1.72,1.84 1.72,5.2 v 14.72 q 0,3.36 -1.72,5.2 -1.72,1.84 -4.96,1.84 z m 0,-4 q 2.28,0 2.28,-2.76 v -15.28 q 0,-2.76 -2.28,-2.76 -2.28,0 -2.28,2.76 v 15.28 q 0,2.76 2.28,2.76 z"
         id="path853" />
      <path
         style="color:#000000;-inkscape-font-specification:'Bebas Neue, Normal';fill:#f2f2f2;-inkscape-stroke:none"
         d="m 183.82381,212.90625 h 6.48 q 3.28,0 4.92,1.76 1.64,1.76 1.64,5.16 v 2.76 q 0,3.4 -1.64,5.16 -1.64,1.76 -4.92,1.76 h -2.08 v 11.4 h -4.4 z m 6.48,12.6 q 1.08,0 1.6,-0.6 0.56,-0.6 0.56,-2.04 v -3.32 q 0,-1.44 -0.56,-2.04 -0.52,-0.6 -1.6,-0.6 h -2.08 v 8.6 z"
         id="path855" />
      <path
         style="color:#000000;-inkscape-font-specification:'Bebas Neue, Normal';fill:#f2f2f2;-inkscape-stroke:none"
         d="m 212.02379,241.30625 q -3.24,0 -4.96,-1.84 -1.72,-1.84 -1.72,-5.2 v -14.72 q 0,-3.36 1.72,-5.2 1.72,-1.84 4.96,-1.84 3.24,0 4.96,1.84 1.72,1.84 1.72,5.2 v 14.72 q 0,3.36 -1.72,5.2 -1.72,1.84 -4.96,1.84 z m 0,-4 q 2.28,0 2.28,-2.76 v -15.28 q 0,-2.76 -2.28,-2.76 -2.28,0 -2.28,2.76 v 15.28 q 0,2.76 2.28,2.76 z"
         id="path857" />
      <path
         style="color:#000000;-inkscape-font-specification:'Bebas Neue, Normal';fill:#f2f2f2;-inkscape-stroke:none"
         d="m 228.06377,241.30625 q -3.2,0 -4.88,-1.8 -1.68,-1.84 -1.68,-5.24 v -21.36 h 4.4 v 21.68 q 0,1.44 0.56,2.08 0.6,0.64 1.68,0.64 1.08,0 1.64,-0.64 0.6,-0.64 0.6,-2.08 v -21.68 h 4.24 v 21.36 q 0,3.4 -1.68,5.24 -1.68,1.8 -4.88,1.8 z"
         id="path859" />
      <path
         style="color:#000000;-inkscape-font-specification:'Bebas Neue, Normal';fill:#f2f2f2;-inkscape-stroke:none"
         d="m 237.74371,212.90625 h 6.52 q 3.4,0 4.96,1.6 1.56,1.56 1.56,4.84 v 1.72 q 0,4.36 -2.88,5.52 v 0.08 q 1.6,0.48 2.24,1.96 0.68,1.48 0.68,3.96 v 4.92 q 0,1.2 0.08,1.96 0.08,0.72 0.4,1.44 h -4.48 q -0.24,-0.68 -0.32,-1.28 -0.08,-0.6 -0.08,-2.16 v -5.12 q 0,-1.92 -0.64,-2.68 -0.6,-0.76 -2.12,-0.76 h -1.52 v 12 h -4.4 z m 6,12 q 1.32,0 1.96,-0.68 0.68,-0.68 0.68,-2.28 v -2.16 q 0,-1.52 -0.56,-2.2 -0.52,-0.68 -1.68,-0.68 h -2 v 8 z"
         id="path861" />
      <path
         style="color:#000000;-inkscape-font-specification:'Bebas Neue, Normal';fill:#f2f2f2;-inkscape-stroke:none"
         d="m 260.2637,212.90625 h 6.48 q 3.28,0 4.92,1.76 1.64,1.76 1.64,5.16 v 2.76 q 0,3.4 -1.64,5.16 -1.64,1.76 -4.92,1.76 h -2.08 v 11.4 h -4.4 z m 6.48,12.6 q 1.08,0 1.6,-0.6 0.56,-0.6 0.56,-2.04 v -3.32 q 0,-1.44 -0.56,-2.04 -0.52,-0.6 -1.6,-0.6 h -2.08 v 8.6 z"
         id="path863" />
      <path
         style="color:#000000;-inkscape-font-specification:'Bebas Neue, Normal';fill:#f2f2f2;-inkscape-stroke:none"
         d="m 275.70369,212.90625 h 6.52 q 3.4,0 4.96,1.6 1.56,1.56 1.56,4.84 v 1.72 q 0,4.36 -2.88,5.52 v 0.08 q 1.6,0.48 2.24,1.96 0.68,1.48 0.68,3.96 v 4.92 q 0,1.2 0.08,1.96 0.08,0.72 0.4,1.44 h -4.48 q -0.24,-0.68 -0.32,-1.28 -0.08,-0.6 -0.08,-2.16 v -5.12 q 0,-1.92 -0.64,-2.68 -0.6,-0.76 -2.12,-0.76 h -1.52 v 12 h -4.4 z m 6,12 q 1.32,0 1.96,-0.68 0.68,-0.68 0.68,-2.28 v -2.16 q 0,-1.52 -0.56,-2.2 -0.52,-0.68 -1.68,-0.68 h -2 v 8 z"
         id="path865" />
      <path
         style="color:#000000;-inkscape-font-specification:'Bebas Neue, Normal';fill:#f2f2f2;-inkscape-stroke:none"
         d="m 298.18369,241.30625 q -3.24,0 -4.96,-1.84 -1.72,-1.84 -1.72,-5.2 v -14.72 q 0,-3.36 1.72,-5.2 1.72,-1.84 4.96,-1.84 3.24,0 4.96,1.84 1.72,1.84 1.72,5.2 v 14.72 q 0,3.36 -1.72,5.2 -1.72,1.84 -4.96,1.84 z m 0,-4 q 2.28,0 2.28,-2.76 v -15.28 q 0,-2.76 -2.28,-2.76 -2.28,0 -2.28,2.76 v 15.28 q 0,2.76 2.28,2.76 z"
         id="path867" />
      <path
         style="color:#000000;-inkscape-font-specification:'Bebas Neue, Normal';fill:#f2f2f2;-inkscape-stroke:none"
         d="m 307.82367,212.90625 h 6.72 q 3.28,0 4.92,1.76 1.64,1.76 1.64,5.16 v 14.16 q 0,3.4 -1.64,5.16 -1.64,1.76 -4.92,1.76 h -6.72 z m 6.64,24 q 1.08,0 1.64,-0.64 0.6,-0.64 0.6,-2.08 v -14.56 q 0,-1.44 -0.6,-2.08 -0.56,-0.64 -1.64,-0.64 h -2.24 v 20 z"
         id="path869" />
      <path
         style="color:#000000;-inkscape-font-specification:'Bebas Neue, Normal';fill:#f2f2f2;-inkscape-stroke:none"
         d="m 330.4636,241.30625 q -3.2,0 -4.88,-1.8 -1.68,-1.84 -1.68,-5.24 v -21.36 h 4.4 v 21.68 q 0,1.44 0.56,2.08 0.6,0.64 1.68,0.64 1.08,0 1.64,-0.64 0.6,-0.64 0.6,-2.08 v -21.68 h 4.24 v 21.36 q 0,3.4 -1.68,5.24 -1.68,1.8 -4.88,1.8 z"
         id="path871" />
      <path
         style="color:#000000;-inkscape-font-specification:'Bebas Neue, Normal';fill:#f2f2f2;-inkscape-stroke:none"
         d="m 346.34354,241.30625 q -3.16,0 -4.84,-1.8 -1.64,-1.8 -1.64,-5.08 v -15.04 q 0,-3.28 1.64,-5.08 1.68,-1.8 4.84,-1.8 3.16,0 4.8,1.8 1.68,1.8 1.68,5.08 v 2.96 h -4.16 v -3.24 q 0,-2.6 -2.2,-2.6 -2.2,0 -2.2,2.6 v 15.64 q 0,2.56 2.2,2.56 2.2,0 2.2,-2.56 v -4.28 h 4.16 v 3.96 q 0,3.28 -1.68,5.08 -1.64,1.8 -4.8,1.8 z"
         id="path873" />
      <path
         style="color:#000000;-inkscape-font-specification:'Bebas Neue, Normal';fill:#f2f2f2;-inkscape-stroke:none"
         d="m 358.90352,216.90625 h -4.6 v -4 h 13.6 v 4 h -4.6 v 24 h -4.4 z"
         id="path875" />
      <path
         style="color:#000000;-inkscape-font-specification:'Bebas Neue, Normal';fill:#f2f2f2;-inkscape-stroke:none"
         d="m 375.74345,241.30625 q -3.2,0 -4.84,-1.8 -1.64,-1.84 -1.64,-5.24 v -1.6 h 4.16 v 1.92 q 0,2.72 2.28,2.72 1.12,0 1.68,-0.64 0.6,-0.68 0.6,-2.16 0,-1.76 -0.8,-3.08 -0.8,-1.36 -2.96,-3.24 -2.72,-2.4 -3.8,-4.32 -1.08,-1.96 -1.08,-4.4 0,-3.32 1.68,-5.12 1.68,-1.84 4.88,-1.84 3.16,0 4.76,1.84 1.64,1.8 1.64,5.2 v 1.16 h -4.16 v -1.44 q 0,-1.44 -0.56,-2.08 -0.56,-0.68 -1.64,-0.68 -2.2,0 -2.2,2.68 0,1.52 0.8,2.84 0.84,1.32 3,3.2 2.76,2.4 3.8,4.36 1.04,1.96 1.04,4.6 0,3.44 -1.72,5.28 -1.68,1.84 -4.92,1.84 z"
         id="path877" />
    </g>
    <g
       id="g937"
       transform="translate(0.31066674,-0.15533337)">
      <path
         style="color:#000000;font-size:40px;font-family:'Bebas Neue';-inkscape-font-specification:'Bebas Neue, Normal';white-space:pre;fill:#f2f2f2;stroke-width:0.282743;-inkscape-stroke:none"
         d="m 101.51258,153.44695 q -0.89346,0 -1.36847,-0.50893 -0.463698,-0.50894 -0.463698,-1.43633 v -4.25245 q 0,-0.9274 0.463698,-1.43633 0.47501,-0.50894 1.36847,-0.50894 0.89347,0 1.35717,0.50894 0.475,0.50893 0.475,1.43633 v 0.83692 h -1.1762 v -0.91609 q 0,-0.73513 -0.62204,-0.73513 -0.62203,0 -0.62203,0.73513 v 4.42209 q 0,0.72382 0.62203,0.72382 0.62204,0 0.62204,-0.72382 v -1.21014 h 1.1762 v 1.11967 q 0,0.92739 -0.475,1.43633 -0.4637,0.50893 -1.35717,0.50893 z"
         id="path913" />
      <path
         style="color:#000000;font-size:40px;font-family:'Bebas Neue';-inkscape-font-specification:'Bebas Neue, Normal';white-space:pre;fill:#f2f2f2;stroke-width:0.282743;-inkscape-stroke:none"
         d="m 105.90074,153.44695 q -0.90477,0 -1.37978,-0.50893 -0.47501,-0.52025 -0.47501,-1.48157 v -6.03938 h 1.24407 v 6.12985 q 0,0.40715 0.15833,0.58811 0.16965,0.18095 0.47501,0.18095 0.30536,0 0.4637,-0.18095 0.16964,-0.18096 0.16964,-0.58811 v -6.12985 h 1.19883 v 6.03938 q 0,0.96132 -0.47501,1.48157 -0.475,0.50893 -1.37978,0.50893 z"
         id="path915" />
      <path
         style="color:#000000;font-size:40px;font-family:'Bebas Neue';-inkscape-font-specification:'Bebas Neue, Normal';white-space:pre;fill:#f2f2f2;stroke-width:0.282743;-inkscape-stroke:none"
         d="m 110.25496,153.44695 q -0.90478,0 -1.36848,-0.50893 -0.46369,-0.52025 -0.46369,-1.48157 v -0.45239 h 1.17621 v 0.54286 q 0,0.76906 0.64465,0.76906 0.31667,0 0.47501,-0.18095 0.16964,-0.19227 0.16964,-0.61073 0,-0.49762 -0.22619,-0.87084 -0.2262,-0.38453 -0.83692,-0.91609 -0.76906,-0.67858 -1.07442,-1.22145 -0.30536,-0.55417 -0.30536,-1.24406 0,-0.93871 0.475,-1.44764 0.47501,-0.52025 1.37979,-0.52025 0.89346,0 1.34585,0.52025 0.4637,0.50893 0.4637,1.47026 v 0.32798 h -1.17621 v -0.40715 q 0,-0.40715 -0.15834,-0.58811 -0.15833,-0.19226 -0.46369,-0.19226 -0.62204,0 -0.62204,0.75775 0,0.42977 0.2262,0.80299 0.2375,0.37322 0.84822,0.90477 0.78037,0.67859 1.07443,1.23276 0.29405,0.55418 0.29405,1.30062 0,0.97263 -0.48632,1.49288 -0.47501,0.52024 -1.39109,0.52024 z"
         id="path917" />
      <path
         style="color:#000000;font-size:40px;font-family:'Bebas Neue';-inkscape-font-specification:'Bebas Neue, Normal';white-space:pre;fill:#f2f2f2;stroke-width:0.282743;-inkscape-stroke:none"
         d="m 113.81751,146.54804 h -1.30061 v -1.13097 h 3.84529 v 1.13097 h -1.30061 v 6.78582 h -1.24407 z"
         id="path919" />
      <path
         style="color:#000000;font-size:40px;font-family:'Bebas Neue';-inkscape-font-specification:'Bebas Neue, Normal';white-space:pre;fill:#f2f2f2;stroke-width:0.282743;-inkscape-stroke:none"
         d="m 118.71457,153.44695 q -0.91608,0 -1.4024,-0.52024 -0.48632,-0.52025 -0.48632,-1.47026 v -4.16197 q 0,-0.95002 0.48632,-1.47026 0.48632,-0.52025 1.4024,-0.52025 0.91609,0 1.4024,0.52025 0.48632,0.52024 0.48632,1.47026 v 4.16197 q 0,0.95001 -0.48632,1.47026 -0.48631,0.52024 -1.4024,0.52024 z m 0,-1.13097 q 0.64465,0 0.64465,-0.78037 v -4.3203 q 0,-0.78037 -0.64465,-0.78037 -0.64465,0 -0.64465,0.78037 v 4.3203 q 0,0.78037 0.64465,0.78037 z"
         id="path921" />
      <path
         style="color:#000000;font-size:40px;font-family:'Bebas Neue';-inkscape-font-specification:'Bebas Neue, Normal';white-space:pre;fill:#f2f2f2;stroke-width:0.282743;-inkscape-stroke:none"
         d="m 121.44021,145.41707 h 1.77562 l 0.79168,5.66616 h 0.0226 l 0.79168,-5.66616 h 1.77562 v 7.91679 h -1.17621 v -5.99414 h -0.0226 l -0.90477,5.99414 h -1.04049 l -0.90478,-5.99414 h -0.0226 v 5.99414 h -1.08573 z"
         id="path923" />
      <path
         style="color:#000000;font-size:40px;font-family:'Bebas Neue';-inkscape-font-specification:'Bebas Neue, Normal';white-space:pre;fill:#f2f2f2;stroke-width:0.282743;-inkscape-stroke:none"
         d="m 129.33436,145.41707 h 1.83217 q 0.92739,0 1.39109,0.49762 0.4637,0.49763 0.4637,1.45895 v 0.78037 q 0,0.96133 -0.4637,1.45896 -0.4637,0.49762 -1.39109,0.49762 h -0.58811 v 3.22327 h -1.24406 z m 1.83217,3.56255 q 0.30536,0 0.45239,-0.16964 0.15833,-0.16965 0.15833,-0.5768 v -0.9387 q 0,-0.40715 -0.15833,-0.5768 -0.14703,-0.16964 -0.45239,-0.16964 h -0.58811 v 2.43158 z"
         id="path925" />
      <path
         style="color:#000000;font-size:40px;font-family:'Bebas Neue';-inkscape-font-specification:'Bebas Neue, Normal';white-space:pre;fill:#f2f2f2;stroke-width:0.282743;-inkscape-stroke:none"
         d="m 133.6999,145.41707 h 1.24407 v 7.91679 h -1.24407 z"
         id="path927" />
      <path
         style="color:#000000;font-size:40px;font-family:'Bebas Neue';-inkscape-font-specification:'Bebas Neue, Normal';white-space:pre;fill:#f2f2f2;stroke-width:0.282743;-inkscape-stroke:none"
         d="m 135.87135,145.41707 h 3.39291 v 1.13097 h -2.14884 v 2.09229 h 1.70776 v 1.13097 h -1.70776 v 2.43159 h 2.14884 v 1.13097 h -3.39291 z"
         id="path929" />
      <path
         style="color:#000000;font-size:40px;font-family:'Bebas Neue';-inkscape-font-specification:'Bebas Neue, Normal';white-space:pre;fill:#f2f2f2;stroke-width:0.282743;-inkscape-stroke:none"
         d="m 141.72976,153.44695 q -0.89346,0 -1.36847,-0.50893 -0.4637,-0.50894 -0.4637,-1.43633 v -4.25245 q 0,-0.9274 0.4637,-1.43633 0.47501,-0.50894 1.36847,-0.50894 0.89347,0 1.35717,0.50894 0.47501,0.50893 0.47501,1.43633 v 0.83692 h -1.17621 v -0.91609 q 0,-0.73513 -0.62204,-0.73513 -0.62203,0 -0.62203,0.73513 v 4.42209 q 0,0.72382 0.62203,0.72382 0.62204,0 0.62204,-0.72382 v -1.21014 h 1.17621 v 1.11967 q 0,0.92739 -0.47501,1.43633 -0.4637,0.50893 -1.35717,0.50893 z"
         id="path931" />
      <path
         style="color:#000000;font-size:40px;font-family:'Bebas Neue';-inkscape-font-specification:'Bebas Neue, Normal';white-space:pre;fill:#f2f2f2;stroke-width:0.282743;-inkscape-stroke:none"
         d="m 144.30837,145.41707 h 3.39291 v 1.13097 h -2.14884 v 2.09229 h 1.70776 v 1.13097 h -1.70776 v 2.43159 h 2.14884 v 1.13097 h -3.39291 z"
         id="path933" />
      <path
         style="color:#000000;font-size:40px;font-family:'Bebas Neue';-inkscape-font-specification:'Bebas Neue, Normal';white-space:pre;fill:#f2f2f2;stroke-width:0.282743;-inkscape-stroke:none"
         d="m 150.05367,153.44695 q -0.90477,0 -1.36847,-0.50893 -0.4637,-0.52025 -0.4637,-1.48157 v -0.45239 h 1.17621 v 0.54286 q 0,0.76906 0.64465,0.76906 0.31667,0 0.47501,-0.18095 0.16965,-0.19227 0.16965,-0.61073 0,-0.49762 -0.2262,-0.87084 -0.22619,-0.38453 -0.83692,-0.91609 -0.76906,-0.67858 -1.07442,-1.22145 -0.30536,-0.55417 -0.30536,-1.24406 0,-0.93871 0.47501,-1.44764 0.47501,-0.52025 1.37978,-0.52025 0.89347,0 1.34586,0.52025 0.46369,0.50893 0.46369,1.47026 v 0.32798 h -1.17621 v -0.40715 q 0,-0.40715 -0.15833,-0.58811 -0.15834,-0.19226 -0.4637,-0.19226 -0.62203,0 -0.62203,0.75775 0,0.42977 0.22619,0.80299 0.23751,0.37322 0.84823,0.90477 0.78037,0.67859 1.07442,1.23276 0.29405,0.55418 0.29405,1.30062 0,0.97263 -0.48631,1.49288 -0.47501,0.52024 -1.3911,0.52024 z"
         id="path935" />
    </g>
  </g>
</svg>
