<?xml version="1.0" encoding="UTF-8" standalone="no"?>
<!-- Created with Inkscape (http://www.inkscape.org/) -->

<svg
   width="485.72116mm"
   height="315.90918mm"
   viewBox="0 0 485.72116 315.90918"
   version="1.1"
   id="svg858"
   inkscape:version="1.1 (c68e22c387, 2021-05-23)"
   sodipodi:docname="RBG-glow-chain.svg"
   xmlns:inkscape="http://www.inkscape.org/namespaces/inkscape"
   xmlns:sodipodi="http://sodipodi.sourceforge.net/DTD/sodipodi-0.dtd"
   xmlns="http://www.w3.org/2000/svg"
   xmlns:svg="http://www.w3.org/2000/svg">
  <sodipodi:namedview
     id="namedview860"
     pagecolor="#ffffff"
     bordercolor="#000000"
     borderopacity="0"
     inkscape:pageshadow="2"
     inkscape:pageopacity="0.0"
     inkscape:pagecheckerboard="0"
     inkscape:document-units="mm"
     showgrid="false"
     fit-margin-top="0"
     fit-margin-left="0"
     fit-margin-right="0"
     fit-margin-bottom="0"
     inkscape:zoom="0.30110831"
     inkscape:cx="561.25984"
     inkscape:cy="440.041"
     inkscape:window-width="1920"
     inkscape:window-height="1017"
     inkscape:window-x="-8"
     inkscape:window-y="-8"
     inkscape:window-maximized="1"
     inkscape:current-layer="layer1" />
  <defs
     id="defs855">
    <filter
       y="-0.15845712"
       height="1.3160778"
       inkscape:menu-tooltip="Darkens the edge with an inner blur and adds a flexible glow"
       inkscape:menu="Shadows and Glows"
       inkscape:label="Dark and Glow"
       style="color-interpolation-filters:sRGB"
       id="filter1418"
       x="-0.08528625"
       width="1.1708461">
      <feGaussianBlur
         stdDeviation="5"
         result="result6"
         id="feGaussianBlur1408" />
      <feComposite
         result="result8"
         in="SourceGraphic"
         operator="atop"
         in2="result6"
         id="feComposite1410" />
      <feComposite
         result="result9"
         operator="over"
         in2="SourceAlpha"
         in="result8"
         id="feComposite1412" />
      <feColorMatrix
         values="1 0 0 0 0 0 1 0 0 0 0 0 1 0 0 0 0 0 1 0 "
         result="result10"
         id="feColorMatrix1414" />
      <feBlend
         in="result10"
         mode="normal"
         in2="result6"
         id="feBlend1416" />
    </filter>
    <filter
       y="-0.084238936"
       height="1.168384"
       inkscape:menu-tooltip="Darkens the edge with an inner blur and adds a flexible glow"
       inkscape:menu="Shadows and Glows"
       inkscape:label="Dark and Glow"
       style="color-interpolation-filters:sRGB"
       id="filter5410"
       x="-0.04278307"
       width="1.0855898">
      <feGaussianBlur
         stdDeviation="5"
         result="result6"
         id="feGaussianBlur5400" />
      <feComposite
         result="result8"
         in="SourceGraphic"
         operator="atop"
         in2="result6"
         id="feComposite5402" />
      <feComposite
         result="result9"
         operator="over"
         in2="SourceAlpha"
         in="result8"
         id="feComposite5404" />
      <feColorMatrix
         values="1 0 0 0 0 0 1 0 0 0 0 0 1 0 0 0 0 0 1 0 "
         result="result10"
         id="feColorMatrix5406" />
      <feBlend
         in="result10"
         mode="normal"
         in2="result6"
         id="feBlend5408" />
    </filter>
    <filter
       y="-1.1380471"
       height="3.2760942"
       inkscape:menu-tooltip="Darkens the edge with an inner blur and adds a flexible glow"
       inkscape:menu="Shadows and Glows"
       inkscape:label="Dark and Glow"
       style="color-interpolation-filters:sRGB"
       id="filter7190"
       x="-1.1380471"
       width="3.2760942">
      <feGaussianBlur
         stdDeviation="5"
         result="result6"
         id="feGaussianBlur7180" />
      <feComposite
         result="result8"
         in="SourceGraphic"
         operator="atop"
         in2="result6"
         id="feComposite7182" />
      <feComposite
         result="result9"
         operator="over"
         in2="SourceAlpha"
         in="result8"
         id="feComposite7184" />
      <feColorMatrix
         values="1 0 0 0 0 0 1 0 0 0 0 0 1 0 0 0 0 0 1 0 "
         result="result10"
         id="feColorMatrix7186" />
      <feBlend
         in="result10"
         mode="normal"
         in2="result6"
         id="feBlend7188" />
    </filter>
    <filter
       inkscape:collect="always"
       style="color-interpolation-filters:sRGB"
       id="filter8241"
       x="-0.05249463"
       y="-0.022457188"
       width="1.1072997"
       height="1.0427939">
      <feGaussianBlur
         inkscape:collect="always"
         stdDeviation="0.80327352"
         id="feGaussianBlur8243" />
    </filter>
    <filter
       inkscape:collect="always"
       style="color-interpolation-filters:sRGB"
       id="filter8366"
       x="-0.076191425"
       y="-0.035388384"
       width="1.1466431"
       height="1.0693733">
      <feGaussianBlur
         inkscape:collect="always"
         stdDeviation="0.57813208"
         id="feGaussianBlur8368" />
    </filter>
    <filter
       inkscape:collect="always"
       style="color-interpolation-filters:sRGB"
       id="filter9889"
       x="-0.044066352"
       y="-0.076169848"
       width="1.0881327"
       height="1.1523397">
      <feGaussianBlur
         inkscape:collect="always"
         stdDeviation="7.6625334"
         id="feGaussianBlur9891" />
    </filter>
  </defs>
  <g
     inkscape:label="Layer 1"
     inkscape:groupmode="layer"
     id="layer1"
     transform="translate(136.67434,22.622641)">
    <g
       id="g9437"
       transform="matrix(1.0696178,0,0,1.1354845,419.22742,-384.85777)"
       style="opacity:0.645089;fill:#00ff00;filter:url(#filter9889)">
      <path
         style="fill:#00ff00;stroke-width:0.426039;stroke-linejoin:round;paint-order:markers fill stroke"
         d="m -454.48706,244.99479 c 0.24444,-0.59804 3.33604,-10.17434 6.87027,-21.28068 l 6.4258,-20.19333 0.78017,-13.35867 c 0.69555,-11.91009 0.58104,-15.11045 -1.05596,-29.51335 -1.00982,-8.88506 -2.45784,-24.40286 -3.21774,-34.484 l -1.38166,-18.32934 2.01727,-15.462722 2.01723,-15.462725 -3.47824,-16.53595 -3.47825,-16.53596 -8.70613,-19.43687 c -4.78835,-10.69029 -8.52398,-19.5763301 -8.30138,-19.7467801 0.22263,-0.17045 10.08262,2.60102 21.91114,6.1588301 l 21.50641,6.46872 25.23192,-1.86235 25.23197,-1.86235 19.303,2.48701 19.30303,2.48701 25.96686,-0.60764 25.96687,-0.60764 15.63138,2.46946 15.63138,2.46947 25.75331,-2.48498 25.75332,-2.48498 19.47515,1.22951 19.47515,1.22951 30.83567,-1.51141 30.835648,-1.5114 24.55917,-5.64165 c 13.50755,-3.1029101 24.72976,-5.5110301 24.93824,-5.3514001 0.20849,0.15964 -3.70302,7.5414801 -8.69225,16.4040901 l -9.07131,16.11384 -2.58559,14.60134 -2.58558,14.60134 4.45763,15.222667 4.45763,15.222668 -0.42897,11.494682 c -0.38394,10.28754 -0.73882,12.53867 -3.37929,21.436 -1.62266,5.46773 -4.91752,14.6189 -7.32192,20.33593 -2.40439,5.71702 -5.16412,13.12642 -6.13274,16.46533 l -1.7611,6.07075 5.01922,13.048 5.01923,13.048 0.46855,12.96436 0.46857,12.96438 -1.73099,-0.42069 c -0.95205,-0.23135 -8.67736,-2.90803 -17.16733,-5.94818 l -15.436338,-5.52752 -6.21222,1.21656 c -5.86061,1.14769 -9.72258,2.40942 -18.01187,5.8846 -1.94672,0.81613 -8.44228,2.37035 -14.4346,3.45379 l -10.89508,1.96988 -12.7495,-4.24231 c -14.94869,-4.97405 -13.4499,-4.87543 -37.49916,-2.46742 -14.82484,1.48439 -17.8271,1.99139 -27.5898,4.65899 -16.20704,4.42847 -16.9174,4.56986 -21.06965,4.19331 -2.09301,-0.18982 -9.93674,-1.89498 -17.43051,-3.78926 -10.70937,-2.70714 -17.316,-4.90347 -30.873,-10.26353 l -17.24795,-6.81936 -16.94069,3.61573 c -13.03976,2.78312 -19.90036,4.65087 -29.79367,8.11112 l -12.85299,4.4954 -11.57462,-1.66457 c -6.36605,-0.91551 -16.45713,-2.74693 -22.42459,-4.0698 -5.96745,-1.32287 -11.04207,-2.19222 -11.27682,-1.93188 -2.25266,2.4978 -30.26804,29.90575 -30.56856,29.90575 -0.21869,0 -0.19762,-0.48929 0.0469,-1.08733 z"
         id="path9411" />
      <path
         style="opacity:1;mix-blend-mode:normal;fill:#00ff00;stroke:#000000;stroke-width:0.565;stroke-linecap:butt;stroke-linejoin:miter;stroke-miterlimit:4;stroke-dasharray:none;stroke-opacity:1;filter:url(#filter8241)"
         d="m -307.64173,262.90443 17.39734,16.15467 4.97067,35.41601 18.01867,11.18399 -0.62133,32.30935"
         id="path9413"
         transform="rotate(-96.201228,-386.86643,291.35165)" />
      <path
         style="opacity:1;mix-blend-mode:normal;fill:#00ff00;stroke:#000000;stroke-width:0.565;stroke-linecap:butt;stroke-linejoin:miter;stroke-miterlimit:4;stroke-dasharray:none;stroke-opacity:1;filter:url(#filter8241)"
         d="m -310.12707,276.57376 17.39734,16.15467 4.97067,35.41601 18.01867,11.18399 -0.62133,32.30936"
         id="path9415"
         transform="matrix(0.15617023,-0.98773016,-0.98773016,-0.15617023,166.97045,-36.779323)" />
      <path
         style="opacity:1;mix-blend-mode:normal;fill:#00ff00;stroke:#000000;stroke-width:0.565;stroke-linecap:butt;stroke-linejoin:miter;stroke-miterlimit:4;stroke-dasharray:none;stroke-opacity:1;filter:url(#filter8241)"
         d="m -91.417685,274.70976 17.39734,16.15467 4.97067,35.41601 18.01867,11.18399 -0.62133,32.30936"
         id="path9417"
         transform="matrix(1.5112737,0,0,0.28230638,-255.432,61.472362)" />
      <path
         style="opacity:1;mix-blend-mode:normal;fill:#00ff00;stroke:#000000;stroke-width:0.565;stroke-linecap:butt;stroke-linejoin:miter;stroke-miterlimit:4;stroke-dasharray:none;stroke-opacity:1;filter:url(#filter8241)"
         d="m -91.417685,274.70976 17.39734,16.15467 4.97067,35.41601 18.01867,11.18399 -0.62133,32.30936"
         id="path9419"
         transform="matrix(1.5112737,0,0,0.28230638,-290.01301,-18.641005)" />
      <path
         style="opacity:1;mix-blend-mode:normal;fill:#00ff00;stroke:#000000;stroke-width:0.565;stroke-linecap:butt;stroke-linejoin:miter;stroke-miterlimit:4;stroke-dasharray:none;stroke-opacity:1;filter:url(#filter8241)"
         d="m -198.80509,17.284973 17.39734,16.15467 4.97067,35.41601 18.01867,11.18399 -0.62133,32.309357"
         id="path9421" />
      <path
         style="fill:#00ff00;stroke:#000000;stroke-width:0.264583px;stroke-linecap:butt;stroke-linejoin:miter;stroke-opacity:1;filter:url(#filter8366)"
         d="m -221.27636,297.07777 -21.12534,24.85334 13.04801,4.97068 2.48531,11.80533"
         id="path9423"
         transform="rotate(-112.56596,-279.37549,224.06984)" />
      <path
         style="fill:#00ff00;stroke:#000000;stroke-width:0.264583px;stroke-linecap:butt;stroke-linejoin:miter;stroke-opacity:1;filter:url(#filter8366)"
         d="m -221.27636,297.07777 -21.12534,24.85334 13.04801,4.97068 -23.63896,32.5729"
         id="path9425"
         transform="rotate(-112.56596,-251.79709,183.94669)"
         sodipodi:nodetypes="cccc" />
      <path
         style="fill:#00ff00;stroke:#000000;stroke-width:0.264583px;stroke-linecap:butt;stroke-linejoin:miter;stroke-opacity:1;filter:url(#filter8366)"
         d="m -221.27636,297.07777 -21.12534,24.85334 13.04801,4.97068 -23.63896,32.5729"
         id="path9427"
         transform="rotate(-158.96422,-314.293,205.04049)"
         sodipodi:nodetypes="cccc" />
      <path
         style="fill:#00ff00;stroke:#000000;stroke-width:0.264583px;stroke-linecap:butt;stroke-linejoin:miter;stroke-opacity:1;filter:url(#filter8366)"
         d="m -221.27636,297.07777 -21.12534,24.85334 13.04801,4.97068 2.48531,11.80533"
         id="path9429"
         transform="rotate(-112.56596,-344.18166,188.30344)" />
      <path
         style="fill:#00ff00;stroke:#000000;stroke-width:0.264583px;stroke-linecap:butt;stroke-linejoin:miter;stroke-opacity:1;filter:url(#filter8366)"
         d="m -313.50996,165.99102 -21.12534,24.85334 13.04801,4.97068 2.48531,11.80533"
         id="path9431" />
      <path
         style="fill:#00ff00;stroke:#000000;stroke-width:0.264583px;stroke-linecap:butt;stroke-linejoin:miter;stroke-opacity:1;filter:url(#filter8366)"
         d="m -234.25253,142.40232 -21.12534,24.85334 13.04801,4.97068 2.48531,11.80533"
         id="path9433" />
      <path
         style="mix-blend-mode:normal;fill:#00ff00;stroke:#000000;stroke-width:0.264583px;stroke-linecap:butt;stroke-linejoin:miter;stroke-opacity:1;filter:url(#filter8366)"
         d="m -422.57813,17.281963 -21.12534,24.85334 13.04801,4.97068 2.48531,11.80533"
         id="path9435" />
    </g>
    <g
       id="g8692"
       transform="translate(-90.231793,-284.08155)"
       style="fill:#000000">
      <path
         style="fill:#000000;stroke-width:0.426039;stroke-linejoin:round;paint-order:markers fill stroke"
         d="m -454.48706,244.99479 c 0.24444,-0.59804 3.33604,-10.17434 6.87027,-21.28068 l 6.4258,-20.19333 0.78017,-13.35867 c 0.69555,-11.91009 0.58104,-15.11045 -1.05596,-29.51335 -1.00982,-8.88506 10.68454,-32.05436 4.69054,-40.19554 l -9.28994,-12.6178 2.01727,-15.462722 5.97137,-18.538169 -7.43238,-13.460506 1.80645,-18.23872 -13.99083,-17.73411 c -4.78835,-10.69029 -8.52398,-19.5763301 -8.30138,-19.7467801 0.22263,-0.17045 10.08262,2.60102 21.91114,6.1588301 l 21.50641,6.46872 25.23192,-1.86235 25.23197,-1.86235 19.303,2.48701 19.30303,2.48701 25.96686,-0.60764 25.96687,-0.60764 15.63138,2.46946 35.7316,13.233523 5.65309,-13.249033 25.75332,-2.48498 19.47515,1.22951 19.47515,1.22951 30.83567,-1.51141 30.835648,-1.5114 24.55917,-5.64165 c 13.50755,-3.1029101 24.72976,-5.5110301 24.93824,-5.3514001 0.20849,0.15964 -3.70302,7.5414801 -8.69225,16.4040901 l -9.07131,16.11384 -2.58559,14.60134 -2.58558,14.60134 4.45763,15.222667 4.45763,15.222668 -8.337254,13.691432 c -5.354265,8.79276 7.169464,10.34192 4.528994,19.23925 -1.62266,5.46773 -4.91752,14.6189 -7.32192,20.33593 -2.40439,5.71702 -5.16412,13.12642 -6.13274,16.46533 l -1.7611,6.07075 5.01922,13.048 5.01923,13.048 0.46855,12.96436 10.793274,26.80388 -12.055694,-14.26019 c 0,0 -8.67736,-2.90803 -17.16733,-5.94818 l -15.436338,-5.52752 -6.21222,1.21656 c -5.86061,1.14769 -9.72258,2.40942 -18.01187,5.8846 -1.94672,0.81613 -8.44228,2.37035 -14.4346,3.45379 l -10.89508,1.96988 -12.7495,-4.24231 c -14.94869,-4.97405 -13.4499,-4.87543 -37.49916,-2.46742 -14.82484,1.48439 -23.4191,-5.46461 -33.1818,-2.79701 -16.20704,4.42847 -11.3254,12.02586 -15.47765,11.64931 -2.09301,-0.18982 -9.93674,-1.89498 -17.43051,-3.78926 -10.70937,-2.70714 -17.316,-4.90347 -30.873,-10.26353 l -17.24795,-6.81936 -16.94069,3.61573 c -13.03976,2.78312 -19.90036,4.65087 -29.79367,8.11112 l -12.85299,4.4954 -11.57462,-1.66457 c -6.36605,-0.91551 -16.45713,-2.74693 -22.42459,-4.0698 -5.96745,-1.32287 -11.04207,-2.19222 -11.27682,-1.93188 -2.25266,2.4978 -30.26804,29.90575 -30.56856,29.90575 -0.21869,0 -0.19762,-0.48929 0.0469,-1.08733 z"
         id="path7588"
         sodipodi:nodetypes="sccssscccccccccccccccccccccccssscccccsssscccccsscssscsssssscsscsscsss" />
      <path
         style="opacity:1;mix-blend-mode:normal;fill:#000000;stroke:#000000;stroke-width:0.565;stroke-linecap:butt;stroke-linejoin:miter;stroke-miterlimit:4;stroke-dasharray:none;stroke-opacity:1;filter:url(#filter8241)"
         d="m -307.64173,262.90443 17.39734,16.15467 4.97067,35.41601 18.01867,11.18399 -0.62133,32.30935"
         id="path8245"
         transform="rotate(-96.201228,-386.86643,291.35165)" />
      <path
         style="opacity:1;mix-blend-mode:normal;fill:#000000;stroke:#000000;stroke-width:0.565;stroke-linecap:butt;stroke-linejoin:miter;stroke-miterlimit:4;stroke-dasharray:none;stroke-opacity:1;filter:url(#filter8241)"
         d="m -310.12707,276.57376 17.39734,16.15467 4.97067,35.41601 18.01867,11.18399 -0.62133,32.30936"
         id="path8247"
         transform="matrix(0.15617023,-0.98773016,-0.98773016,-0.15617023,166.97045,-36.779323)" />
      <path
         style="opacity:1;mix-blend-mode:normal;fill:#000000;stroke:#000000;stroke-width:0.565;stroke-linecap:butt;stroke-linejoin:miter;stroke-miterlimit:4;stroke-dasharray:none;stroke-opacity:1;filter:url(#filter8241)"
         d="m -91.417685,274.70976 17.39734,16.15467 4.97067,35.41601 18.01867,11.18399 -0.62133,32.30936"
         id="path8597"
         transform="matrix(1.5112737,0,0,0.28230638,-255.432,61.472362)" />
      <path
         style="opacity:1;mix-blend-mode:normal;fill:#000000;stroke:#000000;stroke-width:0.565;stroke-linecap:butt;stroke-linejoin:miter;stroke-miterlimit:4;stroke-dasharray:none;stroke-opacity:1;filter:url(#filter8241)"
         d="m -91.417685,274.70976 17.39734,16.15467 4.97067,35.41601 18.01867,11.18399 -0.62133,32.30936"
         id="path8249"
         transform="matrix(1.5112737,0,0,0.28230638,-290.01301,-18.641005)" />
      <path
         style="opacity:1;mix-blend-mode:normal;fill:#000000;stroke:#000000;stroke-width:0.565;stroke-linecap:butt;stroke-linejoin:miter;stroke-miterlimit:4;stroke-dasharray:none;stroke-opacity:1;filter:url(#filter8241)"
         d="m -198.80509,17.284973 17.39734,16.15467 4.97067,35.41601 18.01867,11.18399 -0.62133,32.309357"
         id="path7871" />
      <path
         style="fill:#000000;stroke:#000000;stroke-width:0.264583px;stroke-linecap:butt;stroke-linejoin:miter;stroke-opacity:1;filter:url(#filter8366)"
         d="m -221.27636,297.07777 -21.12534,24.85334 13.04801,4.97068 2.48531,11.80533"
         id="path8378"
         transform="rotate(-112.56596,-279.37549,224.06984)" />
      <path
         style="fill:#000000;stroke:#000000;stroke-width:0.264583px;stroke-linecap:butt;stroke-linejoin:miter;stroke-opacity:1;filter:url(#filter8366)"
         d="m -221.27636,297.07777 -21.12534,24.85334 13.04801,4.97068 -23.63896,32.5729"
         id="path8595"
         transform="rotate(-112.56596,-251.79709,183.94669)"
         sodipodi:nodetypes="cccc" />
      <path
         style="fill:#000000;stroke:#000000;stroke-width:0.264583px;stroke-linecap:butt;stroke-linejoin:miter;stroke-opacity:1;filter:url(#filter8366)"
         d="m -221.27636,297.07777 -21.12534,24.85334 13.04801,4.97068 -23.63896,32.5729"
         id="path8380"
         transform="rotate(-158.96422,-314.293,205.04049)"
         sodipodi:nodetypes="cccc" />
      <path
         style="fill:#000000;stroke:#000000;stroke-width:0.264583px;stroke-linecap:butt;stroke-linejoin:miter;stroke-opacity:1;filter:url(#filter8366)"
         d="m -221.27636,297.07777 -21.12534,24.85334 13.04801,4.97068 2.48531,11.80533"
         id="path8370"
         transform="rotate(-112.56596,-344.18166,188.30344)" />
      <path
         style="fill:#000000;stroke:#000000;stroke-width:0.264583px;stroke-linecap:butt;stroke-linejoin:miter;stroke-opacity:1;filter:url(#filter8366)"
         d="m -313.50996,165.99102 -21.12534,24.85334 13.04801,4.97068 2.48531,11.80533"
         id="path8372" />
      <path
         style="fill:#000000;stroke:#000000;stroke-width:0.264583px;stroke-linecap:butt;stroke-linejoin:miter;stroke-opacity:1;filter:url(#filter8366)"
         d="m -234.25253,142.40232 -21.12534,24.85334 13.04801,4.97068 2.48531,11.80533"
         id="path8374" />
      <path
         style="mix-blend-mode:normal;fill:#000000;stroke:#000000;stroke-width:0.264583px;stroke-linecap:butt;stroke-linejoin:miter;stroke-opacity:1;filter:url(#filter8366)"
         d="m -422.57813,17.281963 -21.12534,24.85334 13.04801,4.97068 2.48531,11.80533"
         id="path8284" />
    </g>
    <g
       id="g12776"
       transform="matrix(2.0969121,0,0,2.0969121,-492.35843,301.84156)"
       style="filter:url(#filter1418)">
      <g
         id="g11962"
         style="fill:none">
        <g
           id="g6134"
           style="fill:none">
          <g
             id="g6002"
             style="fill:none">
            <path
               style="fill:none;stroke:#000000;stroke-width:0.264583px;stroke-linecap:butt;stroke-linejoin:miter;stroke-opacity:1"
               d="m 263.13472,-113.70402 v 8.854 l 1.631,1.47566 1.00968,1.12617 -0.58251,1.00967 -0.50484,0.73783 -0.15533,9.63067 0.91153,1.937764 0.1287,1.388579 -1.19556,2.73166 0.15533,1.398 0.60191,0.815499 -0.0776,1.533918 -0.83493,0.601917 0.42211,1.132829 0.97588,2.129172 v 3.883334 l 0.62134,2.174666 0.31068,10.562669 1.79186,3.326341 1.52505,-0.42212 -0.76886,-8.687628 0.63856,-1.531534 0.85204,-11.325063 3.10666,-2.951334 0.15534,-3.106666 h 10.25202 l 1.06791,1.067916 1.16499,0.349499 1.02909,-0.485415 1.86399,1.087332 1.39801,0.310668 2.33,1.398 -0.15534,0.932 2.17466,0.155334 2.33,2.951332 -0.31064,2.951335 -2.01936,1.398 -0.93199,3.262 -1.08733,0.776669 -3.88334,4.194 -0.62133,0.932 -1.24266,0.466 0.15533,2.019334 -2.95134,0.776666 v 0 l -5.592,0.466 -1.08733,1.553335 -3.10666,1.087334 -2.01935,1.242666 -1.08733,0.932 -2.48534,-0.621334 -3.262,1.087334 -2.32999,0.155334 -0.932,-1.398 -4.34934,0.932 1.55334,1.242666 5.90266,1.087334 9.94135,0.310666 3.26199,-2.485334 4.97067,0.155334 1.24267,-1.864 8.38801,-4.970669 2.01933,-1.242666 2.33,-2.485334 0.70452,-3.307498 3.80014,-4.459169 1.08733,-0.621334 -0.46598,-1.864 2.17466,-3.106669 0.46598,-3.262 -3.88331,-3.106666 -1.67098,-0.312286 -0.9697,-1.551717 -0.62134,-1.087332 -3.55381,-0.897544 -1.2615,-0.966456 -1.39801,-1.708668 -2.64067,-0.466 -3.88335,-0.776666 -0.15533,-2.019335 2.95134,-1.708665 1.24267,-2.174669 2.48534,-2.640665 0.77666,-2.64067 1.08733,-0.62133 0.15534,-2.48534 1.86399,-2.01933 -4.19398,-4.11633 -1.47568,-0.85433 -1.47568,-0.77667 -1.81769,-0.7414 -1.44431,-0.34594 -1.70865,-1.55333 -7.14534,0.15533 -1.86401,-1.24267 -2.48531,1.24267 -0.46601,1.24267 -1.24267,-0.15533 -0.62132,-2.33001 -6.52402,0.77667 -1.08733,1.55334 -5.28134,-0.31067 -0.62133,1.08733 z"
               id="path5916"
               sodipodi:nodetypes="ccccccccccccccccccccccccccccccccccccccccccccccccccccccccccccccccccccccccccccccccccccccccccccccccccccccccc" />
            <path
               style="fill:none;stroke:#000000;stroke-width:0.264583px;stroke-linecap:butt;stroke-linejoin:miter;stroke-opacity:1"
               d="m 280.37673,-107.95669 v 0 l 2.48534,0.31067 1.39798,1.398 -0.932,2.48533 -1.99266,1.36973 -0.64961,3.233737 -0.9304,1.609868 -1.70866,0.932002 v 0 l -1.70867,3.262001 -0.62132,1.864 -2.17466,-0.466 -0.66019,-4.582336 -0.42714,-1.164999 v -7.922003 l 3.72798,-4.97067 2.33,-0.31066 0.31068,3.262 z"
               id="path5918"
               sodipodi:nodetypes="cccccccccccccccccccc" />
          </g>
          <path
             style="fill:none;stroke:#000000;stroke-width:0.264583px;stroke-linecap:butt;stroke-linejoin:miter;stroke-opacity:1"
             d="m 345.92741,-64.929347 0.46599,6.524 1.08735,6.213335 0.23299,1.398 0.69901,1.398 -0.31068,2.330003 4.03868,-0.155334 -0.62134,-11.805335 -0.932,0.388333 0.15534,-11.417003 1.398,-0.466 -0.62134,-10.718003 4.34932,-6.524001 -1.24267,-1.242668 -1.55331,2.174669 h -2.79601 l -1.70866,1.242665 -2.01935,-0.155331 -2.33,-1.242669 -2.01932,-0.310666 -1.55335,-1.864 -0.62132,1.242666 0.15534,2.174669 3.57267,3.572666 0.93199,1.864 0.77666,1.398 v 7.300669 l -2.01933,0.621334 -0.93199,0.932 -3.88334,-2.485334 -5.43666,0.310666 -0.77669,-1.398 -1.86399,0.155334 v 0 l -2.48533,-1.242669 -1.86399,-1.708665 v 0 l -2.79601,-3.417335 -1.39801,-0.621332 -3.41733,-3.728002 -0.46598,-3.262001 -1.86402,-1.009667 0.31069,-5.902668 1.55333,-1.165 0.31064,-2.33 1.39801,-2.795999 6.21334,-9.16467 8.07733,-0.466 0.69901,-1.70867 1.78633,0.699 1.08733,1.631 5.12601,0.932 3.10666,0.62134 0.31067,1.55333 1.70866,2.33 1.55334,1.55333 0.77666,2.17467 -0.77666,3.883335 -0.932,5.902669 1.39798,0.310666 1.24267,-2.174666 1.08733,-4.970669 1.70868,-5.436665 -0.62134,-3.10667 -0.932,0.62133 0.15534,-5.28133 -3.10666,-6.524 -2.64067,-0.62133 -1.39801,0.932 -1.398,0.932 -0.46599,-1.398 -2.79601,-0.15534 v 2.17467 0 l -2.01933,-2.01933 h -10.87334 l -0.46598,-1.24267 -5.59203,3.10667 -4.50466,4.194 -0.0369,3.62677 -1.82711,0.72256 -0.77668,1.55333 -1.24264,2.33 -1.55335,1.55334 -0.93199,2.019333 -1.55334,2.485332 0.46601,2.174669 -1.24267,1.398 -0.46601,9.164669 0.62135,1.242666 h 1.70865 l 2.20295,3.341953 2.05378,1.840583 0.86928,0.875464 2.33,0.310669 8.23267,8.854 5.74733,0.155335 0.46598,1.242666 h 6.21335 l 2.79601,1.553334 h 1.398 l 1.70866,-2.33 z"
             id="path6037"
             sodipodi:nodetypes="ccccccccccccccccccccccccccccccccccccccccccccccccccccccccccccccccccccccccccccccccccccccccccccccccccccccc" />
          <g
             id="g6125"
             style="fill:none">
            <path
               style="fill:none;stroke:#000000;stroke-width:0.264583px;stroke-linecap:butt;stroke-linejoin:miter;stroke-opacity:1"
               d="m 215.29205,-115.41269 -1.55334,-2.33 -0.31066,-2.796 6.058,0.15533 -0.62134,-1.24267 6.67934,-0.15533 4.194,-1.08733 4.34933,-1.398 h 3.88334 l 2.48533,2.48533 0.15533,1.08733 2.796,0.31067 -0.31066,-1.55333 1.864,-0.62134 5.28133,4.34934 2.17467,1.08733 0.466,2.01934 1.864,2.17466 -0.31067,3.88334 -0.79389,0.20244 -0.13811,1.97222 -0.99472,0.97831 -0.86928,0.88569 -0.94841,0.60491 -0.60493,2.65709 -6.524,6.368674 -0.15534,2.485334 1.70867,0.310666 6.21334,4.349334 1.03079,2.022566 0.67787,8.695435 -0.31066,1.242669 -0.54757,1.230287 -0.38443,9.332382 -0.26437,0.651217 -0.35697,7.426118 -0.33731,0.806551 -1.50004,7.702325 -0.80331,-1.518876 -0.77667,-11.494669 h 0.77667 l -0.13811,-4.33991 -1.41523,-2.028759 0.8394,-5.025585 -2.2374,-2.430415 -0.15533,-2.330001 0.27136,-1.616058 -2.2907,-0.713942 -3.41733,-3.728 -5.28133,0.155332 -4.97067,-2.485332 -4.97067,-0.776669 h -0.77667 v 4.349335 l -0.49265,1.291396 -0.90535,7.562604 -0.44715,1.409042 -0.48485,3.250962 0.31848,2.39434 0.76886,5.682994 -0.62134,2.330001 -0.50368,10.29131 -0.58365,-1.43731 -1.20821,-8.53391 -0.18979,-1.252091 -0.90697,-5.362904 -0.3357,-2.559099 0.466,-10.873335 -0.83939,-2.202934 0.2291,-2.356651 0.61029,-1.65375 v -2.019334 l -0.932,-0.621332 0.15534,-9.475334 -1.70867,-2.174669 0.79389,-1.653745 0.14592,-1.864 -1.56114,-0.98692 -0.15534,-1.08734 0.58365,-1.17994 -0.42831,-1.15006 v 0 z"
               id="path6039"
               sodipodi:nodetypes="ccccccccccccccccccccccccccccccccccccccccccccccccccccccccccccccccccccccccccccccccccc" />
            <path
               style="fill:none;stroke:#000000;stroke-width:0.264583px;stroke-linecap:butt;stroke-linejoin:miter;stroke-opacity:1"
               d="m 224.30138,-111.68469 -0.77667,13.203335 c 0,0 1.398,-0.466 1.55334,0.776668 0.15533,1.242666 0.466,2.951332 0.466,2.951332 l 3.10667,-1.087331 4.34933,-0.466 1.864,-0.466 1.70867,-0.621335 1.55333,-3.106669 2.01933,-1.24267 0.9242,-2.40214 3.42514,-1.79186 0.466,-2.48533 -2.01934,-1.398 -0.77666,-1.398 -5.4994,-0.53976 -0.71394,-1.16891 -3.10666,-0.31066 -1.08734,1.398 -1.24266,-1.70867 v 0 l -0.932,-0.466 -0.59469,1.92673 -1.53449,0.38362 -0.97749,-0.60168 -0.932,-0.466 z"
               id="path6041"
               sodipodi:nodetypes="ccscccccccccccccccccccccccc" />
          </g>
        </g>
      </g>
      <path
         style="fill:#00ff00;fill-opacity:1;stroke:#00a400;stroke-width:2.93543;stroke-miterlimit:4;stroke-dasharray:none;stroke-opacity:1;paint-order:markers fill stroke"
         d="m 940.92177,-190.35937 c -0.7318,-1.46626 -1.2706,-6.80065 -2.31298,-22.89989 l -1.35893,-20.98835 h 1.38031 1.38031 l -0.18907,-8.66388 -0.18907,-8.66388 -2.66387,-3.81171 -2.66388,-3.81172 1.31124,-7.92567 c 0.72117,-4.35912 1.45031,-8.64882 1.62029,-9.53267 0.26442,-1.37486 -0.32465,-2.28463 -4.07791,-6.298 l -4.38698,-4.69101 -0.10466,-3.68247 c -0.14319,-5.03776 -0.14236,-5.05813 0.34354,-8.42353 l 0.43022,-2.9798 -4.38254,-1.2734 -4.38255,-1.27341 -6.37279,-7.032 -6.3728,-7.03202 -10.56756,0.10116 -10.56756,0.10115 -9.09456,-4.59504 c -8.96344,-4.52881 -9.21737,-4.61501 -17.6126,-5.97922 -4.68492,-0.76129 -9.77294,-1.38822 -11.30671,-1.39318 l -2.78866,-0.009 v 8.16698 c 0,6.6143 -0.21653,8.76288 -1.13896,11.30142 -0.70542,1.94132 -1.72139,8.27435 -2.66905,16.63744 -0.84154,7.42665 -1.91793,14.68397 -2.39196,16.12738 -0.47404,1.44341 -1.30263,5.67043 -1.84132,9.39339 l -0.97943,6.769 2.04488,15.08157 2.04489,15.08157 -1.0636,3.70521 c -0.93935,3.27234 -2.67055,26.32358 -2.81354,37.46269 -0.0681,5.30927 -1.06448,0.73387 -3.19607,-14.67717 -1.18354,-8.55679 -3.34602,-22.6909 -4.80553,-31.40914 -1.4595,-8.71824 -2.66739,-17.83276 -2.68419,-20.25449 -0.0168,-2.42173 0.30856,-12.61213 0.723,-22.64533 l 0.75355,-18.24217 -1.58264,-4.14171 c -1.38737,-3.6307 -1.53383,-4.63958 -1.18704,-8.17674 0.21759,-2.21926 0.88861,-5.35595 1.49117,-6.97044 0.71868,-1.92562 1.09566,-4.48381 1.09586,-7.43639 2.8e-4,-4.23378 -0.0955,-4.57078 -1.6142,-5.67709 l -1.61448,-1.17613 0.20992,-17.93732 0.20992,-17.93732 -3.06808,-3.85571 -3.06807,-3.85569 1.53721,-3.42536 c 1.10872,-2.47056 1.53721,-4.41063 1.53721,-6.96004 v -3.53468 l -2.90016,-1.86102 c -3.39583,-2.1791 -3.88573,-3.81083 -2.19549,-7.31259 1.04737,-2.1699 1.05694,-2.46816 0.16937,-5.28378 -0.63196,-2.00478 -1.19861,-7.8106 -1.72668,-17.69141 l -0.78603,-14.70734 -2.98301,-4.42063 c -2.7728,-4.10911 -3.01159,-4.74825 -3.38858,-9.06968 l -0.40556,-4.64904 11.55532,0.20984 11.55533,0.20983 -1.18856,-2.32975 -1.18855,-2.32975 12.44587,-0.30704 c 13.89884,-0.34288 16.0965,-0.77058 35.70326,-6.9483 8.64222,-2.723 9.53409,-2.88845 15.57076,-2.88845 h 6.40345 l 4.8305,4.85573 c 2.75477,2.76915 4.83437,5.35502 4.8395,6.01764 0.005,0.63905 0.24956,1.54212 0.54359,2.00681 0.53198,0.84076 5.07982,1.65121 9.8058,1.74745 l 2.43272,0.0495 -0.54974,-2.44673 c -0.7325,-3.26009 -0.47796,-3.70032 2.64516,-4.57474 l 2.66459,-0.74604 9.59085,7.92211 c 5.88161,4.85825 11.20909,8.73704 13.77504,10.02924 l 4.18419,2.10712 0.87263,3.82562 c 0.73672,3.22978 1.4116,4.45028 4.33314,7.83635 l 3.46051,4.01073 -0.42306,4.65817 c -0.23269,2.562 -0.44186,5.64889 -0.46483,6.85975 -0.0284,1.49715 -0.31013,2.20158 -0.88047,2.20158 -1.71407,0 -2.68383,1.78243 -2.68383,4.93295 0,3.07189 -0.0221,3.1088 -4.28005,7.14988 -2.35403,2.23413 -4.81624,4.48106 -5.4716,4.99318 -0.80438,0.62859 -1.52301,2.46526 -2.21166,5.6525 l -1.02011,4.72138 -12.39853,12.25364 -12.39852,12.25364 -0.26709,4.908 c -0.30037,5.51951 -0.2354,5.62537 3.82644,6.23448 2.04142,0.30613 4.98776,2.08031 14.3019,8.61209 15.72138,11.02504 14.91201,9.48987 16.66789,31.6144 1.34778,16.98245 1.29856,18.09718 -1.03718,23.48898 -0.66906,1.54447 -1.06115,6.38723 -1.56857,19.37386 -0.3721,9.52307 -0.91701,17.90685 -1.21092,18.63061 -0.29392,0.72378 -0.81214,7.4606 -1.15161,14.97072 -0.39042,8.63741 -0.92801,14.62552 -1.46304,16.29666 -0.46521,1.45304 -1.93576,8.32195 -3.2679,15.26426 -1.33214,6.9423 -2.48733,12.68999 -2.56709,12.77264 -0.0798,0.0827 -0.57434,-0.70991 -1.09907,-1.76126 z m -67.63023,-172.07525 c 8.50628,-0.9154 14.62763,-2.24411 19.22531,-4.17304 1.9186,-0.80494 2.56775,-1.65612 5.07809,-6.65856 2.72786,-5.43589 3.08814,-5.87273 6.89395,-8.35885 3.86984,-2.52794 4.07578,-2.78439 5.67072,-7.06144 l 1.65504,-4.43824 4.38744,-2.17096 c 8.67972,-4.29485 8.70964,-4.32508 9.57972,-9.68283 0.42138,-2.59477 0.58952,-5.00354 0.37366,-5.35283 -0.21587,-0.34928 -1.96071,-1.70001 -3.87742,-3.00162 -2.21024,-1.50095 -3.91177,-3.20326 -4.65189,-4.65401 -0.64184,-1.2581 -1.50046,-2.49356 -1.90807,-2.74547 -0.40761,-0.25192 -5.22244,-0.89343 -10.69962,-1.42558 -8.41783,-0.81786 -10.05291,-1.13384 -10.5687,-2.04241 -1.77849,-3.13281 -2.82789,-3.61434 -8.86281,-4.0668 l -5.81938,-0.4363 -1.91709,2.21776 c -1.0544,1.21976 -1.99822,2.10768 -2.09738,1.97314 -2.74735,-3.72753 -4.48479,-5.49437 -6.32726,-6.43433 l -2.26412,-1.15507 -0.96881,3.37886 c -1.21661,4.24313 -1.57046,4.67058 -4.23962,5.12154 -1.74734,0.29521 -2.80008,0.0199 -5.39676,-1.41119 -1.77427,-0.97787 -3.62224,-1.77558 -4.10658,-1.77269 -0.48435,0.003 -1.91491,0.96624 -3.17902,2.14079 l -2.29839,2.13554 -1.34872,22.35944 c -0.74179,12.2977 -1.3587,23.82549 -1.3709,25.61731 l -0.0222,3.25786 1.90803,-0.19376 c 1.04942,-0.10657 2.25146,0.0363 2.6712,0.31742 0.41975,0.28115 1.14203,2.86514 1.60508,5.7422 0.46304,2.87706 0.99609,5.94328 1.18455,6.81381 l 0.34264,1.58279 6.2715,-2.23738 c 5.10404,-1.82089 7.91081,-2.41381 15.0778,-3.1851 z"
         id="path12407"
         transform="scale(0.26458333)" />
      <path
         style="fill:#00ff00;fill-opacity:1;stroke:#00a400;stroke-width:2.93543;stroke-miterlimit:4;stroke-dasharray:none;stroke-opacity:1;paint-order:markers fill stroke"
         d="m 1022.118,-200.31762 c -15.2468,-0.47192 -17.7481,-0.70064 -28.18014,-2.57674 -9.25341,-1.66413 -11.87026,-2.34978 -13.64976,-3.57643 -1.21087,-0.83469 -2.20158,-1.68422 -2.20158,-1.88786 0,-0.34015 11.77624,-2.99483 13.27821,-2.99327 0.36071,3.8e-4 1.37623,1.08927 2.25671,2.41976 l 1.60087,2.41908 4.78829,-0.26397 c 3.2901,-0.18137 6.6616,-0.88233 10.775,-2.24019 l 5.9865,-1.97624 4.2875,1.00282 c 5.4024,1.26363 5.923,1.24989 7.2268,-0.19078 2.171,-2.39887 10.1433,-6.89455 15.5538,-8.77097 5.4536,-1.89133 6.7156,-2.75622 9.687,-6.63895 1.1373,-1.48609 1.5154,-1.56369 12.0352,-2.47028 6.867,-0.59179 12.6963,-1.43723 15.8514,-2.29899 l 4.9902,-1.36299 v -3.90008 -3.90009 l 2.0954,-0.83718 c 1.2807,-0.51168 3.0177,-2.05394 4.4677,-3.96664 1.3048,-1.7212 6.1926,-7.00739 10.8618,-11.74709 6.3668,-6.46289 8.6527,-9.17858 9.1423,-10.8611 0.359,-1.23391 1.0868,-3.76616 1.6172,-5.62721 0.88,-3.08765 1.2675,-3.58962 4.4289,-5.73643 1.9054,-1.29398 3.7049,-2.80947 3.9987,-3.36776 0.2938,-0.55829 0.7241,-3.45352 0.9561,-6.43384 l 0.4218,-5.41877 -4.2622,-5.34479 c -4.5457,-5.70019 -5.6293,-6.42051 -9.6581,-6.42051 -2.4575,0 -2.5743,-0.0798 -2.7505,-1.87846 -0.1619,-1.65289 -0.7351,-2.20864 -4.7735,-4.62799 -2.5242,-1.51224 -5.6163,-2.91372 -6.8713,-3.1144 -1.2549,-0.20068 -3.9217,-1.326 -5.926,-2.50072 -3.4076,-1.99715 -3.7748,-2.08865 -5.6541,-1.40909 -2.854,1.03203 -5.4808,0.34616 -7.787,-2.03324 l -1.9857,-2.0487 h -20.0659 -20.066 l -0.3669,1.83465 c -0.2018,1.00905 -0.3669,3.60149 -0.3669,5.76097 v 3.92633 l -5.9523,5.83399 -5.9523,5.83399 -1.6383,21.42968 c -1.3793,18.04393 -1.8323,21.88265 -2.8671,24.29664 l -1.2289,2.86695 1.1868,13.57046 c 0.6527,7.46375 1.3388,14.78822 1.5246,16.2766 l 0.3378,2.70615 -2.3066,0.58547 -2.3066,0.58547 -3.2234,-5.94875 -3.2235,-5.94875 -0.6294,-20.23925 c -0.5481,-17.62185 -0.7876,-20.77048 -1.8523,-24.34699 -0.9518,-3.19727 -1.2229,-5.71754 -1.2229,-11.37065 0,-7.21278 -0.016,-7.29891 -2.3483,-12.47826 -1.2916,-2.86845 -2.34837,-5.4488 -2.34837,-5.73412 0,-0.28532 0.66047,-0.95152 1.46767,-1.48045 1.2884,-0.84415 1.4678,-1.38087 1.4678,-4.39149 0,-2.50887 -0.3067,-3.81972 -1.1423,-4.88191 -1.90638,-2.42364 -1.65586,-5.94105 0.8278,-11.62216 1.9206,-4.39325 2.139,-5.36359 1.8255,-8.11104 -0.1959,-1.71643 -1.068,-4.49042 -1.9379,-6.16441 l -1.5817,-3.04361 0.1879,-18.17155 0.188,-18.17154 1.9905,-2.95574 c 1.0948,-1.62566 1.9905,-3.38368 1.9905,-3.90671 0,-0.52303 -2.2417,-3.16732 -4.9815,-5.87622 l -4.98143,-4.92526 -0.15554,-16.69095 -0.15554,-16.69095 -11.59488,-3.56602 c -6.37719,-1.96132 -11.59492,-3.84577 -11.59496,-4.18768 -5e-5,-0.34191 0.33015,-1.01937 0.73377,-1.50548 0.63416,-0.76375 2.04509,-0.80843 10.38497,-0.32886 l 9.6511,0.55497 1.21,-1.45006 c 0.6655,-0.79753 1.73838,-2.145 2.38418,-2.99436 1.1249,-1.47951 1.6506,-1.5984 12.52783,-2.83335 12.7946,-1.45265 11.9043,-1.67794 13.0515,3.30281 0.8059,3.49891 1.7837,4.40826 4.7404,4.40826 2.033,0 2.2968,-0.19837 3.3177,-2.49512 0.96,-2.15982 1.6702,-2.76504 5.2849,-4.50379 l 4.1757,-2.00869 3.3317,2.21207 3.3316,2.21206 13.6579,-0.2008 13.6578,-0.2008 3.1822,3.00957 c 2.4338,2.30173 3.7835,3.11116 5.7389,3.44152 3.2326,0.54614 9.5155,3.2073 15.5679,6.5939 3.6026,2.01581 6.5077,4.42316 12.4712,10.33416 l 7.7744,7.70616 -3.3011,3.33594 -3.3011,3.33593 -0.3638,4.71222 c -0.351,4.54799 -0.4338,4.75954 -2.3733,6.07001 -1.1052,0.74679 -2.2146,2.01827 -2.4652,2.82552 -0.2506,0.80724 -0.8936,3.01917 -1.4288,4.91539 -0.8235,2.91784 -1.6627,4.16658 -5.4604,8.12576 -2.4681,2.57295 -5.6762,6.66957 -7.1293,9.10358 -2.4867,4.16566 -2.952,4.60374 -7.9256,7.46173 l -5.2838,3.03625 -0.1729,3.23916 c -0.3195,5.9858 -0.4535,5.88678 10.8267,7.99978 5.4418,1.01937 10.8983,2.03038 12.1255,2.2467 1.7571,0.30974 2.7552,1.0416 4.6967,3.44404 4.3647,5.40095 6.9559,6.99676 14.2953,8.80394 l 6.5462,1.61186 2.9928,4.89763 c 3.0483,4.98841 3.3011,5.19101 7.3819,5.91661 1.7313,0.30785 4.1128,1.84413 9.2466,5.9651 7.6833,6.16739 7.3391,5.45909 6.241,12.84205 -0.6261,4.2096 -0.9632,4.94067 -4.7672,10.33697 -4.3427,6.16068 -4.2374,5.77248 -3.0693,11.30638 0.3277,1.55249 0.1408,1.89085 -1.5766,2.85444 -1.0716,0.60124 -5.1133,4.82634 -8.9816,9.38912 l -7.0331,8.29596 -1.3737,6.16867 c -0.7555,3.39277 -1.7163,6.69705 -2.1352,7.34285 -0.419,0.64579 -2.8443,3.1376 -5.3898,5.53735 -3.8551,3.63439 -7.717,6.19054 -23.1213,15.30348 -17.8367,10.55189 -18.5797,11.06341 -20.9268,14.40744 l -2.4335,3.46714 -9.4423,-0.18512 -9.4423,-0.1851 -6.1547,4.75119 c -3.385,2.61315 -6.627,4.70838 -7.2044,4.65607 -0.5775,-0.0523 -8.5793,-0.32817 -17.7819,-0.61301 z m 22.0479,-148.99899 c 0.7193,-2.09884 2.6437,-6.32586 4.2765,-9.39339 2.6796,-5.03403 3.297,-5.77749 6.3386,-7.63213 4.5387,-2.76759 6.3934,-6.0067 7.9838,-13.94325 l 1.2225,-6.10032 3.3063,-2.2453 c 1.8185,-1.23492 3.5881,-2.60332 3.9324,-3.0409 0.823,-1.04585 3.7298,-8.78675 3.7298,-9.93242 0,-0.491 -1.1492,-2.02064 -2.5539,-3.39922 -2.3321,-2.28881 -2.9313,-2.55956 -6.8983,-3.11729 -2.3894,-0.33593 -5.8414,-0.4582 -7.6713,-0.27172 l -3.327,0.33906 -0.3717,-4.53582 c -0.6431,-7.84818 -0.3039,-7.38816 -5.0991,-6.91566 -2.2771,0.22438 -4.5307,0.55781 -5.0079,0.74095 -0.4773,0.18314 -4.0168,4.51537 -7.8656,9.62718 l -6.9979,9.2942 v 15.85774 c 0,12.35868 0.1859,16.34615 0.8426,18.0712 0.4635,1.2174 1.2944,5.64792 1.8466,9.84559 0.5521,4.19767 1.2103,8.02841 1.4627,8.51276 0.4823,0.92569 5.7079,2.30694 8.1262,2.14796 1.1933,-0.0784 1.6235,-0.69571 2.7247,-3.90922 z"
         id="path12446"
         transform="scale(0.26458333)" />
      <path
         style="fill:#00ff00;fill-opacity:1;stroke:#00a400;stroke-width:2.93543;stroke-miterlimit:4;stroke-dasharray:none;stroke-opacity:1;paint-order:markers fill stroke"
         d="m 1317.1522,-182.92983 c 0.3367,-3.58653 0.2156,-4.50518 -0.876,-6.64481 -2.0461,-4.01068 -5.7984,-26.77261 -7.0377,-42.69161 l -1.0569,-13.57643 -2.8586,-4.77003 c -1.5722,-2.62351 -2.9935,-4.76132 -3.1584,-4.75067 -0.1648,0.0106 -1.8438,2.12415 -3.7309,4.69669 -4.2947,5.85442 -5.0069,5.95433 -12.493,1.75258 l -5.211,-2.92477 -11.8247,-0.0107 -11.8248,-0.0107 -0.905,-2.26191 c -0.8556,-2.13824 -1.0757,-2.28242 -4.0266,-2.63679 -1.7169,-0.20619 -6.6008,-0.37718 -10.8532,-0.37998 l -7.7316,-0.005 -11.5893,-12.47559 c -21.1212,-22.73655 -19.2335,-21.02735 -24.0025,-21.73234 -4.0641,-0.60076 -4.2214,-0.69119 -9.6986,-5.57277 -4.2158,-3.75734 -6.6052,-6.51497 -9.8413,-11.35794 l -4.2739,-6.39586 h -3.2094 c -3.1225,0 -3.2391,-0.0596 -4.3049,-2.20157 -1.042,-2.09428 -1.0589,-2.8597 -0.346,-15.70457 0.4122,-7.42665 0.7677,-15.02798 0.79,-16.89186 0.037,-3.13216 0.2246,-3.58858 2.4707,-6.02521 l 2.4301,-2.63635 -0.7471,-4.36753 -0.7471,-4.36752 2.6923,-4.31962 c 1.4807,-2.37579 3.474,-5.97267 4.4295,-7.99307 0.9555,-2.0204 3.1631,-5.17484 4.9058,-7.00986 2.1863,-2.3021 4.2947,-5.55076 6.8011,-10.47941 l 3.6326,-7.14302 3.5248,-1.36675 3.5247,-1.36675 v -6.85074 -6.85073 l 8.4409,-7.88978 c 7.9112,-7.39474 9.0479,-8.22672 18.1159,-13.25997 5.3212,-2.95361 9.951,-5.3702 10.2884,-5.3702 0.3374,0 0.8898,0.79256 1.2275,1.76126 l 0.614,1.76126 h 20.4475 20.4476 l 4.0781,4.1096 c 2.2429,2.26029 4.2833,4.10961 4.5341,4.10961 0.2509,0 0.4561,-2.00968 0.4561,-4.46596 0,-3.83118 0.132,-4.41531 0.9287,-4.10961 0.5107,0.196 2.603,0.35636 4.6495,0.35636 h 3.7208 l 0.985,2.96549 0.985,2.9655 1.5573,-1.00868 c 0.8565,-0.55477 3.2717,-2.15343 5.3671,-3.55258 4.1797,-2.7909 5.1059,-2.92475 10.1687,-1.46953 l 3.411,0.98043 5.6315,11.74173 5.6315,11.74174 -0.1436,10.81739 -0.1436,10.8174 1.5729,-1.03061 c 0.865,-0.56683 1.7118,-0.89165 1.8816,-0.72183 0.4391,0.43911 1.8925,7.41929 1.9171,9.20751 0.011,0.82324 -1.3119,5.71074 -2.9406,10.86111 -1.6287,5.15037 -3.9016,13.67736 -5.0509,18.94887 -1.6495,7.5657 -2.5406,10.37788 -4.2306,13.3508 -2.1519,3.78556 -3.3211,4.4987 -5.3106,3.23905 -0.9347,-0.59181 0.141,-8.59362 3.5809,-26.63709 l 1.879,-9.85607 -1.4353,-4.23401 c -1.1532,-3.40187 -2.1372,-4.98401 -5.0067,-8.05008 -6.0866,-6.50358 -8.9051,-10.6172 -9.362,-13.66417 -0.2257,-1.50503 -0.7119,-2.9782 -1.0804,-3.27371 -0.5366,-0.43024 -14.5741,-3.21889 -28.7462,-5.71061 -1.8737,-0.32943 -2.5804,-0.90092 -4.2802,-3.461 -1.7513,-2.63769 -2.5709,-3.27864 -5.8619,-4.58435 l -3.8258,-1.51794 -1.5108,3.48353 -1.5108,3.48352 -2.7119,0.0295 c -5.5895,0.0607 -26.9071,1.55812 -27.513,1.93256 -0.3467,0.2143 -5.807,8.03544 -12.1339,17.38031 -13.0049,19.2083 -16.9963,26.58113 -17.639,32.5826 -0.4079,3.80895 -0.4834,3.94853 -3.2549,6.01765 -3.3769,2.52113 -3.3176,2.27825 -3.852,15.7645 l -0.3966,10.00817 3.5924,1.91476 c 1.9759,1.05312 3.5972,2.2295 3.603,2.61419 0.01,0.38469 0.3839,3.15206 0.8402,6.14971 l 0.8298,5.45028 6.3515,6.95916 c 4.654,5.09914 7.0876,7.29102 9.1054,8.20081 2.1469,0.96799 3.8954,2.63237 7.9333,7.55152 7.2292,8.80692 11.3116,12.47501 17.1171,15.38003 4.3305,2.16694 5.32,2.439 8.4123,2.3128 l 3.5044,-0.14303 1.2895,2.3057 c 1.5612,2.7914 2.1956,2.8872 14.1581,2.13834 l 8.2015,-0.51341 7.6141,4.90106 7.614,4.90107 2.1506,-2.10005 c 1.4139,-1.38062 3.3368,-2.45206 5.6131,-3.12761 l 3.4625,-1.02757 0.157,-14.49708 0.157,-14.49708 -3.3219,-6.30985 c -2.8901,-5.48957 -4.1846,-7.18754 -9.9581,-13.06135 l -6.6361,-6.75149 -0.1473,-3.81607 c -0.09,-2.339 0.1555,-4.37074 0.635,-5.24911 l 0.7824,-1.43305 1.2403,1.44452 c 0.6822,0.79448 1.8143,2.17547 2.5158,3.06886 1.0172,1.29546 2.0275,1.74569 4.9902,2.2237 2.2698,0.36622 5.5237,1.53657 8.3652,3.00874 3.8655,2.00272 5.3752,2.45588 8.9449,2.68497 4.2897,0.2753 4.2982,0.27288 7.5065,-2.14942 3.2118,-2.42496 3.2121,-2.42503 8.5024,-2.42503 h 5.2904 l 2.4598,-3.37575 c 1.3529,-1.85667 2.5586,-3.4943 2.6793,-3.63919 0.1206,-0.14489 1.0019,0.51904 1.9582,1.47539 l 1.7388,1.73882 -8.0168,12.01637 -8.0168,12.01637 1.0109,19.09155 c 0.556,10.50036 1.099,19.54123 1.2066,20.09082 0.1413,0.7214 -0.4807,1.22395 -2.2371,1.80734 l -2.4328,0.80809 -0.3674,4.06353 c -0.4186,4.63029 -0.6472,40.75644 -0.2579,40.75644 0.1405,0 0.933,-0.25765 1.7613,-0.57255 1.482,-0.56348 1.5066,-0.52858 1.5461,2.20157 0.022,1.52578 0.5025,11.09609 1.0674,21.26737 0.5649,10.17127 1.0092,18.53519 0.9872,18.58647 -0.022,0.0513 -3.0288,0.18337 -6.6817,0.29354 l -6.6418,0.20031 z"
         id="path12485"
         transform="scale(0.26458333)" />
    </g>
    <g
       id="g7346"
       transform="matrix(0.28302288,0,0,0.28302288,222.74524,179.57642)"
       style="fill:#00ff00;stroke:#b3b3b3;filter:url(#filter5410)">
      <g
         id="g7338"
         transform="translate(80.773352,-46.289344)"
         style="fill:#00ff00;stroke:#b3b3b3">
        <path
           id="path7334"
           style="fill:#00ff00;stroke:#b3b3b3;stroke-width:0.148005;stroke-linejoin:round;paint-order:markers fill stroke"
           d="m 33.53672,31.226191 a 24.188417,49.817665 80.422632 0 0 -67.84246,0.753619 24.188417,49.817665 80.422632 0 0 -15.99979,35.701399 24.188417,49.817665 80.422632 0 0 67.84199,-0.75341 24.188417,49.817665 80.422632 0 0 16.00026,-35.701608 z m -9.587,3.993203 a 18.50988,38.487609 79.957166 0 1 -12.72097,27.456235 18.50988,38.487609 79.957166 0 1 -52.26386,0.79948 18.50988,38.487609 79.957166 0 1 12.72098,-27.456223 18.50988,38.487609 79.957166 0 1 52.26385,-0.799492 z" />
        <path
           id="path7336"
           style="fill:#00ff00;stroke:#b3b3b3;stroke-width:0.661489;stroke-linejoin:round;paint-order:markers fill stroke"
           d="m 258.58594,-68.589844 c -1.29625,-0.0047 -2.59681,0.0064 -3.9043,0.0332 -41.83997,0.858286 -85.88633,17.837059 -122.44922,47.201172 C 56.095162,39.792642 32.538561,136.8828 79.617188,195.50195 c 3.530116,4.3481 7.40596,8.40985 11.605468,12.16211 l 16.851564,-22.51172 c -2.38564,-2.30014 2.44066,-4.11737 0.36914,-6.68945 C 72.534408,133.7507 92.923289,50.57429 151.93555,3.1796875 210.94852,-44.215138 287.89874,-46.389878 323.80859,-1.6777344 335.72765,13.16319 342.20765,43.634585 342.61248,62.983119 l 35.21369,3.722418 c 5.38972,-34.710449 -1.57087,-66.59192151 -22.49023,-92.639131 -21.90158,-27.270053 -56.56633,-42.510959 -96.75,-42.65625 z m 78.46255,155.291019 c -7.74715,29.851085 -25.89528,54.962945 -55.07388,78.396485 -43.75703,35.13804 -96.83263,48.17232 -137.75195,30.36718 L 115.9375,224.4707 c 53.51029,26.78695 128.34684,13.3467 186.78125,-33.54492 32.83284,-26.3684 57.63861,-68.22881 69.46829,-101.997706 z"
           transform="scale(0.26458333)"
           sodipodi:nodetypes="scccccccccccsccccccc" />
      </g>
      <g
         id="g7344"
         transform="translate(-43.493343,4.3493343)"
         style="fill:#00ff00;stroke:#b3b3b3">
        <path
           id="path7340"
           style="fill:#00ff00;stroke:#b3b3b3;stroke-width:0.148005;stroke-linejoin:round;paint-order:markers fill stroke"
           d="m 33.53672,31.226191 a 24.188417,49.817665 80.422632 0 0 -67.84246,0.753619 24.188417,49.817665 80.422632 0 0 -15.99979,35.701399 24.188417,49.817665 80.422632 0 0 67.84199,-0.75341 24.188417,49.817665 80.422632 0 0 16.00026,-35.701608 z m -9.587,3.993203 a 18.50988,38.487609 79.957166 0 1 -12.72097,27.456235 18.50988,38.487609 79.957166 0 1 -52.26386,0.79948 18.50988,38.487609 79.957166 0 1 12.72098,-27.456223 18.50988,38.487609 79.957166 0 1 52.26385,-0.799492 z" />
        <path
           id="path7342"
           style="fill:#00ff00;stroke:#b3b3b3;stroke-width:0.661489;stroke-linejoin:round;paint-order:markers fill stroke"
           d="m 258.58594,-68.589844 c -1.29625,-0.0047 -2.59681,0.0064 -3.9043,0.0332 -41.83997,0.858286 -85.88633,17.837059 -122.44922,47.201172 C 56.095162,39.792642 32.538561,136.8828 79.617188,195.50195 c 3.530116,4.3481 7.40596,8.40985 11.605468,12.16211 l 16.851564,-22.51172 c -2.38564,-2.30014 2.44066,-4.11737 0.36914,-6.68945 C 72.534408,133.7507 92.923289,50.57429 151.93555,3.1796875 210.94852,-44.215138 287.89874,-46.389878 323.80859,-1.6777344 335.72765,13.16319 342.20765,43.634585 342.61248,62.983119 l 35.21369,3.722418 c 5.38972,-34.710449 -1.57087,-66.59192151 -22.49023,-92.639131 -21.90158,-27.270053 -56.56633,-42.510959 -96.75,-42.65625 z m 78.46255,155.291019 c -7.74715,29.851085 -25.89528,54.962945 -55.07388,78.396485 -43.75703,35.13804 -96.83263,48.17232 -137.75195,30.36718 L 115.9375,224.4707 c 53.51029,26.78695 128.34684,13.3467 186.78125,-33.54492 32.83284,-26.3684 57.63861,-68.22881 69.46829,-101.997706 z"
           transform="scale(0.26458333)"
           sodipodi:nodetypes="scccccccccccsccccccc" />
      </g>
    </g>
    <circle
       style="fill:#1a1a1a;stroke-width:0.15875;stroke-linejoin:round;paint-order:markers fill stroke;filter:url(#filter7190)"
       id="circle8790"
       cx="343.57452"
       cy="117.98205"
       r="5.2721896"
       transform="matrix(0.74563207,0,0,0.74563207,-56.232725,107.98127)" />
    <circle
       style="fill:#1a1a1a;stroke-width:0.15875;stroke-linejoin:round;paint-order:markers fill stroke;filter:url(#filter7190)"
       id="circle8792"
       cx="343.57452"
       cy="117.98205"
       r="5.2721896"
       transform="matrix(0.74563207,0,0,0.74563207,13.977957,84.370597)" />
    <g
       id="g8827"
       transform="matrix(0.50999833,0.69051502,-0.48686951,0.72331805,-31.957278,53.140325)">
      <g
         id="g8821"
         transform="matrix(0.22311593,-0.09807209,0.09807209,0.22311593,60.140859,69.75594)"
         style="fill:#00ff00;stroke:#b3b3b3;filter:url(#filter5410)">
        <g
           id="g8813"
           transform="translate(80.773352,-46.289344)"
           style="fill:#00ff00;stroke:#b3b3b3">
          <path
             id="path8809"
             style="fill:#00ff00;stroke:#b3b3b3;stroke-width:0.148005;stroke-linejoin:round;paint-order:markers fill stroke"
             d="m 33.53672,31.226191 a 24.188417,49.817665 80.422632 0 0 -67.84246,0.753619 24.188417,49.817665 80.422632 0 0 -15.99979,35.701399 24.188417,49.817665 80.422632 0 0 67.84199,-0.75341 24.188417,49.817665 80.422632 0 0 16.00026,-35.701608 z m -9.587,3.993203 a 18.50988,38.487609 79.957166 0 1 -12.72097,27.456235 18.50988,38.487609 79.957166 0 1 -52.26386,0.79948 18.50988,38.487609 79.957166 0 1 12.72098,-27.456223 18.50988,38.487609 79.957166 0 1 52.26385,-0.799492 z" />
          <path
             id="path8811"
             style="fill:#00ff00;stroke:#b3b3b3;stroke-width:0.661489;stroke-linejoin:round;paint-order:markers fill stroke"
             d="m 258.58594,-68.589844 c -1.29625,-0.0047 -2.59681,0.0064 -3.9043,0.0332 -41.83997,0.858286 -85.88633,17.837059 -122.44922,47.201172 C 56.095162,39.792642 32.538561,136.8828 79.617188,195.50195 c 3.530116,4.3481 7.40596,8.40985 11.605468,12.16211 l 16.851564,-22.51172 c -2.38564,-2.30014 2.44066,-4.11737 0.36914,-6.68945 C 72.534408,133.7507 92.923289,50.57429 151.93555,3.1796875 210.94852,-44.215138 287.89874,-46.389878 323.80859,-1.6777344 335.72765,13.16319 342.20765,43.634585 342.61248,62.983119 l 35.21369,3.722418 c 5.38972,-34.710449 -1.57087,-66.59192151 -22.49023,-92.639131 -21.90158,-27.270053 -56.56633,-42.510959 -96.75,-42.65625 z m 78.46255,155.291019 c -7.74715,29.851085 -25.89528,54.962945 -55.07388,78.396485 -43.75703,35.13804 -96.83263,48.17232 -137.75195,30.36718 L 115.9375,224.4707 c 53.51029,26.78695 128.34684,13.3467 186.78125,-33.54492 32.83284,-26.3684 57.63861,-68.22881 69.46829,-101.997706 z"
             transform="scale(0.26458333)"
             sodipodi:nodetypes="scccccccccccsccccccc" />
        </g>
        <g
           id="g8819"
           transform="translate(-43.493343,4.3493343)"
           style="fill:#00ff00;stroke:#b3b3b3">
          <path
             id="path8815"
             style="fill:#00ff00;stroke:#b3b3b3;stroke-width:0.148005;stroke-linejoin:round;paint-order:markers fill stroke"
             d="m 33.53672,31.226191 a 24.188417,49.817665 80.422632 0 0 -67.84246,0.753619 24.188417,49.817665 80.422632 0 0 -15.99979,35.701399 24.188417,49.817665 80.422632 0 0 67.84199,-0.75341 24.188417,49.817665 80.422632 0 0 16.00026,-35.701608 z m -9.587,3.993203 a 18.50988,38.487609 79.957166 0 1 -12.72097,27.456235 18.50988,38.487609 79.957166 0 1 -52.26386,0.79948 18.50988,38.487609 79.957166 0 1 12.72098,-27.456223 18.50988,38.487609 79.957166 0 1 52.26385,-0.799492 z" />
          <path
             id="path8817"
             style="fill:#00ff00;stroke:#b3b3b3;stroke-width:0.661489;stroke-linejoin:round;paint-order:markers fill stroke"
             d="m 258.58594,-68.589844 c -1.29625,-0.0047 -2.59681,0.0064 -3.9043,0.0332 -41.83997,0.858286 -85.88633,17.837059 -122.44922,47.201172 C 56.095162,39.792642 32.538561,136.8828 79.617188,195.50195 c 3.530116,4.3481 7.40596,8.40985 11.605468,12.16211 l 16.851564,-22.51172 c -2.38564,-2.30014 2.44066,-4.11737 0.36914,-6.68945 C 72.534408,133.7507 92.923289,50.57429 151.93555,3.1796875 210.94852,-44.215138 287.89874,-46.389878 323.80859,-1.6777344 335.72765,13.16319 342.20765,43.634585 342.61248,62.983119 l 35.21369,3.722418 c 5.38972,-34.710449 -1.57087,-66.59192151 -22.49023,-92.639131 -21.90158,-27.270053 -56.56633,-42.510959 -96.75,-42.65625 z m 78.46255,155.291019 c -7.74715,29.851085 -25.89528,54.962945 -55.07388,78.396485 -43.75703,35.13804 -96.83263,48.17232 -137.75195,30.36718 L 115.9375,224.4707 c 53.51029,26.78695 128.34684,13.3467 186.78125,-33.54492 32.83284,-26.3684 57.63861,-68.22881 69.46829,-101.997706 z"
             transform="scale(0.26458333)"
             sodipodi:nodetypes="scccccccccccsccccccc" />
        </g>
      </g>
      <circle
         style="fill:#1a1a1a;stroke-width:0.15875;stroke-linejoin:round;paint-order:markers fill stroke;filter:url(#filter7190)"
         id="circle8823"
         cx="343.57452"
         cy="117.98205"
         r="5.2721896"
         transform="matrix(0.74563207,0,0,0.74563207,-208.57805,3.229756)" />
      <circle
         style="fill:#1a1a1a;stroke-width:0.15875;stroke-linejoin:round;paint-order:markers fill stroke;filter:url(#filter7190)"
         id="circle8825"
         cx="343.57452"
         cy="117.98205"
         r="5.2721896"
         transform="matrix(0.74563207,0,0,0.74563207,-160.68899,-41.583854)" />
    </g>
    <g
       id="g8847"
       transform="matrix(0.56596068,-0.44141737,0.46949153,0.6019558,-67.239787,42.999883)">
      <g
         id="g8841"
         transform="matrix(0.22311593,-0.09807209,0.09807209,0.22311593,60.140859,69.75594)"
         style="fill:#00ff00;stroke:#b3b3b3;filter:url(#filter5410)">
        <g
           id="g8833"
           transform="translate(80.773352,-46.289344)"
           style="fill:#00ff00;stroke:#b3b3b3">
          <path
             id="path8829"
             style="fill:#00ff00;stroke:#b3b3b3;stroke-width:0.148005;stroke-linejoin:round;paint-order:markers fill stroke"
             d="m 33.53672,31.226191 a 24.188417,49.817665 80.422632 0 0 -67.84246,0.753619 24.188417,49.817665 80.422632 0 0 -15.99979,35.701399 24.188417,49.817665 80.422632 0 0 67.84199,-0.75341 24.188417,49.817665 80.422632 0 0 16.00026,-35.701608 z m -9.587,3.993203 a 18.50988,38.487609 79.957166 0 1 -12.72097,27.456235 18.50988,38.487609 79.957166 0 1 -52.26386,0.79948 18.50988,38.487609 79.957166 0 1 12.72098,-27.456223 18.50988,38.487609 79.957166 0 1 52.26385,-0.799492 z" />
          <path
             id="path8831"
             style="fill:#00ff00;stroke:#b3b3b3;stroke-width:0.661489;stroke-linejoin:round;paint-order:markers fill stroke"
             d="m 258.58594,-68.589844 c -1.29625,-0.0047 -2.59681,0.0064 -3.9043,0.0332 -41.83997,0.858286 -85.88633,17.837059 -122.44922,47.201172 C 56.095162,39.792642 32.538561,136.8828 79.617188,195.50195 c 3.530116,4.3481 7.40596,8.40985 11.605468,12.16211 l 16.851564,-22.51172 c -2.38564,-2.30014 2.44066,-4.11737 0.36914,-6.68945 C 72.534408,133.7507 92.923289,50.57429 151.93555,3.1796875 210.94852,-44.215138 287.89874,-46.389878 323.80859,-1.6777344 335.72765,13.16319 342.20765,43.634585 342.61248,62.983119 l 35.21369,3.722418 c 5.38972,-34.710449 -1.57087,-66.59192151 -22.49023,-92.639131 -21.90158,-27.270053 -56.56633,-42.510959 -96.75,-42.65625 z m 78.46255,155.291019 c -7.74715,29.851085 -25.89528,54.962945 -55.07388,78.396485 -43.75703,35.13804 -96.83263,48.17232 -137.75195,30.36718 L 115.9375,224.4707 c 53.51029,26.78695 128.34684,13.3467 186.78125,-33.54492 32.83284,-26.3684 57.63861,-68.22881 69.46829,-101.997706 z"
             transform="scale(0.26458333)"
             sodipodi:nodetypes="scccccccccccsccccccc" />
        </g>
        <g
           id="g8839"
           transform="translate(-43.493343,4.3493343)"
           style="fill:#00ff00;stroke:#b3b3b3">
          <path
             id="path8835"
             style="fill:#00ff00;stroke:#b3b3b3;stroke-width:0.148005;stroke-linejoin:round;paint-order:markers fill stroke"
             d="m 33.53672,31.226191 a 24.188417,49.817665 80.422632 0 0 -67.84246,0.753619 24.188417,49.817665 80.422632 0 0 -15.99979,35.701399 24.188417,49.817665 80.422632 0 0 67.84199,-0.75341 24.188417,49.817665 80.422632 0 0 16.00026,-35.701608 z m -9.587,3.993203 a 18.50988,38.487609 79.957166 0 1 -12.72097,27.456235 18.50988,38.487609 79.957166 0 1 -52.26386,0.79948 18.50988,38.487609 79.957166 0 1 12.72098,-27.456223 18.50988,38.487609 79.957166 0 1 52.26385,-0.799492 z" />
          <path
             id="path8837"
             style="fill:#00ff00;stroke:#b3b3b3;stroke-width:0.661489;stroke-linejoin:round;paint-order:markers fill stroke"
             d="m 258.58594,-68.589844 c -1.29625,-0.0047 -2.59681,0.0064 -3.9043,0.0332 -41.83997,0.858286 -85.88633,17.837059 -122.44922,47.201172 C 56.095162,39.792642 32.538561,136.8828 79.617188,195.50195 c 3.530116,4.3481 7.40596,8.40985 11.605468,12.16211 l 16.851564,-22.51172 c -2.38564,-2.30014 2.44066,-4.11737 0.36914,-6.68945 C 72.534408,133.7507 92.923289,50.57429 151.93555,3.1796875 210.94852,-44.215138 287.89874,-46.389878 323.80859,-1.6777344 335.72765,13.16319 342.20765,43.634585 342.61248,62.983119 l 35.21369,3.722418 c 5.38972,-34.710449 -1.57087,-66.59192151 -22.49023,-92.639131 -21.90158,-27.270053 -56.56633,-42.510959 -96.75,-42.65625 z m 78.46255,155.291019 c -7.74715,29.851085 -25.89528,54.962945 -55.07388,78.396485 -43.75703,35.13804 -96.83263,48.17232 -137.75195,30.36718 L 115.9375,224.4707 c 53.51029,26.78695 128.34684,13.3467 186.78125,-33.54492 32.83284,-26.3684 57.63861,-68.22881 69.46829,-101.997706 z"
             transform="scale(0.26458333)"
             sodipodi:nodetypes="scccccccccccsccccccc" />
        </g>
      </g>
      <circle
         style="fill:#1a1a1a;stroke-width:0.15875;stroke-linejoin:round;paint-order:markers fill stroke;filter:url(#filter7190)"
         id="circle8843"
         cx="343.57452"
         cy="117.98205"
         r="5.2721896"
         transform="matrix(0.74563207,0,0,0.74563207,-208.57805,3.229756)" />
      <circle
         style="fill:#1a1a1a;stroke-width:0.15875;stroke-linejoin:round;paint-order:markers fill stroke;filter:url(#filter7190)"
         id="circle8845"
         cx="343.57452"
         cy="117.98205"
         r="5.2721896"
         transform="matrix(0.74563207,0,0,0.74563207,-160.68899,-41.583854)" />
    </g>
    <g
       id="g8807"
       transform="translate(0.50004284,4.6477604)">
      <g
         id="g7360"
         transform="matrix(0.22311593,-0.09807209,0.09807209,0.22311593,60.140859,69.75594)"
         style="fill:#00ff00;stroke:#b3b3b3;filter:url(#filter5410)">
        <g
           id="g7352"
           transform="translate(80.773352,-46.289344)"
           style="fill:#00ff00;stroke:#b3b3b3">
          <path
             id="path7348"
             style="fill:#00ff00;stroke:#b3b3b3;stroke-width:0.148005;stroke-linejoin:round;paint-order:markers fill stroke"
             d="m 33.53672,31.226191 a 24.188417,49.817665 80.422632 0 0 -67.84246,0.753619 24.188417,49.817665 80.422632 0 0 -15.99979,35.701399 24.188417,49.817665 80.422632 0 0 67.84199,-0.75341 24.188417,49.817665 80.422632 0 0 16.00026,-35.701608 z m -9.587,3.993203 a 18.50988,38.487609 79.957166 0 1 -12.72097,27.456235 18.50988,38.487609 79.957166 0 1 -52.26386,0.79948 18.50988,38.487609 79.957166 0 1 12.72098,-27.456223 18.50988,38.487609 79.957166 0 1 52.26385,-0.799492 z" />
          <path
             id="path7350"
             style="fill:#00ff00;stroke:#b3b3b3;stroke-width:0.661489;stroke-linejoin:round;paint-order:markers fill stroke"
             d="m 258.58594,-68.589844 c -1.29625,-0.0047 -2.59681,0.0064 -3.9043,0.0332 -41.83997,0.858286 -85.88633,17.837059 -122.44922,47.201172 C 56.095162,39.792642 32.538561,136.8828 79.617188,195.50195 c 3.530116,4.3481 7.40596,8.40985 11.605468,12.16211 l 16.851564,-22.51172 c -2.38564,-2.30014 2.44066,-4.11737 0.36914,-6.68945 C 72.534408,133.7507 92.923289,50.57429 151.93555,3.1796875 210.94852,-44.215138 287.89874,-46.389878 323.80859,-1.6777344 335.72765,13.16319 342.20765,43.634585 342.61248,62.983119 l 35.21369,3.722418 c 5.38972,-34.710449 -1.57087,-66.59192151 -22.49023,-92.639131 -21.90158,-27.270053 -56.56633,-42.510959 -96.75,-42.65625 z m 78.46255,155.291019 c -7.74715,29.851085 -25.89528,54.962945 -55.07388,78.396485 -43.75703,35.13804 -96.83263,48.17232 -137.75195,30.36718 L 115.9375,224.4707 c 53.51029,26.78695 128.34684,13.3467 186.78125,-33.54492 32.83284,-26.3684 57.63861,-68.22881 69.46829,-101.997706 z"
             transform="scale(0.26458333)"
             sodipodi:nodetypes="scccccccccccsccccccc" />
        </g>
        <g
           id="g7358"
           transform="translate(-43.493343,4.3493343)"
           style="fill:#00ff00;stroke:#b3b3b3">
          <path
             id="path7354"
             style="fill:#00ff00;stroke:#b3b3b3;stroke-width:0.148005;stroke-linejoin:round;paint-order:markers fill stroke"
             d="m 33.53672,31.226191 a 24.188417,49.817665 80.422632 0 0 -67.84246,0.753619 24.188417,49.817665 80.422632 0 0 -15.99979,35.701399 24.188417,49.817665 80.422632 0 0 67.84199,-0.75341 24.188417,49.817665 80.422632 0 0 16.00026,-35.701608 z m -9.587,3.993203 a 18.50988,38.487609 79.957166 0 1 -12.72097,27.456235 18.50988,38.487609 79.957166 0 1 -52.26386,0.79948 18.50988,38.487609 79.957166 0 1 12.72098,-27.456223 18.50988,38.487609 79.957166 0 1 52.26385,-0.799492 z" />
          <path
             id="path7356"
             style="fill:#00ff00;stroke:#b3b3b3;stroke-width:0.661489;stroke-linejoin:round;paint-order:markers fill stroke"
             d="m 258.58594,-68.589844 c -1.29625,-0.0047 -2.59681,0.0064 -3.9043,0.0332 -41.83997,0.858286 -85.88633,17.837059 -122.44922,47.201172 C 56.095162,39.792642 32.538561,136.8828 79.617188,195.50195 c 3.530116,4.3481 7.40596,8.40985 11.605468,12.16211 l 16.851564,-22.51172 c -2.38564,-2.30014 2.44066,-4.11737 0.36914,-6.68945 C 72.534408,133.7507 92.923289,50.57429 151.93555,3.1796875 210.94852,-44.215138 287.89874,-46.389878 323.80859,-1.6777344 335.72765,13.16319 342.20765,43.634585 342.61248,62.983119 l 35.21369,3.722418 c 5.38972,-34.710449 -1.57087,-66.59192151 -22.49023,-92.639131 -21.90158,-27.270053 -56.56633,-42.510959 -96.75,-42.65625 z m 78.46255,155.291019 c -7.74715,29.851085 -25.89528,54.962945 -55.07388,78.396485 -43.75703,35.13804 -96.83263,48.17232 -137.75195,30.36718 L 115.9375,224.4707 c 53.51029,26.78695 128.34684,13.3467 186.78125,-33.54492 32.83284,-26.3684 57.63861,-68.22881 69.46829,-101.997706 z"
             transform="scale(0.26458333)"
             sodipodi:nodetypes="scccccccccccsccccccc" />
        </g>
      </g>
      <circle
         style="fill:#1a1a1a;stroke-width:0.15875;stroke-linejoin:round;paint-order:markers fill stroke;filter:url(#filter7190)"
         id="circle8796"
         cx="343.57452"
         cy="117.98205"
         r="5.2721896"
         transform="matrix(0.74563207,0,0,0.74563207,-208.57805,3.229756)" />
      <circle
         style="fill:#1a1a1a;stroke-width:0.15875;stroke-linejoin:round;paint-order:markers fill stroke;filter:url(#filter7190)"
         id="circle7298"
         cx="343.57452"
         cy="117.98205"
         r="5.2721896"
         transform="matrix(0.74563207,0,0,0.74563207,-160.68899,-41.583854)" />
    </g>
    <g
       id="g7374"
       transform="matrix(0.11039895,0.20300572,-0.20300572,0.11039895,111.56435,155.75189)"
       style="fill:#00ff00;stroke:#b3b3b3;filter:url(#filter5410)">
      <g
         id="g7366"
         transform="translate(80.773352,-46.289344)"
         style="fill:#00ff00;stroke:#b3b3b3">
        <path
           id="path7362"
           style="fill:#00ff00;stroke:#b3b3b3;stroke-width:0.148005;stroke-linejoin:round;paint-order:markers fill stroke"
           d="m 33.53672,31.226191 a 24.188417,49.817665 80.422632 0 0 -67.84246,0.753619 24.188417,49.817665 80.422632 0 0 -15.99979,35.701399 24.188417,49.817665 80.422632 0 0 67.84199,-0.75341 24.188417,49.817665 80.422632 0 0 16.00026,-35.701608 z m -9.587,3.993203 a 18.50988,38.487609 79.957166 0 1 -12.72097,27.456235 18.50988,38.487609 79.957166 0 1 -52.26386,0.79948 18.50988,38.487609 79.957166 0 1 12.72098,-27.456223 18.50988,38.487609 79.957166 0 1 52.26385,-0.799492 z" />
        <path
           id="path7364"
           style="fill:#00ff00;stroke:#b3b3b3;stroke-width:0.661489;stroke-linejoin:round;paint-order:markers fill stroke"
           d="m 258.58594,-68.589844 c -1.29625,-0.0047 -2.59681,0.0064 -3.9043,0.0332 -41.83997,0.858286 -85.88633,17.837059 -122.44922,47.201172 C 56.095162,39.792642 32.538561,136.8828 79.617188,195.50195 c 3.530116,4.3481 7.40596,8.40985 11.605468,12.16211 l 16.851564,-22.51172 c -2.38564,-2.30014 2.44066,-4.11737 0.36914,-6.68945 C 72.534408,133.7507 92.923289,50.57429 151.93555,3.1796875 210.94852,-44.215138 287.89874,-46.389878 323.80859,-1.6777344 335.72765,13.16319 342.20765,43.634585 342.61248,62.983119 l 35.21369,3.722418 c 5.38972,-34.710449 -1.57087,-66.59192151 -22.49023,-92.639131 -21.90158,-27.270053 -56.56633,-42.510959 -96.75,-42.65625 z m 78.46255,155.291019 c -7.74715,29.851085 -25.89528,54.962945 -55.07388,78.396485 -43.75703,35.13804 -96.83263,48.17232 -137.75195,30.36718 L 115.9375,224.4707 c 53.51029,26.78695 128.34684,13.3467 186.78125,-33.54492 32.83284,-26.3684 57.63861,-68.22881 69.46829,-101.997706 z"
           transform="scale(0.26458333)"
           sodipodi:nodetypes="scccccccccccsccccccc" />
      </g>
      <g
         id="g7372"
         transform="translate(-43.493343,4.3493343)"
         style="fill:#00ff00;stroke:#b3b3b3">
        <path
           id="path7368"
           style="fill:#00ff00;stroke:#b3b3b3;stroke-width:0.148005;stroke-linejoin:round;paint-order:markers fill stroke"
           d="m 33.53672,31.226191 a 24.188417,49.817665 80.422632 0 0 -67.84246,0.753619 24.188417,49.817665 80.422632 0 0 -15.99979,35.701399 24.188417,49.817665 80.422632 0 0 67.84199,-0.75341 24.188417,49.817665 80.422632 0 0 16.00026,-35.701608 z m -9.587,3.993203 a 18.50988,38.487609 79.957166 0 1 -12.72097,27.456235 18.50988,38.487609 79.957166 0 1 -52.26386,0.79948 18.50988,38.487609 79.957166 0 1 12.72098,-27.456223 18.50988,38.487609 79.957166 0 1 52.26385,-0.799492 z" />
        <path
           id="path7370"
           style="fill:#00ff00;stroke:#b3b3b3;stroke-width:0.661489;stroke-linejoin:round;paint-order:markers fill stroke"
           d="m 258.58594,-68.589844 c -1.29625,-0.0047 -2.59681,0.0064 -3.9043,0.0332 -41.83997,0.858286 -85.88633,17.837059 -122.44922,47.201172 C 56.095162,39.792642 32.538561,136.8828 79.617188,195.50195 c 3.530116,4.3481 7.40596,8.40985 11.605468,12.16211 l 16.851564,-22.51172 c -2.38564,-2.30014 2.44066,-4.11737 0.36914,-6.68945 C 72.534408,133.7507 92.923289,50.57429 151.93555,3.1796875 210.94852,-44.215138 287.89874,-46.389878 323.80859,-1.6777344 335.72765,13.16319 342.20765,43.634585 342.61248,62.983119 l 35.21369,3.722418 c 5.38972,-34.710449 -1.57087,-66.59192151 -22.49023,-92.639131 -21.90158,-27.270053 -56.56633,-42.510959 -96.75,-42.65625 z m 78.46255,155.291019 c -7.74715,29.851085 -25.89528,54.962945 -55.07388,78.396485 -43.75703,35.13804 -96.83263,48.17232 -137.75195,30.36718 L 115.9375,224.4707 c 53.51029,26.78695 128.34684,13.3467 186.78125,-33.54492 32.83284,-26.3684 57.63861,-68.22881 69.46829,-101.997706 z"
           transform="scale(0.26458333)"
           sodipodi:nodetypes="scccccccccccsccccccc" />
      </g>
    </g>
    <g
       id="g5308"
       transform="matrix(0.12424064,0.24044766,-0.21508391,0.13889171,189.9897,57.300009)"
       style="fill:#00ff00;stroke:#b3b3b3;filter:url(#filter5410)">
      <g
         id="g4950"
         transform="translate(80.773352,-46.289344)"
         style="fill:#00ff00;stroke:#b3b3b3">
        <path
           id="path3278"
           style="fill:#00ff00;stroke:#b3b3b3;stroke-width:0.148005;stroke-linejoin:round;paint-order:markers fill stroke"
           d="m 33.53672,31.226191 a 24.188417,49.817665 80.422632 0 0 -67.84246,0.753619 24.188417,49.817665 80.422632 0 0 -15.99979,35.701399 24.188417,49.817665 80.422632 0 0 67.84199,-0.75341 24.188417,49.817665 80.422632 0 0 16.00026,-35.701608 z m -9.587,3.993203 a 18.50988,38.487609 79.957166 0 1 -12.72097,27.456235 18.50988,38.487609 79.957166 0 1 -52.26386,0.79948 18.50988,38.487609 79.957166 0 1 12.72098,-27.456223 18.50988,38.487609 79.957166 0 1 52.26385,-0.799492 z" />
        <path
           id="path3068"
           style="fill:#00ff00;stroke:#b3b3b3;stroke-width:0.661489;stroke-linejoin:round;paint-order:markers fill stroke"
           d="m 258.58594,-68.589844 c -1.29625,-0.0047 -2.59681,0.0064 -3.9043,0.0332 -41.83997,0.858286 -85.88633,17.837059 -122.44922,47.201172 C 56.095162,39.792642 32.538561,136.8828 79.617188,195.50195 c 3.530116,4.3481 7.40596,8.40985 11.605468,12.16211 l 16.851564,-22.51172 c -2.38564,-2.30014 2.44066,-4.11737 0.36914,-6.68945 C 72.534408,133.7507 92.923289,50.57429 151.93555,3.1796875 210.94852,-44.215138 287.89874,-46.389878 323.80859,-1.6777344 335.72765,13.16319 342.20765,43.634585 342.61248,62.983119 l 35.21369,3.722418 c 5.38972,-34.710449 -1.57087,-66.59192151 -22.49023,-92.639131 -21.90158,-27.270053 -56.56633,-42.510959 -96.75,-42.65625 z m 78.46255,155.291019 c -7.74715,29.851085 -25.89528,54.962945 -55.07388,78.396485 -43.75703,35.13804 -96.83263,48.17232 -137.75195,30.36718 L 115.9375,224.4707 c 53.51029,26.78695 128.34684,13.3467 186.78125,-33.54492 32.83284,-26.3684 57.63861,-68.22881 69.46829,-101.997706 z"
           transform="scale(0.26458333)"
           sodipodi:nodetypes="scccccccccccsccccccc" />
      </g>
      <g
         id="g4956"
         transform="translate(-43.493343,4.3493343)"
         style="fill:#00ff00;stroke:#b3b3b3">
        <path
           id="path4952"
           style="fill:#00ff00;stroke:#b3b3b3;stroke-width:0.148005;stroke-linejoin:round;paint-order:markers fill stroke"
           d="m 33.53672,31.226191 a 24.188417,49.817665 80.422632 0 0 -67.84246,0.753619 24.188417,49.817665 80.422632 0 0 -15.99979,35.701399 24.188417,49.817665 80.422632 0 0 67.84199,-0.75341 24.188417,49.817665 80.422632 0 0 16.00026,-35.701608 z m -9.587,3.993203 a 18.50988,38.487609 79.957166 0 1 -12.72097,27.456235 18.50988,38.487609 79.957166 0 1 -52.26386,0.79948 18.50988,38.487609 79.957166 0 1 12.72098,-27.456223 18.50988,38.487609 79.957166 0 1 52.26385,-0.799492 z" />
        <path
           id="path4954"
           style="fill:#00ff00;stroke:#b3b3b3;stroke-width:0.661489;stroke-linejoin:round;paint-order:markers fill stroke"
           d="m 258.58594,-68.589844 c -1.29625,-0.0047 -2.59681,0.0064 -3.9043,0.0332 -41.83997,0.858286 -85.88633,17.837059 -122.44922,47.201172 C 56.095162,39.792642 32.538561,136.8828 79.617188,195.50195 c 3.530116,4.3481 7.40596,8.40985 11.605468,12.16211 l 16.851564,-22.51172 c -2.38564,-2.30014 2.44066,-4.11737 0.36914,-6.68945 C 72.534408,133.7507 92.923289,50.57429 151.93555,3.1796875 210.94852,-44.215138 287.89874,-46.389878 323.80859,-1.6777344 335.72765,13.16319 342.20765,43.634585 342.61248,62.983119 l 35.21369,3.722418 c 5.38972,-34.710449 -1.57087,-66.59192151 -22.49023,-92.639131 -21.90158,-27.270053 -56.56633,-42.510959 -96.75,-42.65625 z m 78.46255,155.291019 c -7.74715,29.851085 -25.89528,54.962945 -55.07388,78.396485 -43.75703,35.13804 -96.83263,48.17232 -137.75195,30.36718 L 115.9375,224.4707 c 53.51029,26.78695 128.34684,13.3467 186.78125,-33.54492 32.83284,-26.3684 57.63861,-68.22881 69.46829,-101.997706 z"
           transform="scale(0.26458333)"
           sodipodi:nodetypes="scccccccccccsccccccc" />
      </g>
    </g>
    <circle
       style="fill:#1a1a1a;stroke-width:0.15875;stroke-linejoin:round;paint-order:markers fill stroke;filter:url(#filter7190)"
       id="circle8794"
       cx="343.57452"
       cy="117.98205"
       r="5.2721896"
       transform="matrix(0.74563207,0,0,0.74563207,-39.073348,7.6267725)" />
    <circle
       style="fill:#1a1a1a;stroke-width:0.15875;stroke-linejoin:round;paint-order:markers fill stroke;filter:url(#filter7190)"
       id="circle7294"
       cx="343.57452"
       cy="117.98205"
       r="5.2721896"
       transform="matrix(0.74563207,0,0,0.74563207,-89.818171,-43.11805)" />
    <circle
       style="fill:#1a1a1a;stroke-width:0.15875;stroke-linejoin:round;paint-order:markers fill stroke;filter:url(#filter7190)"
       id="circle7300"
       cx="343.57452"
       cy="117.98205"
       r="5.2721896"
       transform="matrix(0.74563207,0,0,0.74563207,-165.2009,56.564036)" />
    <circle
       style="fill:#1a1a1a;stroke-width:0.15875;stroke-linejoin:round;paint-order:markers fill stroke;filter:url(#filter7190)"
       id="circle7296"
       cx="343.57452"
       cy="117.98205"
       r="5.2721896"
       transform="matrix(0.74563207,0,0,0.74563207,-119.21401,98.760301)" />
  </g>
</svg>
