<?xml version="1.0" encoding="UTF-8" standalone="no"?>
<svg
   width="24"
   height="24"
   viewBox="0 0 24 24"
   fill="none"
   version="1.1"
   id="svg8"
   sodipodi:docname="cart.svg"
   inkscape:version="1.1 (c68e22c387, 2021-05-23)"
   xmlns:inkscape="http://www.inkscape.org/namespaces/inkscape"
   xmlns:sodipodi="http://sodipodi.sourceforge.net/DTD/sodipodi-0.dtd"
   xmlns="http://www.w3.org/2000/svg"
   xmlns:svg="http://www.w3.org/2000/svg">
  <defs
     id="defs12" />
  <sodipodi:namedview
     id="namedview10"
     pagecolor="#ffffff"
     bordercolor="#666666"
     borderopacity="1.0"
     inkscape:pageshadow="2"
     inkscape:pageopacity="0.0"
     inkscape:pagecheckerboard="0"
     showgrid="false"
     inkscape:zoom="28.166667"
     inkscape:cx="12"
     inkscape:cy="11.982249"
     inkscape:window-width="1920"
     inkscape:window-height="1017"
     inkscape:window-x="-8"
     inkscape:window-y="-8"
     inkscape:window-maximized="1"
     inkscape:current-layer="svg8" />
  <path
     fill-rule="evenodd"
     clip-rule="evenodd"
     d="M5.79166 2H1V4H4.2184L6.9872 16.6776H7V17H20V16.7519L22.1932 7.09095L22.5308 6H6.6552L6.08485 3.38852L5.79166 2ZM19.9869 8H7.092L8.62081 15H18.3978L19.9869 8Z"
     fill="currentColor"
     id="path2"
     style="fill:#ffffff" />
  <path
     d="M10 22C11.1046 22 12 21.1046 12 20C12 18.8954 11.1046 18 10 18C8.89543 18 8 18.8954 8 20C8 21.1046 8.89543 22 10 22Z"
     fill="currentColor"
     id="path4"
     style="fill:#ffffff" />
  <path
     d="M19 20C19 21.1046 18.1046 22 17 22C15.8954 22 15 21.1046 15 20C15 18.8954 15.8954 18 17 18C18.1046 18 19 18.8954 19 20Z"
     fill="currentColor"
     id="path6"
     style="fill:#ffffff" />
</svg>
