<?xml version="1.0" encoding="UTF-8" standalone="no"?>
<svg
   width="24"
   height="24"
   viewBox="0 0 24 24"
   fill="none"
   version="1.1"
   id="svg6"
   sodipodi:docname="pen.svg"
   inkscape:version="1.1 (c68e22c387, 2021-05-23)"
   xmlns:inkscape="http://www.inkscape.org/namespaces/inkscape"
   xmlns:sodipodi="http://sodipodi.sourceforge.net/DTD/sodipodi-0.dtd"
   xmlns="http://www.w3.org/2000/svg"
   xmlns:svg="http://www.w3.org/2000/svg">
  <defs
     id="defs10" />
  <sodipodi:namedview
     id="namedview8"
     pagecolor="#ffffff"
     bordercolor="#666666"
     borderopacity="1.0"
     inkscape:pageshadow="2"
     inkscape:pageopacity="0.0"
     inkscape:pagecheckerboard="0"
     showgrid="false"
     inkscape:zoom="28.166667"
     inkscape:cx="12"
     inkscape:cy="17.840237"
     inkscape:window-width="1920"
     inkscape:window-height="1017"
     inkscape:window-x="-8"
     inkscape:window-y="-8"
     inkscape:window-maximized="1"
     inkscape:current-layer="svg6" />
  <path
     fill-rule="evenodd"
     clip-rule="evenodd"
     d="M21.2635 2.29289C20.873 1.90237 20.2398 1.90237 19.8493 2.29289L18.9769 3.16525C17.8618 2.63254 16.4857 2.82801 15.5621 3.75165L4.95549 14.3582L10.6123 20.0151L21.2189 9.4085C22.1426 8.48486 22.338 7.1088 21.8053 5.99367L22.6777 5.12132C23.0682 4.7308 23.0682 4.09763 22.6777 3.70711L21.2635 2.29289ZM16.9955 10.8035L10.6123 17.1867L7.78392 14.3582L14.1671 7.9751L16.9955 10.8035ZM18.8138 8.98525L19.8047 7.99429C20.1953 7.60376 20.1953 6.9706 19.8047 6.58007L18.3905 5.16586C18 4.77534 17.3668 4.77534 16.9763 5.16586L15.9853 6.15683L18.8138 8.98525Z"
     fill="currentColor"
     id="path2"
     style="fill:#f2f2f2" />
  <path
     d="M2 22.9502L4.12171 15.1717L9.77817 20.8289L2 22.9502Z"
     fill="currentColor"
     id="path4"
     style="fill:#f2f2f2" />
</svg>
