<?xml version="1.0" encoding="UTF-8" standalone="no"?>
<!-- Created with Inkscape (http://www.inkscape.org/) -->

<svg
   width="21.676731"
   height="28.354397"
   viewBox="0 0 5.735302 7.5021007"
   version="1.1"
   id="svg5"
   inkscape:version="1.1 (c68e22c387, 2021-05-23)"
   sodipodi:docname="tag.svg"
   xmlns:inkscape="http://www.inkscape.org/namespaces/inkscape"
   xmlns:sodipodi="http://sodipodi.sourceforge.net/DTD/sodipodi-0.dtd"
   xmlns="http://www.w3.org/2000/svg"
   xmlns:svg="http://www.w3.org/2000/svg">
  <sodipodi:namedview
     id="namedview7"
     pagecolor="#ffffff"
     bordercolor="#000000"
     borderopacity="0"
     inkscape:pageshadow="2"
     inkscape:pageopacity="0.0"
     inkscape:pagecheckerboard="0"
     inkscape:document-units="px"
     showgrid="false"
     fit-margin-top="0"
     fit-margin-left="0"
     fit-margin-right="0"
     fit-margin-bottom="0"
     units="px"
     lock-margins="true"
     inkscape:zoom="19.270932"
     inkscape:cx="16.475592"
     inkscape:cy="15.437759"
     inkscape:window-width="1920"
     inkscape:window-height="1017"
     inkscape:window-x="-8"
     inkscape:window-y="-8"
     inkscape:window-maximized="1"
     inkscape:current-layer="layer1" />
  <defs
     id="defs2" />
  <g
     inkscape:label="Layer 1"
     inkscape:groupmode="layer"
     id="layer1"
     transform="translate(-35.038681,-35.753595)">
    <path
       style="color:#000000;fill:#000000;stroke-width:0.15875;stroke-linejoin:round;paint-order:markers fill stroke;stroke-miterlimit:4;stroke-dasharray:none;stroke:#000000"
       d="m 36.949399,39.24899 -1.894203,1.894204 a 0.05586907,0.05586907 0 0 0 0,0.07931 l 2.016674,2.016674 a 0.05586907,0.05586907 0 0 0 0.07931,0 l 1.894203,-1.894204 -0.07931,-0.07931 -1.854546,1.854546 -1.937942,-1.937943 1.854546,-1.854546 z"
       id="path1202" />
    <path
       style="color:#000000;fill:#000000;stroke-width:0.15875;stroke-miterlimit:4;stroke-dasharray:none;stroke:#000000"
       d="m 39.672899,39.030877 -0.10789,-0.02858 -0.613516,2.28844 0.0939,0.05424 z"
       id="path1589"
       sodipodi:nodetypes="ccccc" />
    <path
       style="color:#000000;fill:none;stroke-width:0.15875;stroke-miterlimit:4;stroke-dasharray:none;stroke:#000000"
       d="m 39.2635,38.621477 -2.314101,0.627513 0.05365,0.09331 2.289023,-0.612933 z"
       id="path1506"
       sodipodi:nodetypes="ccccc" />
    <path
       style="color:#000000;fill:#000000;stroke-width:0.238125;stroke-linejoin:round;paint-order:markers fill stroke;stroke-miterlimit:4;stroke-dasharray:none;stroke:#000000"
       d="m 39.746202,38.548105 c -0.121146,-0.121146 -0.318572,-0.121146 -0.439719,0 -0.121146,0.121147 -0.121146,0.318573 10e-7,0.439719 0.121146,0.121147 0.318571,0.121147 0.439718,0 0.121147,-0.121146 0.121147,-0.318572 0,-0.439719 z m -0.04818,0.04818 c 0.09502,0.09502 0.09466,0.247979 -3.57e-4,0.342995 -0.09502,0.09502 -0.247979,0.09537 -0.342995,3.57e-4 -0.09502,-0.09502 -0.09502,-0.248336 0,-0.343352 0.09502,-0.09502 0.248336,-0.09502 0.343352,0 z"
       id="path1613" />
    <path
       style="color:#000000;fill:#000000;stroke:#000000;stroke-width:0.15345834;stroke-miterlimit:4;stroke-dasharray:none"
       d="m 40.773437,35.748047 c 0,0 -0.285665,-0.0068 -0.476562,0.18164 -0.09545,0.09424 -0.16306,0.239738 -0.154297,0.44336 0.0088,0.203622 0.09144,0.466748 0.287109,0.8125 0.189338,0.334567 0.231736,0.580217 0.199219,0.759765 -0.03252,0.179549 -0.140117,0.299529 -0.27539,0.384766 -0.270547,0.170474 -0.644532,0.183594 -0.644532,0.183594 l 0.0039,0.105469 c 0,0 0.392348,-0.0071 0.697265,-0.199219 0.152459,-0.09607 0.285763,-0.242737 0.324219,-0.455078 0.03846,-0.212341 -0.01603,-0.484164 -0.212891,-0.832032 -0.190528,-0.336661 -0.265733,-0.584655 -0.273437,-0.763671 -0.0077,-0.179017 0.04735,-0.288543 0.123047,-0.363282 0.151393,-0.149476 0.402343,-0.152343 0.402343,-0.152343 z"
       id="path1967" />
    <path
       style="color:#000000;font-size:10.5833px;fill:#000000;stroke-width:0.238125;stroke-miterlimit:4;stroke-dasharray:none;stroke:#000000"
       d="m 37.819522,41.708984 q -0.188298,0.188297 -0.460418,0.166431 -0.270906,-0.02308 -0.532093,-0.238106 l -0.439766,0.439766 -0.143349,-0.143349 0.433692,-0.433692 q -0.159134,-0.161579 -0.270905,-0.331646 -0.110549,-0.17129 -0.166431,-0.321928 l 0.240535,-0.240535 0.01944,0.01944 q 0.0061,0.04009 0.0328,0.132415 0.02794,0.09111 0.06317,0.167646 0.04009,0.08625 0.103261,0.190727 0.0656,0.104474 0.157925,0.204091 l 0.526018,-0.526018 q -0.03887,-0.05831 -0.07167,-0.108118 -0.03159,-0.05102 -0.0571,-0.09597 -0.148209,-0.247823 -0.134846,-0.433691 0.01458,-0.187083 0.161572,-0.334077 0.179793,-0.179793 0.444625,-0.162786 0.266046,0.01822 0.540596,0.251468 l 0.330432,-0.330431 0.143349,0.143349 -0.328002,0.328002 q 0.120268,0.125125 0.222312,0.280624 0.102045,0.155497 0.154283,0.278194 l -0.238106,0.238106 -0.01701,-0.01701 q -0.03523,-0.146995 -0.09232,-0.289129 -0.05467,-0.142134 -0.205305,-0.314639 l -0.523589,0.523589 q 0.03037,0.04252 0.06195,0.09597 0.0328,0.05224 0.05831,0.0899 0.142134,0.219883 0.145778,0.41304 0.0049,0.194372 -0.159141,0.358373 z M 37.58992,40.587702 38.091642,40.08598 q -0.139704,-0.120267 -0.290343,-0.146993 -0.149423,-0.02794 -0.258757,0.08139 -0.110549,0.110549 -0.10083,0.232031 0.0097,0.121483 0.148208,0.335291 z m -0.03158,0.923266 q 0.114193,-0.114194 0.09476,-0.238105 -0.01701,-0.123912 -0.146994,-0.31464 L 37.00317,41.46116 q 0.160356,0.131201 0.297631,0.149423 0.13849,0.01944 0.257543,-0.09962 z"
       id="path6313" />
  </g>
</svg>
